%TF.GenerationSoftware,KiCad,Pcbnew,7.0.9*%
%TF.CreationDate,2023-12-13T11:13:32+03:00*%
%TF.ProjectId,rp2040,72703230-3430-42e6-9b69-6361645f7063,rev?*%
%TF.SameCoordinates,Original*%
%TF.FileFunction,Copper,L2,Bot*%
%TF.FilePolarity,Positive*%
%FSLAX46Y46*%
G04 Gerber Fmt 4.6, Leading zero omitted, Abs format (unit mm)*
G04 Created by KiCad (PCBNEW 7.0.9) date 2023-12-13 11:13:32*
%MOMM*%
%LPD*%
G01*
G04 APERTURE LIST*
%TA.AperFunction,ComponentPad*%
%ADD10C,0.800000*%
%TD*%
%TA.AperFunction,ComponentPad*%
%ADD11C,6.400000*%
%TD*%
%TA.AperFunction,ComponentPad*%
%ADD12R,1.700000X1.700000*%
%TD*%
%TA.AperFunction,ComponentPad*%
%ADD13O,1.700000X1.700000*%
%TD*%
%TA.AperFunction,ComponentPad*%
%ADD14O,1.600000X2.000000*%
%TD*%
%TA.AperFunction,ComponentPad*%
%ADD15O,1.050000X1.900000*%
%TD*%
%TA.AperFunction,ViaPad*%
%ADD16C,0.800000*%
%TD*%
%TA.AperFunction,Conductor*%
%ADD17C,0.200000*%
%TD*%
%TA.AperFunction,Conductor*%
%ADD18C,0.400000*%
%TD*%
G04 APERTURE END LIST*
D10*
%TO.P,H4,1*%
%TO.N,N/C*%
X119920000Y-128731944D03*
X120622944Y-127034888D03*
X120622944Y-130429000D03*
X122320000Y-126331944D03*
D11*
X122320000Y-128731944D03*
D10*
X122320000Y-131131944D03*
X124017056Y-127034888D03*
X124017056Y-130429000D03*
X124720000Y-128731944D03*
%TD*%
D12*
%TO.P,J2,1,Pin_1*%
%TO.N,+3.3V*%
X120920000Y-77216000D03*
D13*
%TO.P,J2,2,Pin_2*%
%TO.N,GPIO0*%
X120920000Y-79756000D03*
%TO.P,J2,3,Pin_3*%
%TO.N,GPIO1*%
X120920000Y-82296000D03*
%TO.P,J2,4,Pin_4*%
%TO.N,GPIO2*%
X120920000Y-84836000D03*
%TO.P,J2,5,Pin_5*%
%TO.N,GPIO3*%
X120920000Y-87376000D03*
%TO.P,J2,6,Pin_6*%
%TO.N,GPIO4*%
X120920000Y-89916000D03*
%TO.P,J2,7,Pin_7*%
%TO.N,GPIO5*%
X120920000Y-92456000D03*
%TO.P,J2,8,Pin_8*%
%TO.N,GPIO6*%
X120920000Y-94996000D03*
%TO.P,J2,9,Pin_9*%
%TO.N,GPIO7*%
X120920000Y-97536000D03*
%TO.P,J2,10,Pin_10*%
%TO.N,GPIO8*%
X120920000Y-100076000D03*
%TO.P,J2,11,Pin_11*%
%TO.N,GPIO9*%
X120920000Y-102616000D03*
%TO.P,J2,12,Pin_12*%
%TO.N,GPIO10*%
X120920000Y-105156000D03*
%TO.P,J2,13,Pin_13*%
%TO.N,GPIO11*%
X120920000Y-107696000D03*
%TO.P,J2,14,Pin_14*%
%TO.N,GPIO12*%
X120920000Y-110236000D03*
%TO.P,J2,15,Pin_15*%
%TO.N,GPIO13*%
X120920000Y-112776000D03*
%TO.P,J2,16,Pin_16*%
%TO.N,GPIO14*%
X120920000Y-115316000D03*
%TO.P,J2,17,Pin_17*%
%TO.N,GPIO15*%
X120920000Y-117856000D03*
%TO.P,J2,18,Pin_18*%
%TO.N,GND*%
X120920000Y-120396000D03*
%TD*%
D14*
%TO.P,U5,1,VCC*%
%TO.N,Net-(J3-Pin_1)*%
X146600000Y-128837000D03*
%TO.P,U5,2,GND*%
%TO.N,GND*%
X144060000Y-128837000D03*
%TO.P,U5,3,SCL*%
%TO.N,GPIO1*%
X141520000Y-128837000D03*
%TO.P,U5,4,SDA*%
%TO.N,GPIO0*%
X138980000Y-128837000D03*
%TD*%
D12*
%TO.P,J4,1,Pin_1*%
%TO.N,GPIO29_ADC3*%
X164140000Y-77216000D03*
D13*
%TO.P,J4,2,Pin_2*%
%TO.N,GPIO28_ADC2*%
X164140000Y-79756000D03*
%TO.P,J4,3,Pin_3*%
%TO.N,GPIO27_ADC1*%
X164140000Y-82296000D03*
%TO.P,J4,4,Pin_4*%
%TO.N,GPIO26_ADC0*%
X164140000Y-84836000D03*
%TO.P,J4,5,Pin_5*%
%TO.N,GPIO25*%
X164140000Y-87376000D03*
%TO.P,J4,6,Pin_6*%
%TO.N,GPIO24*%
X164140000Y-89916000D03*
%TO.P,J4,7,Pin_7*%
%TO.N,GPIO23*%
X164140000Y-92456000D03*
%TO.P,J4,8,Pin_8*%
%TO.N,GPIO22*%
X164140000Y-94996000D03*
%TO.P,J4,9,Pin_9*%
%TO.N,GPIO21*%
X164140000Y-97536000D03*
%TO.P,J4,10,Pin_10*%
%TO.N,GPIO20*%
X164140000Y-100076000D03*
%TO.P,J4,11,Pin_11*%
%TO.N,GPIO19*%
X164140000Y-102616000D03*
%TO.P,J4,12,Pin_12*%
%TO.N,GPIO18*%
X164140000Y-105156000D03*
%TO.P,J4,13,Pin_13*%
%TO.N,GPIO17*%
X164140000Y-107696000D03*
%TO.P,J4,14,Pin_14*%
%TO.N,GPIO16*%
X164140000Y-110236000D03*
%TO.P,J4,15,Pin_15*%
%TO.N,RUN*%
X164140000Y-112776000D03*
%TO.P,J4,16,Pin_16*%
%TO.N,SWD*%
X164140000Y-115316000D03*
%TO.P,J4,17,Pin_17*%
%TO.N,SWCLK*%
X164140000Y-117856000D03*
%TO.P,J4,18,Pin_18*%
%TO.N,GND*%
X164140000Y-120396000D03*
%TD*%
D12*
%TO.P,J3,1,Pin_1*%
%TO.N,Net-(J3-Pin_1)*%
X149860000Y-123952000D03*
D13*
%TO.P,J3,2,Pin_2*%
%TO.N,+3.3V*%
X149860000Y-121412000D03*
%TD*%
D10*
%TO.P,H1,1*%
%TO.N,N/C*%
X119920000Y-68707000D03*
X120622944Y-67009944D03*
X120622944Y-70404056D03*
X122320000Y-66307000D03*
D11*
X122320000Y-68707000D03*
D10*
X122320000Y-71107000D03*
X124017056Y-67009944D03*
X124017056Y-70404056D03*
X124720000Y-68707000D03*
%TD*%
D15*
%TO.P,J1,6,Shield*%
%TO.N,GND*%
X146323000Y-68470000D03*
X139173000Y-68470000D03*
%TD*%
D10*
%TO.P,H2,1*%
%TO.N,N/C*%
X160340000Y-68707000D03*
X161042944Y-67009944D03*
X161042944Y-70404056D03*
X162740000Y-66307000D03*
D11*
X162740000Y-68707000D03*
D10*
X162740000Y-71107000D03*
X164437056Y-67009944D03*
X164437056Y-70404056D03*
X165140000Y-68707000D03*
%TD*%
%TO.P,H3,1*%
%TO.N,N/C*%
X160340000Y-128731944D03*
X161042944Y-127034888D03*
X161042944Y-130429000D03*
X162740000Y-126331944D03*
D11*
X162740000Y-128731944D03*
D10*
X162740000Y-131131944D03*
X164437056Y-127034888D03*
X164437056Y-130429000D03*
X165140000Y-128731944D03*
%TD*%
D16*
%TO.N,+1V1*%
X146899000Y-86320000D03*
X143635000Y-98980000D03*
%TO.N,GPIO2*%
X133604000Y-111125000D03*
%TO.N,GPIO3*%
X135340000Y-113917500D03*
%TO.N,GPIO14*%
X161417000Y-117983000D03*
%TO.N,GND*%
X143850000Y-122680000D03*
X138303000Y-100203000D03*
X140080000Y-100690000D03*
X140335000Y-103378000D03*
X133420000Y-85910000D03*
X143764000Y-107061000D03*
X146685000Y-114427000D03*
X151270000Y-93599000D03*
X154432000Y-74041000D03*
X143256000Y-90932000D03*
X140843000Y-93345000D03*
X135636000Y-95758000D03*
X147600000Y-76454000D03*
X153543000Y-84696000D03*
X140208000Y-82677000D03*
X143256000Y-92075000D03*
X143256000Y-93345000D03*
X140843000Y-90932000D03*
X132500000Y-93950000D03*
X143002000Y-114455000D03*
X130937000Y-77343000D03*
X140843000Y-92075000D03*
%TD*%
D17*
%TO.N,+1V1*%
X143625000Y-98890000D02*
X142240000Y-97505000D01*
X142240000Y-89154000D02*
X145074000Y-86320000D01*
X142240000Y-97505000D02*
X142240000Y-89154000D01*
X145074000Y-86320000D02*
X146899000Y-86320000D01*
D18*
%TO.N,GPIO0*%
X123305371Y-79756000D02*
X120920000Y-79756000D01*
X136779000Y-94909472D02*
X136779000Y-93229629D01*
X138980000Y-130471000D02*
X139192000Y-130683000D01*
X136779000Y-93229629D02*
X123305371Y-79756000D01*
X145260000Y-130203000D02*
X145260000Y-103390472D01*
X138980000Y-128837000D02*
X138980000Y-130471000D01*
X139192000Y-130683000D02*
X144780000Y-130683000D01*
X145260000Y-103390472D02*
X136779000Y-94909472D01*
X144780000Y-130683000D02*
X145260000Y-130203000D01*
%TO.N,GPIO1*%
X123317000Y-82296000D02*
X120920000Y-82296000D01*
X141520000Y-128837000D02*
X141520000Y-100499000D01*
X141520000Y-100499000D02*
X123317000Y-82296000D01*
%TO.N,GPIO2*%
X133604000Y-97520000D02*
X120920000Y-84836000D01*
X133604000Y-111125000D02*
X133604000Y-97520000D01*
%TO.N,GPIO3*%
X132461000Y-110490000D02*
X132461000Y-111561000D01*
X122611472Y-87376000D02*
X133004000Y-97768528D01*
X133004000Y-109947000D02*
X132461000Y-110490000D01*
X132461000Y-111561000D02*
X134817500Y-113917500D01*
X133004000Y-97768528D02*
X133004000Y-109947000D01*
X134817500Y-113917500D02*
X135340000Y-113917500D01*
X120920000Y-87376000D02*
X122611472Y-87376000D01*
D17*
%TO.N,GPIO14*%
X136979000Y-131375000D02*
X148075000Y-131375000D01*
X120920000Y-115316000D02*
X136979000Y-131375000D01*
X161417000Y-118033000D02*
X161417000Y-117983000D01*
X148075000Y-131375000D02*
X161417000Y-118033000D01*
%TO.N,GND*%
X144060000Y-126635000D02*
X143850000Y-126425000D01*
X143850000Y-126425000D02*
X143850000Y-122680000D01*
X144060000Y-128837000D02*
X144060000Y-126635000D01*
%TD*%
%TA.AperFunction,Conductor*%
%TO.N,GND*%
G36*
X160803556Y-65280353D02*
G01*
X160870594Y-65300043D01*
X160916345Y-65352850D01*
X160926284Y-65422009D01*
X160897254Y-65485563D01*
X160871082Y-65508348D01*
X160561917Y-65709122D01*
X160260488Y-65953215D01*
X160260480Y-65953222D01*
X159986222Y-66227480D01*
X159986215Y-66227488D01*
X159742122Y-66528917D01*
X159530877Y-66854206D01*
X159354787Y-67199802D01*
X159215788Y-67561905D01*
X159115397Y-67936570D01*
X159115397Y-67936572D01*
X159054722Y-68319662D01*
X159034422Y-68707000D01*
X159054722Y-69094338D01*
X159115398Y-69477433D01*
X159188801Y-69751379D01*
X159215788Y-69852094D01*
X159354787Y-70214197D01*
X159530877Y-70559793D01*
X159742122Y-70885082D01*
X159742124Y-70885084D01*
X159986219Y-71186516D01*
X160260484Y-71460781D01*
X160260488Y-71460784D01*
X160561917Y-71704877D01*
X160887206Y-71916122D01*
X160887211Y-71916125D01*
X161232806Y-72092214D01*
X161594913Y-72231214D01*
X161969567Y-72331602D01*
X162352662Y-72392278D01*
X162718576Y-72411455D01*
X162739999Y-72412578D01*
X162740000Y-72412578D01*
X162740001Y-72412578D01*
X162760301Y-72411514D01*
X163127338Y-72392278D01*
X163510433Y-72331602D01*
X163885087Y-72231214D01*
X164247194Y-72092214D01*
X164592789Y-71916125D01*
X164918084Y-71704876D01*
X165219516Y-71460781D01*
X165493781Y-71186516D01*
X165737876Y-70885084D01*
X165898317Y-70638027D01*
X165949124Y-70559791D01*
X165949125Y-70559789D01*
X166008515Y-70443228D01*
X166056489Y-70392433D01*
X166124310Y-70375637D01*
X166190445Y-70398174D01*
X166233897Y-70452889D01*
X166243000Y-70499523D01*
X166243000Y-107742521D01*
X166239800Y-126933161D01*
X166220104Y-127000197D01*
X166167293Y-127045943D01*
X166098132Y-127055875D01*
X166034582Y-127026839D01*
X166005315Y-126989434D01*
X165949125Y-126879155D01*
X165949124Y-126879152D01*
X165737877Y-126553861D01*
X165493784Y-126252432D01*
X165493781Y-126252428D01*
X165219516Y-125978163D01*
X164918084Y-125734068D01*
X164918082Y-125734066D01*
X164592793Y-125522821D01*
X164247197Y-125346731D01*
X163885094Y-125207732D01*
X163885087Y-125207730D01*
X163510433Y-125107342D01*
X163510429Y-125107341D01*
X163510428Y-125107341D01*
X163127339Y-125046666D01*
X162740001Y-125026366D01*
X162739999Y-125026366D01*
X162352660Y-125046666D01*
X161969572Y-125107341D01*
X161969570Y-125107341D01*
X161594905Y-125207732D01*
X161232802Y-125346731D01*
X160887206Y-125522821D01*
X160561917Y-125734066D01*
X160260488Y-125978159D01*
X160260480Y-125978166D01*
X159986222Y-126252424D01*
X159986215Y-126252432D01*
X159742122Y-126553861D01*
X159530877Y-126879150D01*
X159354787Y-127224746D01*
X159215788Y-127586849D01*
X159115397Y-127961514D01*
X159115397Y-127961516D01*
X159054722Y-128344604D01*
X159034422Y-128731943D01*
X159034422Y-128731944D01*
X159054722Y-129119283D01*
X159115147Y-129500795D01*
X159115398Y-129502377D01*
X159141265Y-129598916D01*
X159215788Y-129877038D01*
X159354787Y-130239141D01*
X159530877Y-130584737D01*
X159742122Y-130910026D01*
X159742124Y-130910028D01*
X159986219Y-131211460D01*
X160260484Y-131485725D01*
X160260488Y-131485728D01*
X160561917Y-131729821D01*
X160887206Y-131941066D01*
X160887211Y-131941069D01*
X160924448Y-131960042D01*
X160948927Y-131972515D01*
X160999723Y-132020490D01*
X161016518Y-132088311D01*
X160993981Y-132154446D01*
X160939265Y-132197897D01*
X160892632Y-132207000D01*
X148247817Y-132207000D01*
X148180778Y-132187315D01*
X148135023Y-132134511D01*
X148125079Y-132065353D01*
X148154104Y-132001797D01*
X148212882Y-131964023D01*
X148231627Y-131960061D01*
X148231762Y-131960044D01*
X148377841Y-131899536D01*
X148452844Y-131841984D01*
X148503282Y-131803282D01*
X148524983Y-131774999D01*
X148530311Y-131768922D01*
X161011627Y-119287606D01*
X161034901Y-119269327D01*
X161651667Y-118894495D01*
X161824049Y-118789732D01*
X161828859Y-118786711D01*
X161844368Y-118778442D01*
X161869730Y-118767151D01*
X162022871Y-118655888D01*
X162149533Y-118515216D01*
X162244179Y-118351284D01*
X162302674Y-118171256D01*
X162322460Y-117983000D01*
X162309112Y-117856000D01*
X162784341Y-117856000D01*
X162804936Y-118091403D01*
X162804938Y-118091413D01*
X162866094Y-118319655D01*
X162866096Y-118319659D01*
X162866097Y-118319663D01*
X162912810Y-118419839D01*
X162965965Y-118533830D01*
X162965967Y-118533834D01*
X163101501Y-118727395D01*
X163101506Y-118727402D01*
X163268597Y-118894493D01*
X163268603Y-118894498D01*
X163454594Y-119024730D01*
X163498219Y-119079307D01*
X163505413Y-119148805D01*
X163473890Y-119211160D01*
X163454595Y-119227880D01*
X163268922Y-119357890D01*
X163268920Y-119357891D01*
X163101891Y-119524920D01*
X163101886Y-119524926D01*
X162966400Y-119718420D01*
X162966399Y-119718422D01*
X162866570Y-119932507D01*
X162866567Y-119932513D01*
X162809364Y-120145999D01*
X162809364Y-120146000D01*
X163706314Y-120146000D01*
X163680507Y-120186156D01*
X163640000Y-120324111D01*
X163640000Y-120467889D01*
X163680507Y-120605844D01*
X163706314Y-120646000D01*
X162809364Y-120646000D01*
X162866567Y-120859486D01*
X162866570Y-120859492D01*
X162966399Y-121073578D01*
X163101894Y-121267082D01*
X163268917Y-121434105D01*
X163462421Y-121569600D01*
X163676507Y-121669429D01*
X163676516Y-121669433D01*
X163890000Y-121726634D01*
X163890000Y-120831501D01*
X163997685Y-120880680D01*
X164104237Y-120896000D01*
X164175763Y-120896000D01*
X164282315Y-120880680D01*
X164390000Y-120831501D01*
X164390000Y-121726633D01*
X164603483Y-121669433D01*
X164603492Y-121669429D01*
X164817578Y-121569600D01*
X165011082Y-121434105D01*
X165178105Y-121267082D01*
X165313600Y-121073578D01*
X165413429Y-120859492D01*
X165413432Y-120859486D01*
X165470636Y-120646000D01*
X164573686Y-120646000D01*
X164599493Y-120605844D01*
X164640000Y-120467889D01*
X164640000Y-120324111D01*
X164599493Y-120186156D01*
X164573686Y-120146000D01*
X165470636Y-120146000D01*
X165470635Y-120145999D01*
X165413432Y-119932513D01*
X165413429Y-119932507D01*
X165313600Y-119718422D01*
X165313599Y-119718420D01*
X165178113Y-119524926D01*
X165178108Y-119524920D01*
X165011078Y-119357890D01*
X164825405Y-119227879D01*
X164781780Y-119173302D01*
X164774588Y-119103804D01*
X164806110Y-119041449D01*
X164825406Y-119024730D01*
X165011401Y-118894495D01*
X165178495Y-118727401D01*
X165314035Y-118533830D01*
X165413903Y-118319663D01*
X165475063Y-118091408D01*
X165495659Y-117856000D01*
X165475063Y-117620592D01*
X165413903Y-117392337D01*
X165314035Y-117178171D01*
X165274603Y-117121855D01*
X165178494Y-116984597D01*
X165011402Y-116817506D01*
X165011396Y-116817501D01*
X164825842Y-116687575D01*
X164782217Y-116632998D01*
X164775023Y-116563500D01*
X164806546Y-116501145D01*
X164825842Y-116484425D01*
X164848026Y-116468891D01*
X165011401Y-116354495D01*
X165178495Y-116187401D01*
X165314035Y-115993830D01*
X165413903Y-115779663D01*
X165475063Y-115551408D01*
X165495659Y-115316000D01*
X165475063Y-115080592D01*
X165413903Y-114852337D01*
X165314035Y-114638171D01*
X165314032Y-114638166D01*
X165178494Y-114444597D01*
X165011402Y-114277506D01*
X165011396Y-114277501D01*
X164825842Y-114147575D01*
X164782217Y-114092998D01*
X164775023Y-114023500D01*
X164806546Y-113961145D01*
X164825842Y-113944425D01*
X164864295Y-113917500D01*
X165011401Y-113814495D01*
X165178495Y-113647401D01*
X165314035Y-113453830D01*
X165413903Y-113239663D01*
X165475063Y-113011408D01*
X165495659Y-112776000D01*
X165475063Y-112540592D01*
X165413903Y-112312337D01*
X165314035Y-112098171D01*
X165294343Y-112070047D01*
X165178494Y-111904597D01*
X165011402Y-111737506D01*
X165011396Y-111737501D01*
X164825842Y-111607575D01*
X164782217Y-111552998D01*
X164775023Y-111483500D01*
X164806546Y-111421145D01*
X164825842Y-111404425D01*
X164956040Y-111313259D01*
X165011401Y-111274495D01*
X165178495Y-111107401D01*
X165314035Y-110913830D01*
X165413903Y-110699663D01*
X165475063Y-110471408D01*
X165495659Y-110236000D01*
X165475063Y-110000592D01*
X165413903Y-109772337D01*
X165314035Y-109558171D01*
X165178495Y-109364599D01*
X165178494Y-109364597D01*
X165011402Y-109197506D01*
X165011396Y-109197501D01*
X164825842Y-109067575D01*
X164782217Y-109012998D01*
X164775023Y-108943500D01*
X164806546Y-108881145D01*
X164825842Y-108864425D01*
X164848026Y-108848891D01*
X165011401Y-108734495D01*
X165178495Y-108567401D01*
X165314035Y-108373830D01*
X165413903Y-108159663D01*
X165475063Y-107931408D01*
X165495659Y-107696000D01*
X165475063Y-107460592D01*
X165413903Y-107232337D01*
X165314035Y-107018171D01*
X165178495Y-106824599D01*
X165178494Y-106824597D01*
X165011402Y-106657506D01*
X165011396Y-106657501D01*
X164825842Y-106527575D01*
X164782217Y-106472998D01*
X164775023Y-106403500D01*
X164806546Y-106341145D01*
X164825842Y-106324425D01*
X164848026Y-106308891D01*
X165011401Y-106194495D01*
X165178495Y-106027401D01*
X165314035Y-105833830D01*
X165413903Y-105619663D01*
X165475063Y-105391408D01*
X165495659Y-105156000D01*
X165475063Y-104920592D01*
X165413903Y-104692337D01*
X165314035Y-104478171D01*
X165178495Y-104284599D01*
X165178494Y-104284597D01*
X165011402Y-104117506D01*
X165011396Y-104117501D01*
X164825842Y-103987575D01*
X164782217Y-103932998D01*
X164775023Y-103863500D01*
X164806546Y-103801145D01*
X164825842Y-103784425D01*
X164938368Y-103705633D01*
X165011401Y-103654495D01*
X165178495Y-103487401D01*
X165314035Y-103293830D01*
X165413903Y-103079663D01*
X165475063Y-102851408D01*
X165495659Y-102616000D01*
X165475063Y-102380592D01*
X165413903Y-102152337D01*
X165314035Y-101938171D01*
X165178495Y-101744599D01*
X165178494Y-101744597D01*
X165011402Y-101577506D01*
X165011396Y-101577501D01*
X164825842Y-101447575D01*
X164782217Y-101392998D01*
X164775023Y-101323500D01*
X164806546Y-101261145D01*
X164825842Y-101244425D01*
X164848026Y-101228891D01*
X165011401Y-101114495D01*
X165178495Y-100947401D01*
X165314035Y-100753830D01*
X165413903Y-100539663D01*
X165475063Y-100311408D01*
X165495659Y-100076000D01*
X165475063Y-99840592D01*
X165428626Y-99667285D01*
X165413905Y-99612344D01*
X165413904Y-99612343D01*
X165413903Y-99612337D01*
X165314035Y-99398171D01*
X165303994Y-99383830D01*
X165178494Y-99204597D01*
X165011402Y-99037506D01*
X165011396Y-99037501D01*
X164825842Y-98907575D01*
X164782217Y-98852998D01*
X164775023Y-98783500D01*
X164806546Y-98721145D01*
X164825842Y-98704425D01*
X164958235Y-98611722D01*
X165011401Y-98574495D01*
X165178495Y-98407401D01*
X165314035Y-98213830D01*
X165413903Y-97999663D01*
X165475063Y-97771408D01*
X165495659Y-97536000D01*
X165475063Y-97300592D01*
X165413903Y-97072337D01*
X165314035Y-96858171D01*
X165178495Y-96664599D01*
X165178494Y-96664597D01*
X165011402Y-96497506D01*
X165011396Y-96497501D01*
X164825842Y-96367575D01*
X164782217Y-96312998D01*
X164775023Y-96243500D01*
X164806546Y-96181145D01*
X164825842Y-96164425D01*
X164848026Y-96148891D01*
X165011401Y-96034495D01*
X165178495Y-95867401D01*
X165314035Y-95673830D01*
X165413903Y-95459663D01*
X165475063Y-95231408D01*
X165495659Y-94996000D01*
X165475063Y-94760592D01*
X165413903Y-94532337D01*
X165314035Y-94318171D01*
X165178495Y-94124599D01*
X165178494Y-94124597D01*
X165011402Y-93957506D01*
X165011396Y-93957501D01*
X164825842Y-93827575D01*
X164782217Y-93772998D01*
X164775023Y-93703500D01*
X164806546Y-93641145D01*
X164825842Y-93624425D01*
X164939572Y-93544790D01*
X165011401Y-93494495D01*
X165178495Y-93327401D01*
X165314035Y-93133830D01*
X165413903Y-92919663D01*
X165475063Y-92691408D01*
X165495659Y-92456000D01*
X165475063Y-92220592D01*
X165413903Y-91992337D01*
X165314035Y-91778171D01*
X165178495Y-91584599D01*
X165178494Y-91584597D01*
X165011402Y-91417506D01*
X165011396Y-91417501D01*
X164825842Y-91287575D01*
X164782217Y-91232998D01*
X164775023Y-91163500D01*
X164806546Y-91101145D01*
X164825842Y-91084425D01*
X164848026Y-91068891D01*
X165011401Y-90954495D01*
X165178495Y-90787401D01*
X165314035Y-90593830D01*
X165413903Y-90379663D01*
X165475063Y-90151408D01*
X165495659Y-89916000D01*
X165475063Y-89680592D01*
X165413903Y-89452337D01*
X165314035Y-89238171D01*
X165255098Y-89153999D01*
X165178494Y-89044597D01*
X165011402Y-88877506D01*
X165011396Y-88877501D01*
X164825842Y-88747575D01*
X164782217Y-88692998D01*
X164775023Y-88623500D01*
X164806546Y-88561145D01*
X164825842Y-88544425D01*
X164848026Y-88528891D01*
X165011401Y-88414495D01*
X165178495Y-88247401D01*
X165314035Y-88053830D01*
X165413903Y-87839663D01*
X165475063Y-87611408D01*
X165495659Y-87376000D01*
X165475063Y-87140592D01*
X165425822Y-86956819D01*
X165413905Y-86912344D01*
X165413904Y-86912343D01*
X165413903Y-86912337D01*
X165314035Y-86698171D01*
X165307108Y-86688277D01*
X165178494Y-86504597D01*
X165011402Y-86337506D01*
X165011396Y-86337501D01*
X164825842Y-86207575D01*
X164782217Y-86152998D01*
X164775023Y-86083500D01*
X164806546Y-86021145D01*
X164825842Y-86004425D01*
X164848026Y-85988891D01*
X165011401Y-85874495D01*
X165178495Y-85707401D01*
X165314035Y-85513830D01*
X165413903Y-85299663D01*
X165475063Y-85071408D01*
X165495659Y-84836000D01*
X165475063Y-84600592D01*
X165413903Y-84372337D01*
X165314035Y-84158171D01*
X165314034Y-84158169D01*
X165178494Y-83964597D01*
X165011402Y-83797506D01*
X165011396Y-83797501D01*
X164825842Y-83667575D01*
X164782217Y-83612998D01*
X164775023Y-83543500D01*
X164806546Y-83481145D01*
X164825842Y-83464425D01*
X164848026Y-83448891D01*
X165011401Y-83334495D01*
X165178495Y-83167401D01*
X165314035Y-82973830D01*
X165413903Y-82759663D01*
X165475063Y-82531408D01*
X165495659Y-82296000D01*
X165475063Y-82060592D01*
X165413903Y-81832337D01*
X165314035Y-81618171D01*
X165311431Y-81614451D01*
X165178494Y-81424597D01*
X165011402Y-81257506D01*
X165011396Y-81257501D01*
X164825842Y-81127575D01*
X164782217Y-81072998D01*
X164775023Y-81003500D01*
X164806546Y-80941145D01*
X164825842Y-80924425D01*
X164848026Y-80908891D01*
X165011401Y-80794495D01*
X165178495Y-80627401D01*
X165314035Y-80433830D01*
X165413903Y-80219663D01*
X165475063Y-79991408D01*
X165495659Y-79756000D01*
X165475063Y-79520592D01*
X165413903Y-79292337D01*
X165314035Y-79078171D01*
X165311430Y-79074451D01*
X165178496Y-78884600D01*
X165178495Y-78884599D01*
X165056567Y-78762671D01*
X165023084Y-78701351D01*
X165028068Y-78631659D01*
X165069939Y-78575725D01*
X165100915Y-78558810D01*
X165232331Y-78509796D01*
X165347546Y-78423546D01*
X165433796Y-78308331D01*
X165484091Y-78173483D01*
X165490500Y-78113873D01*
X165490499Y-76318128D01*
X165484091Y-76258517D01*
X165433796Y-76123669D01*
X165433795Y-76123668D01*
X165433793Y-76123664D01*
X165347547Y-76008455D01*
X165347544Y-76008452D01*
X165232335Y-75922206D01*
X165232328Y-75922202D01*
X165097482Y-75871908D01*
X165097483Y-75871908D01*
X165037883Y-75865501D01*
X165037881Y-75865500D01*
X165037873Y-75865500D01*
X165037864Y-75865500D01*
X163242129Y-75865500D01*
X163242123Y-75865501D01*
X163182516Y-75871908D01*
X163047671Y-75922202D01*
X163047664Y-75922206D01*
X162932455Y-76008452D01*
X162932452Y-76008455D01*
X162846206Y-76123664D01*
X162846202Y-76123671D01*
X162795908Y-76258517D01*
X162789501Y-76318116D01*
X162789501Y-76318123D01*
X162789500Y-76318135D01*
X162789500Y-78113870D01*
X162789501Y-78113876D01*
X162795908Y-78173483D01*
X162846202Y-78308328D01*
X162846206Y-78308335D01*
X162932452Y-78423544D01*
X162932455Y-78423547D01*
X163047664Y-78509793D01*
X163047671Y-78509797D01*
X163179081Y-78558810D01*
X163235015Y-78600681D01*
X163259432Y-78666145D01*
X163244580Y-78734418D01*
X163223430Y-78762673D01*
X163101503Y-78884600D01*
X162965965Y-79078169D01*
X162965964Y-79078171D01*
X162866098Y-79292335D01*
X162866094Y-79292344D01*
X162804938Y-79520586D01*
X162804936Y-79520596D01*
X162784341Y-79755999D01*
X162784341Y-79756000D01*
X162804936Y-79991403D01*
X162804938Y-79991413D01*
X162866094Y-80219655D01*
X162866096Y-80219659D01*
X162866097Y-80219663D01*
X162965965Y-80433830D01*
X162965967Y-80433834D01*
X163101501Y-80627395D01*
X163101506Y-80627402D01*
X163268597Y-80794493D01*
X163268603Y-80794498D01*
X163454158Y-80924425D01*
X163497783Y-80979002D01*
X163504977Y-81048500D01*
X163473454Y-81110855D01*
X163454158Y-81127575D01*
X163268597Y-81257505D01*
X163101505Y-81424597D01*
X162965965Y-81618169D01*
X162965964Y-81618171D01*
X162866098Y-81832335D01*
X162866094Y-81832344D01*
X162804938Y-82060586D01*
X162804936Y-82060596D01*
X162784341Y-82295999D01*
X162784341Y-82296000D01*
X162804936Y-82531403D01*
X162804938Y-82531413D01*
X162866094Y-82759655D01*
X162866096Y-82759659D01*
X162866097Y-82759663D01*
X162965965Y-82973830D01*
X162965967Y-82973834D01*
X163101501Y-83167395D01*
X163101506Y-83167402D01*
X163268597Y-83334493D01*
X163268603Y-83334498D01*
X163454158Y-83464425D01*
X163497783Y-83519002D01*
X163504977Y-83588500D01*
X163473454Y-83650855D01*
X163454158Y-83667575D01*
X163268597Y-83797505D01*
X163101505Y-83964597D01*
X162965965Y-84158169D01*
X162965964Y-84158171D01*
X162866098Y-84372335D01*
X162866094Y-84372344D01*
X162804938Y-84600586D01*
X162804936Y-84600596D01*
X162784341Y-84835999D01*
X162784341Y-84836000D01*
X162804936Y-85071403D01*
X162804938Y-85071413D01*
X162866094Y-85299655D01*
X162866096Y-85299659D01*
X162866097Y-85299663D01*
X162921978Y-85419500D01*
X162965965Y-85513830D01*
X162965967Y-85513834D01*
X163101501Y-85707395D01*
X163101506Y-85707402D01*
X163268597Y-85874493D01*
X163268603Y-85874498D01*
X163454158Y-86004425D01*
X163497783Y-86059002D01*
X163504977Y-86128500D01*
X163473454Y-86190855D01*
X163454158Y-86207575D01*
X163268597Y-86337505D01*
X163101505Y-86504597D01*
X162965965Y-86698169D01*
X162965964Y-86698171D01*
X162866098Y-86912335D01*
X162866094Y-86912344D01*
X162804938Y-87140586D01*
X162804936Y-87140596D01*
X162784341Y-87375999D01*
X162784341Y-87376000D01*
X162804936Y-87611403D01*
X162804938Y-87611413D01*
X162866094Y-87839655D01*
X162866096Y-87839659D01*
X162866097Y-87839663D01*
X162965965Y-88053830D01*
X162965967Y-88053834D01*
X163101501Y-88247395D01*
X163101506Y-88247402D01*
X163268597Y-88414493D01*
X163268603Y-88414498D01*
X163454158Y-88544425D01*
X163497783Y-88599002D01*
X163504977Y-88668500D01*
X163473454Y-88730855D01*
X163454158Y-88747575D01*
X163268597Y-88877505D01*
X163101505Y-89044597D01*
X162965965Y-89238169D01*
X162965964Y-89238171D01*
X162866098Y-89452335D01*
X162866094Y-89452344D01*
X162804938Y-89680586D01*
X162804936Y-89680596D01*
X162784341Y-89915999D01*
X162784341Y-89916000D01*
X162804936Y-90151403D01*
X162804938Y-90151413D01*
X162866094Y-90379655D01*
X162866096Y-90379659D01*
X162866097Y-90379663D01*
X162965965Y-90593830D01*
X162965967Y-90593834D01*
X163101501Y-90787395D01*
X163101506Y-90787402D01*
X163268597Y-90954493D01*
X163268603Y-90954498D01*
X163454158Y-91084425D01*
X163497783Y-91139002D01*
X163504977Y-91208500D01*
X163473454Y-91270855D01*
X163454158Y-91287575D01*
X163268597Y-91417505D01*
X163101505Y-91584597D01*
X162965965Y-91778169D01*
X162965964Y-91778171D01*
X162866098Y-91992335D01*
X162866094Y-91992344D01*
X162804938Y-92220586D01*
X162804936Y-92220596D01*
X162784341Y-92455999D01*
X162784341Y-92456000D01*
X162804936Y-92691403D01*
X162804938Y-92691413D01*
X162866094Y-92919655D01*
X162866096Y-92919659D01*
X162866097Y-92919663D01*
X162960590Y-93122303D01*
X162965965Y-93133830D01*
X162965967Y-93133834D01*
X163101501Y-93327395D01*
X163101506Y-93327402D01*
X163268597Y-93494493D01*
X163268603Y-93494498D01*
X163454158Y-93624425D01*
X163497783Y-93679002D01*
X163504977Y-93748500D01*
X163473454Y-93810855D01*
X163454158Y-93827575D01*
X163268597Y-93957505D01*
X163101505Y-94124597D01*
X162965965Y-94318169D01*
X162965964Y-94318171D01*
X162866098Y-94532335D01*
X162866094Y-94532344D01*
X162804938Y-94760586D01*
X162804936Y-94760596D01*
X162784341Y-94995999D01*
X162784341Y-94996000D01*
X162804936Y-95231403D01*
X162804938Y-95231413D01*
X162866094Y-95459655D01*
X162866096Y-95459659D01*
X162866097Y-95459663D01*
X162965965Y-95673830D01*
X162965967Y-95673834D01*
X163101501Y-95867395D01*
X163101506Y-95867402D01*
X163268597Y-96034493D01*
X163268603Y-96034498D01*
X163454158Y-96164425D01*
X163497783Y-96219002D01*
X163504977Y-96288500D01*
X163473454Y-96350855D01*
X163454158Y-96367575D01*
X163268597Y-96497505D01*
X163101505Y-96664597D01*
X162965965Y-96858169D01*
X162965964Y-96858171D01*
X162866098Y-97072335D01*
X162866094Y-97072344D01*
X162804938Y-97300586D01*
X162804936Y-97300596D01*
X162784341Y-97535999D01*
X162784341Y-97536000D01*
X162804936Y-97771403D01*
X162804938Y-97771413D01*
X162866094Y-97999655D01*
X162866096Y-97999659D01*
X162866097Y-97999663D01*
X162905279Y-98083689D01*
X162965965Y-98213830D01*
X162965967Y-98213834D01*
X163101501Y-98407395D01*
X163101506Y-98407402D01*
X163268597Y-98574493D01*
X163268603Y-98574498D01*
X163454158Y-98704425D01*
X163497783Y-98759002D01*
X163504977Y-98828500D01*
X163473454Y-98890855D01*
X163454158Y-98907575D01*
X163268597Y-99037505D01*
X163101505Y-99204597D01*
X162965965Y-99398169D01*
X162965964Y-99398171D01*
X162866098Y-99612335D01*
X162866094Y-99612344D01*
X162804938Y-99840586D01*
X162804936Y-99840596D01*
X162784341Y-100075999D01*
X162784341Y-100076000D01*
X162804936Y-100311403D01*
X162804938Y-100311413D01*
X162866094Y-100539655D01*
X162866096Y-100539659D01*
X162866097Y-100539663D01*
X162965502Y-100752837D01*
X162965965Y-100753830D01*
X162965967Y-100753834D01*
X163101501Y-100947395D01*
X163101506Y-100947402D01*
X163268597Y-101114493D01*
X163268603Y-101114498D01*
X163454158Y-101244425D01*
X163497783Y-101299002D01*
X163504977Y-101368500D01*
X163473454Y-101430855D01*
X163454158Y-101447575D01*
X163268597Y-101577505D01*
X163101505Y-101744597D01*
X162965965Y-101938169D01*
X162965964Y-101938171D01*
X162866098Y-102152335D01*
X162866094Y-102152344D01*
X162804938Y-102380586D01*
X162804936Y-102380596D01*
X162784341Y-102615999D01*
X162784341Y-102616000D01*
X162804936Y-102851403D01*
X162804938Y-102851413D01*
X162866094Y-103079655D01*
X162866096Y-103079659D01*
X162866097Y-103079663D01*
X162913135Y-103180535D01*
X162965965Y-103293830D01*
X162965967Y-103293834D01*
X163101501Y-103487395D01*
X163101506Y-103487402D01*
X163268597Y-103654493D01*
X163268603Y-103654498D01*
X163454158Y-103784425D01*
X163497783Y-103839002D01*
X163504977Y-103908500D01*
X163473454Y-103970855D01*
X163454158Y-103987575D01*
X163268597Y-104117505D01*
X163101505Y-104284597D01*
X162965965Y-104478169D01*
X162965964Y-104478171D01*
X162866098Y-104692335D01*
X162866094Y-104692344D01*
X162804938Y-104920586D01*
X162804936Y-104920596D01*
X162784341Y-105155999D01*
X162784341Y-105156000D01*
X162804936Y-105391403D01*
X162804938Y-105391413D01*
X162866094Y-105619655D01*
X162866096Y-105619659D01*
X162866097Y-105619663D01*
X162965965Y-105833830D01*
X162965967Y-105833834D01*
X163101501Y-106027395D01*
X163101506Y-106027402D01*
X163268597Y-106194493D01*
X163268603Y-106194498D01*
X163454158Y-106324425D01*
X163497783Y-106379002D01*
X163504977Y-106448500D01*
X163473454Y-106510855D01*
X163454158Y-106527575D01*
X163268597Y-106657505D01*
X163101505Y-106824597D01*
X162965965Y-107018169D01*
X162965964Y-107018171D01*
X162866098Y-107232335D01*
X162866094Y-107232344D01*
X162804938Y-107460586D01*
X162804936Y-107460596D01*
X162784341Y-107695999D01*
X162784341Y-107696000D01*
X162804936Y-107931403D01*
X162804938Y-107931413D01*
X162866094Y-108159655D01*
X162866096Y-108159659D01*
X162866097Y-108159663D01*
X162965965Y-108373830D01*
X162965967Y-108373834D01*
X163101501Y-108567395D01*
X163101506Y-108567402D01*
X163268597Y-108734493D01*
X163268603Y-108734498D01*
X163454158Y-108864425D01*
X163497783Y-108919002D01*
X163504977Y-108988500D01*
X163473454Y-109050855D01*
X163454158Y-109067575D01*
X163268597Y-109197505D01*
X163101505Y-109364597D01*
X162965965Y-109558169D01*
X162965964Y-109558171D01*
X162866098Y-109772335D01*
X162866094Y-109772344D01*
X162804938Y-110000586D01*
X162804936Y-110000596D01*
X162784341Y-110235999D01*
X162784341Y-110236000D01*
X162804936Y-110471403D01*
X162804938Y-110471413D01*
X162866094Y-110699655D01*
X162866096Y-110699659D01*
X162866097Y-110699663D01*
X162958184Y-110897144D01*
X162965965Y-110913830D01*
X162965967Y-110913834D01*
X163101501Y-111107395D01*
X163101506Y-111107402D01*
X163268597Y-111274493D01*
X163268603Y-111274498D01*
X163454158Y-111404425D01*
X163497783Y-111459002D01*
X163504977Y-111528500D01*
X163473454Y-111590855D01*
X163454158Y-111607575D01*
X163268597Y-111737505D01*
X163101505Y-111904597D01*
X162965965Y-112098169D01*
X162965964Y-112098171D01*
X162866098Y-112312335D01*
X162866094Y-112312344D01*
X162804938Y-112540586D01*
X162804936Y-112540596D01*
X162784341Y-112775999D01*
X162784341Y-112776000D01*
X162804936Y-113011403D01*
X162804938Y-113011413D01*
X162866094Y-113239655D01*
X162866096Y-113239659D01*
X162866097Y-113239663D01*
X162934002Y-113385285D01*
X162965965Y-113453830D01*
X162965967Y-113453834D01*
X163101501Y-113647395D01*
X163101506Y-113647402D01*
X163268597Y-113814493D01*
X163268603Y-113814498D01*
X163454158Y-113944425D01*
X163497783Y-113999002D01*
X163504977Y-114068500D01*
X163473454Y-114130855D01*
X163454158Y-114147575D01*
X163268597Y-114277505D01*
X163101505Y-114444597D01*
X162965965Y-114638169D01*
X162965964Y-114638171D01*
X162866098Y-114852335D01*
X162866094Y-114852344D01*
X162804938Y-115080586D01*
X162804936Y-115080596D01*
X162784341Y-115315999D01*
X162784341Y-115316000D01*
X162804936Y-115551403D01*
X162804938Y-115551413D01*
X162866094Y-115779655D01*
X162866096Y-115779659D01*
X162866097Y-115779663D01*
X162965965Y-115993830D01*
X162965967Y-115993834D01*
X163101501Y-116187395D01*
X163101506Y-116187402D01*
X163268597Y-116354493D01*
X163268603Y-116354498D01*
X163454158Y-116484425D01*
X163497783Y-116539002D01*
X163504977Y-116608500D01*
X163473454Y-116670855D01*
X163454158Y-116687575D01*
X163268597Y-116817505D01*
X163101505Y-116984597D01*
X162965965Y-117178169D01*
X162965964Y-117178171D01*
X162866098Y-117392335D01*
X162866094Y-117392344D01*
X162804938Y-117620586D01*
X162804936Y-117620596D01*
X162784341Y-117855999D01*
X162784341Y-117856000D01*
X162309112Y-117856000D01*
X162302674Y-117794744D01*
X162244179Y-117614716D01*
X162149533Y-117450784D01*
X162022871Y-117310112D01*
X162022870Y-117310111D01*
X161869734Y-117198851D01*
X161869729Y-117198848D01*
X161696807Y-117121857D01*
X161696802Y-117121855D01*
X161551001Y-117090865D01*
X161511646Y-117082500D01*
X161322354Y-117082500D01*
X161289897Y-117089398D01*
X161137197Y-117121855D01*
X161137192Y-117121857D01*
X160964270Y-117198848D01*
X160964265Y-117198851D01*
X160811129Y-117310111D01*
X160684467Y-117450783D01*
X160598499Y-117599683D01*
X160595253Y-117604725D01*
X160593644Y-117606977D01*
X160593639Y-117606984D01*
X160172695Y-118419839D01*
X160150265Y-118450498D01*
X147862584Y-130738181D01*
X147801261Y-130771666D01*
X147774903Y-130774500D01*
X145956810Y-130774500D01*
X145889771Y-130754815D01*
X145844016Y-130702011D01*
X145834072Y-130632853D01*
X145859199Y-130574027D01*
X145863878Y-130568056D01*
X145868037Y-130558813D01*
X145879061Y-130539268D01*
X145884818Y-130530930D01*
X145906810Y-130472939D01*
X145908232Y-130469503D01*
X145933695Y-130412931D01*
X145935522Y-130402959D01*
X145941546Y-130381347D01*
X145945140Y-130371872D01*
X145948130Y-130347244D01*
X145975751Y-130283067D01*
X146033684Y-130244010D01*
X146103537Y-130242474D01*
X146123625Y-130249806D01*
X146153504Y-130263739D01*
X146373308Y-130322635D01*
X146535230Y-130336801D01*
X146599998Y-130342468D01*
X146600000Y-130342468D01*
X146600002Y-130342468D01*
X146656673Y-130337509D01*
X146826692Y-130322635D01*
X147046496Y-130263739D01*
X147252734Y-130167568D01*
X147439139Y-130037047D01*
X147600047Y-129876139D01*
X147730568Y-129689734D01*
X147826739Y-129483496D01*
X147885635Y-129263692D01*
X147900500Y-129093784D01*
X147900500Y-128580216D01*
X147885635Y-128410308D01*
X147826739Y-128190504D01*
X147730568Y-127984266D01*
X147600047Y-127797861D01*
X147600045Y-127797858D01*
X147439141Y-127636954D01*
X147252734Y-127506432D01*
X147252732Y-127506431D01*
X147046497Y-127410261D01*
X147046488Y-127410258D01*
X146826697Y-127351366D01*
X146826693Y-127351365D01*
X146826692Y-127351365D01*
X146826691Y-127351364D01*
X146826686Y-127351364D01*
X146600002Y-127331532D01*
X146599998Y-127331532D01*
X146373313Y-127351364D01*
X146373302Y-127351366D01*
X146153511Y-127410258D01*
X146153501Y-127410262D01*
X146136903Y-127418002D01*
X146067825Y-127428493D01*
X146004042Y-127399972D01*
X145965803Y-127341495D01*
X145960500Y-127305619D01*
X145960500Y-121412000D01*
X148504341Y-121412000D01*
X148524936Y-121647403D01*
X148524938Y-121647413D01*
X148586094Y-121875655D01*
X148586096Y-121875659D01*
X148586097Y-121875663D01*
X148685965Y-122089830D01*
X148685967Y-122089834D01*
X148794281Y-122244521D01*
X148821501Y-122283396D01*
X148821506Y-122283402D01*
X148943430Y-122405326D01*
X148976915Y-122466649D01*
X148971931Y-122536341D01*
X148930059Y-122592274D01*
X148899083Y-122609189D01*
X148767669Y-122658203D01*
X148767664Y-122658206D01*
X148652455Y-122744452D01*
X148652452Y-122744455D01*
X148566206Y-122859664D01*
X148566202Y-122859671D01*
X148515908Y-122994517D01*
X148509501Y-123054116D01*
X148509501Y-123054123D01*
X148509500Y-123054135D01*
X148509500Y-124849870D01*
X148509501Y-124849876D01*
X148515908Y-124909483D01*
X148566202Y-125044328D01*
X148566206Y-125044335D01*
X148652452Y-125159544D01*
X148652455Y-125159547D01*
X148767664Y-125245793D01*
X148767671Y-125245797D01*
X148902517Y-125296091D01*
X148902516Y-125296091D01*
X148909444Y-125296835D01*
X148962127Y-125302500D01*
X150757872Y-125302499D01*
X150817483Y-125296091D01*
X150952331Y-125245796D01*
X151067546Y-125159546D01*
X151153796Y-125044331D01*
X151204091Y-124909483D01*
X151210500Y-124849873D01*
X151210499Y-123054128D01*
X151204091Y-122994517D01*
X151153796Y-122859669D01*
X151153795Y-122859668D01*
X151153793Y-122859664D01*
X151067547Y-122744455D01*
X151067544Y-122744452D01*
X150952335Y-122658206D01*
X150952328Y-122658202D01*
X150820917Y-122609189D01*
X150764983Y-122567318D01*
X150740566Y-122501853D01*
X150755418Y-122433580D01*
X150776563Y-122405332D01*
X150898495Y-122283401D01*
X151034035Y-122089830D01*
X151133903Y-121875663D01*
X151195063Y-121647408D01*
X151215659Y-121412000D01*
X151195063Y-121176592D01*
X151133903Y-120948337D01*
X151034035Y-120734171D01*
X151028873Y-120726798D01*
X150898494Y-120540597D01*
X150731402Y-120373506D01*
X150731395Y-120373501D01*
X150537834Y-120237967D01*
X150537830Y-120237965D01*
X150537828Y-120237964D01*
X150323663Y-120138097D01*
X150323659Y-120138096D01*
X150323655Y-120138094D01*
X150095413Y-120076938D01*
X150095403Y-120076936D01*
X149860001Y-120056341D01*
X149859999Y-120056341D01*
X149624596Y-120076936D01*
X149624586Y-120076938D01*
X149396344Y-120138094D01*
X149396335Y-120138098D01*
X149182171Y-120237964D01*
X149182169Y-120237965D01*
X148988597Y-120373505D01*
X148821505Y-120540597D01*
X148685965Y-120734169D01*
X148685964Y-120734171D01*
X148586098Y-120948335D01*
X148586094Y-120948344D01*
X148524938Y-121176586D01*
X148524936Y-121176596D01*
X148504341Y-121411999D01*
X148504341Y-121412000D01*
X145960500Y-121412000D01*
X145960500Y-103413507D01*
X145960613Y-103409762D01*
X145964357Y-103347866D01*
X145953177Y-103286858D01*
X145952615Y-103283161D01*
X145945140Y-103221601D01*
X145945139Y-103221597D01*
X145941546Y-103212123D01*
X145935519Y-103190501D01*
X145933694Y-103180542D01*
X145933694Y-103180540D01*
X145908241Y-103123986D01*
X145906807Y-103120524D01*
X145884818Y-103062543D01*
X145884818Y-103062542D01*
X145879058Y-103054198D01*
X145868035Y-103034652D01*
X145863878Y-103025415D01*
X145825617Y-102976579D01*
X145823417Y-102973589D01*
X145806786Y-102949493D01*
X145788185Y-102922545D01*
X145788183Y-102922543D01*
X145741750Y-102881407D01*
X145739056Y-102878871D01*
X140365185Y-97505000D01*
X141634318Y-97505000D01*
X141639500Y-97544360D01*
X141654955Y-97661760D01*
X141654956Y-97661762D01*
X141715464Y-97807841D01*
X141811718Y-97933282D01*
X141839995Y-97954980D01*
X141846085Y-97960320D01*
X142192876Y-98307111D01*
X142382159Y-98496394D01*
X142405778Y-98529410D01*
X142806385Y-99345061D01*
X142807819Y-99348281D01*
X142811496Y-99354650D01*
X142824635Y-99379070D01*
X142827707Y-99383723D01*
X142827543Y-99383830D01*
X142832759Y-99391478D01*
X142902467Y-99512216D01*
X142992615Y-99612335D01*
X143029129Y-99652888D01*
X143182265Y-99764148D01*
X143182270Y-99764151D01*
X143355192Y-99841142D01*
X143355197Y-99841144D01*
X143540354Y-99880500D01*
X143540355Y-99880500D01*
X143729644Y-99880500D01*
X143729646Y-99880500D01*
X143914803Y-99841144D01*
X144087730Y-99764151D01*
X144240871Y-99652888D01*
X144367533Y-99512216D01*
X144462179Y-99348284D01*
X144520674Y-99168256D01*
X144540460Y-98980000D01*
X144520674Y-98791744D01*
X144462179Y-98611716D01*
X144367533Y-98447784D01*
X144240871Y-98307112D01*
X144240870Y-98307111D01*
X144087731Y-98195849D01*
X144064067Y-98185313D01*
X144047996Y-98176689D01*
X143271920Y-97683487D01*
X143250748Y-97666513D01*
X142876819Y-97292584D01*
X142843334Y-97231261D01*
X142840500Y-97204903D01*
X142840500Y-89454097D01*
X142860185Y-89387058D01*
X142876819Y-89366416D01*
X145286416Y-86956819D01*
X145347739Y-86923334D01*
X145374097Y-86920500D01*
X145674964Y-86920500D01*
X145708261Y-86925053D01*
X146597523Y-87172955D01*
X146614646Y-87179117D01*
X146619197Y-87181144D01*
X146619198Y-87181144D01*
X146619200Y-87181145D01*
X146619199Y-87181145D01*
X146697331Y-87197751D01*
X146804354Y-87220500D01*
X146804355Y-87220500D01*
X146993644Y-87220500D01*
X146993646Y-87220500D01*
X147178803Y-87181144D01*
X147351730Y-87104151D01*
X147504871Y-86992888D01*
X147631533Y-86852216D01*
X147726179Y-86688284D01*
X147784674Y-86508256D01*
X147804460Y-86320000D01*
X147784674Y-86131744D01*
X147726179Y-85951716D01*
X147631533Y-85787784D01*
X147504871Y-85647112D01*
X147504870Y-85647111D01*
X147351734Y-85535851D01*
X147351729Y-85535848D01*
X147178807Y-85458857D01*
X147178802Y-85458855D01*
X147033001Y-85427865D01*
X146993646Y-85419500D01*
X146804354Y-85419500D01*
X146771897Y-85426398D01*
X146619197Y-85458855D01*
X146619189Y-85458858D01*
X146614639Y-85460884D01*
X146597512Y-85467046D01*
X145708258Y-85714946D01*
X145674960Y-85719500D01*
X145117428Y-85719500D01*
X145109329Y-85718969D01*
X145074000Y-85714318D01*
X145034639Y-85719500D01*
X144917239Y-85734955D01*
X144917237Y-85734956D01*
X144771157Y-85795464D01*
X144645719Y-85891716D01*
X144624019Y-85919994D01*
X144618668Y-85926096D01*
X141846096Y-88698668D01*
X141839993Y-88704020D01*
X141811719Y-88725716D01*
X141787550Y-88757215D01*
X141715461Y-88851162D01*
X141715461Y-88851163D01*
X141654957Y-88997234D01*
X141654955Y-88997239D01*
X141634318Y-89153998D01*
X141634318Y-89153999D01*
X141638969Y-89189326D01*
X141639500Y-89197428D01*
X141639500Y-97461571D01*
X141638969Y-97469669D01*
X141637952Y-97477394D01*
X141634318Y-97504999D01*
X141634318Y-97505000D01*
X140365185Y-97505000D01*
X137515819Y-94655634D01*
X137482334Y-94594311D01*
X137479500Y-94567953D01*
X137479500Y-93252676D01*
X137479613Y-93248931D01*
X137483358Y-93187023D01*
X137472175Y-93126000D01*
X137471613Y-93122303D01*
X137469618Y-93105880D01*
X137464140Y-93060757D01*
X137460548Y-93051285D01*
X137454521Y-93029663D01*
X137452695Y-93019700D01*
X137452695Y-93019698D01*
X137427223Y-92963103D01*
X137425812Y-92959694D01*
X137403818Y-92901699D01*
X137398063Y-92893362D01*
X137387036Y-92873811D01*
X137382879Y-92864575D01*
X137382878Y-92864572D01*
X137365287Y-92842119D01*
X137344630Y-92815751D01*
X137342410Y-92812735D01*
X137307182Y-92761699D01*
X137302148Y-92757239D01*
X137260750Y-92720564D01*
X137258056Y-92718028D01*
X123816969Y-79276941D01*
X123814435Y-79274250D01*
X123773300Y-79227817D01*
X123773299Y-79227816D01*
X123773295Y-79227812D01*
X123722267Y-79192591D01*
X123719258Y-79190377D01*
X123670431Y-79152124D01*
X123670426Y-79152120D01*
X123661184Y-79147961D01*
X123641637Y-79136936D01*
X123633302Y-79131183D01*
X123633303Y-79131183D01*
X123633301Y-79131182D01*
X123575312Y-79109189D01*
X123571861Y-79107759D01*
X123515301Y-79082304D01*
X123505317Y-79080474D01*
X123483714Y-79074451D01*
X123474245Y-79070860D01*
X123474241Y-79070859D01*
X123412684Y-79063384D01*
X123408983Y-79062821D01*
X123347979Y-79051642D01*
X123347974Y-79051642D01*
X123286068Y-79055387D01*
X123282323Y-79055500D01*
X122899702Y-79055500D01*
X122855263Y-79047264D01*
X122032645Y-78731483D01*
X121977113Y-78689080D01*
X121953321Y-78623386D01*
X121968823Y-78555258D01*
X122006992Y-78517464D01*
X122005231Y-78515112D01*
X122085136Y-78455293D01*
X122127546Y-78423546D01*
X122213796Y-78308331D01*
X122264091Y-78173483D01*
X122270500Y-78113873D01*
X122270499Y-76318128D01*
X122264091Y-76258517D01*
X122213796Y-76123669D01*
X122213795Y-76123668D01*
X122213793Y-76123664D01*
X122127547Y-76008455D01*
X122127544Y-76008452D01*
X122012335Y-75922206D01*
X122012328Y-75922202D01*
X121877482Y-75871908D01*
X121877483Y-75871908D01*
X121817883Y-75865501D01*
X121817881Y-75865500D01*
X121817873Y-75865500D01*
X121817864Y-75865500D01*
X120022129Y-75865500D01*
X120022123Y-75865501D01*
X119962516Y-75871908D01*
X119827671Y-75922202D01*
X119827664Y-75922206D01*
X119712455Y-76008452D01*
X119712452Y-76008455D01*
X119626206Y-76123664D01*
X119626202Y-76123671D01*
X119575908Y-76258517D01*
X119569501Y-76318116D01*
X119569501Y-76318123D01*
X119569500Y-76318135D01*
X119569500Y-78113870D01*
X119569501Y-78113876D01*
X119575908Y-78173483D01*
X119626202Y-78308328D01*
X119626206Y-78308335D01*
X119712452Y-78423544D01*
X119712455Y-78423547D01*
X119827664Y-78509793D01*
X119827671Y-78509797D01*
X119959081Y-78558810D01*
X120015015Y-78600681D01*
X120039432Y-78666145D01*
X120024580Y-78734418D01*
X120003430Y-78762673D01*
X119881503Y-78884600D01*
X119745965Y-79078169D01*
X119745964Y-79078171D01*
X119646098Y-79292335D01*
X119646094Y-79292344D01*
X119584938Y-79520586D01*
X119584936Y-79520596D01*
X119564341Y-79755999D01*
X119564341Y-79756000D01*
X119584936Y-79991403D01*
X119584938Y-79991413D01*
X119646094Y-80219655D01*
X119646096Y-80219659D01*
X119646097Y-80219663D01*
X119745965Y-80433830D01*
X119745967Y-80433834D01*
X119881501Y-80627395D01*
X119881506Y-80627402D01*
X120048597Y-80794493D01*
X120048603Y-80794498D01*
X120234158Y-80924425D01*
X120277783Y-80979002D01*
X120284977Y-81048500D01*
X120253454Y-81110855D01*
X120234158Y-81127575D01*
X120048597Y-81257505D01*
X119881505Y-81424597D01*
X119745965Y-81618169D01*
X119745964Y-81618171D01*
X119646098Y-81832335D01*
X119646094Y-81832344D01*
X119584938Y-82060586D01*
X119584936Y-82060596D01*
X119564341Y-82295999D01*
X119564341Y-82296000D01*
X119584936Y-82531403D01*
X119584938Y-82531413D01*
X119646094Y-82759655D01*
X119646096Y-82759659D01*
X119646097Y-82759663D01*
X119745965Y-82973830D01*
X119745967Y-82973834D01*
X119881501Y-83167395D01*
X119881506Y-83167402D01*
X120048597Y-83334493D01*
X120048603Y-83334498D01*
X120234158Y-83464425D01*
X120277783Y-83519002D01*
X120284977Y-83588500D01*
X120253454Y-83650855D01*
X120234158Y-83667575D01*
X120048597Y-83797505D01*
X119881505Y-83964597D01*
X119745965Y-84158169D01*
X119745964Y-84158171D01*
X119646098Y-84372335D01*
X119646094Y-84372344D01*
X119584938Y-84600586D01*
X119584936Y-84600596D01*
X119564341Y-84835999D01*
X119564341Y-84836000D01*
X119584936Y-85071403D01*
X119584938Y-85071413D01*
X119646094Y-85299655D01*
X119646096Y-85299659D01*
X119646097Y-85299663D01*
X119701978Y-85419500D01*
X119745965Y-85513830D01*
X119745967Y-85513834D01*
X119881501Y-85707395D01*
X119881506Y-85707402D01*
X120048597Y-85874493D01*
X120048603Y-85874498D01*
X120234158Y-86004425D01*
X120277783Y-86059002D01*
X120284977Y-86128500D01*
X120253454Y-86190855D01*
X120234158Y-86207575D01*
X120048597Y-86337505D01*
X119881505Y-86504597D01*
X119745965Y-86698169D01*
X119745964Y-86698171D01*
X119646098Y-86912335D01*
X119646094Y-86912344D01*
X119584938Y-87140586D01*
X119584936Y-87140596D01*
X119564341Y-87375999D01*
X119564341Y-87376000D01*
X119584936Y-87611403D01*
X119584938Y-87611413D01*
X119646094Y-87839655D01*
X119646096Y-87839659D01*
X119646097Y-87839663D01*
X119745965Y-88053830D01*
X119745967Y-88053834D01*
X119881501Y-88247395D01*
X119881506Y-88247402D01*
X120048597Y-88414493D01*
X120048603Y-88414498D01*
X120234158Y-88544425D01*
X120277783Y-88599002D01*
X120284977Y-88668500D01*
X120253454Y-88730855D01*
X120234158Y-88747575D01*
X120048597Y-88877505D01*
X119881505Y-89044597D01*
X119745965Y-89238169D01*
X119745964Y-89238171D01*
X119646098Y-89452335D01*
X119646094Y-89452344D01*
X119584938Y-89680586D01*
X119584936Y-89680596D01*
X119564341Y-89915999D01*
X119564341Y-89916000D01*
X119584936Y-90151403D01*
X119584938Y-90151413D01*
X119646094Y-90379655D01*
X119646096Y-90379659D01*
X119646097Y-90379663D01*
X119745965Y-90593830D01*
X119745967Y-90593834D01*
X119881501Y-90787395D01*
X119881506Y-90787402D01*
X120048597Y-90954493D01*
X120048603Y-90954498D01*
X120234158Y-91084425D01*
X120277783Y-91139002D01*
X120284977Y-91208500D01*
X120253454Y-91270855D01*
X120234158Y-91287575D01*
X120048597Y-91417505D01*
X119881505Y-91584597D01*
X119745965Y-91778169D01*
X119745964Y-91778171D01*
X119646098Y-91992335D01*
X119646094Y-91992344D01*
X119584938Y-92220586D01*
X119584936Y-92220596D01*
X119564341Y-92455999D01*
X119564341Y-92456000D01*
X119584936Y-92691403D01*
X119584938Y-92691413D01*
X119646094Y-92919655D01*
X119646096Y-92919659D01*
X119646097Y-92919663D01*
X119740590Y-93122303D01*
X119745965Y-93133830D01*
X119745967Y-93133834D01*
X119881501Y-93327395D01*
X119881506Y-93327402D01*
X120048597Y-93494493D01*
X120048603Y-93494498D01*
X120234158Y-93624425D01*
X120277783Y-93679002D01*
X120284977Y-93748500D01*
X120253454Y-93810855D01*
X120234158Y-93827575D01*
X120048597Y-93957505D01*
X119881505Y-94124597D01*
X119745965Y-94318169D01*
X119745964Y-94318171D01*
X119646098Y-94532335D01*
X119646094Y-94532344D01*
X119584938Y-94760586D01*
X119584936Y-94760596D01*
X119564341Y-94995999D01*
X119564341Y-94996000D01*
X119584936Y-95231403D01*
X119584938Y-95231413D01*
X119646094Y-95459655D01*
X119646096Y-95459659D01*
X119646097Y-95459663D01*
X119745965Y-95673830D01*
X119745967Y-95673834D01*
X119881501Y-95867395D01*
X119881506Y-95867402D01*
X120048597Y-96034493D01*
X120048603Y-96034498D01*
X120234158Y-96164425D01*
X120277783Y-96219002D01*
X120284977Y-96288500D01*
X120253454Y-96350855D01*
X120234158Y-96367575D01*
X120048597Y-96497505D01*
X119881505Y-96664597D01*
X119745965Y-96858169D01*
X119745964Y-96858171D01*
X119646098Y-97072335D01*
X119646094Y-97072344D01*
X119584938Y-97300586D01*
X119584936Y-97300596D01*
X119564341Y-97535999D01*
X119564341Y-97536000D01*
X119584936Y-97771403D01*
X119584938Y-97771413D01*
X119646094Y-97999655D01*
X119646096Y-97999659D01*
X119646097Y-97999663D01*
X119685279Y-98083689D01*
X119745965Y-98213830D01*
X119745967Y-98213834D01*
X119881501Y-98407395D01*
X119881506Y-98407402D01*
X120048597Y-98574493D01*
X120048603Y-98574498D01*
X120234158Y-98704425D01*
X120277783Y-98759002D01*
X120284977Y-98828500D01*
X120253454Y-98890855D01*
X120234158Y-98907575D01*
X120048597Y-99037505D01*
X119881505Y-99204597D01*
X119745965Y-99398169D01*
X119745964Y-99398171D01*
X119646098Y-99612335D01*
X119646094Y-99612344D01*
X119584938Y-99840586D01*
X119584936Y-99840596D01*
X119564341Y-100075999D01*
X119564341Y-100076000D01*
X119584936Y-100311403D01*
X119584938Y-100311413D01*
X119646094Y-100539655D01*
X119646096Y-100539659D01*
X119646097Y-100539663D01*
X119745502Y-100752837D01*
X119745965Y-100753830D01*
X119745967Y-100753834D01*
X119881501Y-100947395D01*
X119881506Y-100947402D01*
X120048597Y-101114493D01*
X120048603Y-101114498D01*
X120234158Y-101244425D01*
X120277783Y-101299002D01*
X120284977Y-101368500D01*
X120253454Y-101430855D01*
X120234158Y-101447575D01*
X120048597Y-101577505D01*
X119881505Y-101744597D01*
X119745965Y-101938169D01*
X119745964Y-101938171D01*
X119646098Y-102152335D01*
X119646094Y-102152344D01*
X119584938Y-102380586D01*
X119584936Y-102380596D01*
X119564341Y-102615999D01*
X119564341Y-102616000D01*
X119584936Y-102851403D01*
X119584938Y-102851413D01*
X119646094Y-103079655D01*
X119646096Y-103079659D01*
X119646097Y-103079663D01*
X119693135Y-103180535D01*
X119745965Y-103293830D01*
X119745967Y-103293834D01*
X119881501Y-103487395D01*
X119881506Y-103487402D01*
X120048597Y-103654493D01*
X120048603Y-103654498D01*
X120234158Y-103784425D01*
X120277783Y-103839002D01*
X120284977Y-103908500D01*
X120253454Y-103970855D01*
X120234158Y-103987575D01*
X120048597Y-104117505D01*
X119881505Y-104284597D01*
X119745965Y-104478169D01*
X119745964Y-104478171D01*
X119646098Y-104692335D01*
X119646094Y-104692344D01*
X119584938Y-104920586D01*
X119584936Y-104920596D01*
X119564341Y-105155999D01*
X119564341Y-105156000D01*
X119584936Y-105391403D01*
X119584938Y-105391413D01*
X119646094Y-105619655D01*
X119646096Y-105619659D01*
X119646097Y-105619663D01*
X119745965Y-105833830D01*
X119745967Y-105833834D01*
X119881501Y-106027395D01*
X119881506Y-106027402D01*
X120048597Y-106194493D01*
X120048603Y-106194498D01*
X120234158Y-106324425D01*
X120277783Y-106379002D01*
X120284977Y-106448500D01*
X120253454Y-106510855D01*
X120234158Y-106527575D01*
X120048597Y-106657505D01*
X119881505Y-106824597D01*
X119745965Y-107018169D01*
X119745964Y-107018171D01*
X119646098Y-107232335D01*
X119646094Y-107232344D01*
X119584938Y-107460586D01*
X119584936Y-107460596D01*
X119564341Y-107695999D01*
X119564341Y-107696000D01*
X119584936Y-107931403D01*
X119584938Y-107931413D01*
X119646094Y-108159655D01*
X119646096Y-108159659D01*
X119646097Y-108159663D01*
X119745965Y-108373830D01*
X119745967Y-108373834D01*
X119881501Y-108567395D01*
X119881506Y-108567402D01*
X120048597Y-108734493D01*
X120048603Y-108734498D01*
X120234158Y-108864425D01*
X120277783Y-108919002D01*
X120284977Y-108988500D01*
X120253454Y-109050855D01*
X120234158Y-109067575D01*
X120048597Y-109197505D01*
X119881505Y-109364597D01*
X119745965Y-109558169D01*
X119745964Y-109558171D01*
X119646098Y-109772335D01*
X119646094Y-109772344D01*
X119584938Y-110000586D01*
X119584936Y-110000596D01*
X119564341Y-110235999D01*
X119564341Y-110236000D01*
X119584936Y-110471403D01*
X119584938Y-110471413D01*
X119646094Y-110699655D01*
X119646096Y-110699659D01*
X119646097Y-110699663D01*
X119738184Y-110897144D01*
X119745965Y-110913830D01*
X119745967Y-110913834D01*
X119881501Y-111107395D01*
X119881506Y-111107402D01*
X120048597Y-111274493D01*
X120048603Y-111274498D01*
X120234158Y-111404425D01*
X120277783Y-111459002D01*
X120284977Y-111528500D01*
X120253454Y-111590855D01*
X120234158Y-111607575D01*
X120048597Y-111737505D01*
X119881505Y-111904597D01*
X119745965Y-112098169D01*
X119745964Y-112098171D01*
X119646098Y-112312335D01*
X119646094Y-112312344D01*
X119584938Y-112540586D01*
X119584936Y-112540596D01*
X119564341Y-112775999D01*
X119564341Y-112776000D01*
X119584936Y-113011403D01*
X119584938Y-113011413D01*
X119646094Y-113239655D01*
X119646096Y-113239659D01*
X119646097Y-113239663D01*
X119714002Y-113385285D01*
X119745965Y-113453830D01*
X119745967Y-113453834D01*
X119881501Y-113647395D01*
X119881506Y-113647402D01*
X120048597Y-113814493D01*
X120048603Y-113814498D01*
X120234158Y-113944425D01*
X120277783Y-113999002D01*
X120284977Y-114068500D01*
X120253454Y-114130855D01*
X120234158Y-114147575D01*
X120048597Y-114277505D01*
X119881505Y-114444597D01*
X119745965Y-114638169D01*
X119745964Y-114638171D01*
X119646098Y-114852335D01*
X119646094Y-114852344D01*
X119584938Y-115080586D01*
X119584936Y-115080596D01*
X119564341Y-115315999D01*
X119564341Y-115316000D01*
X119584936Y-115551403D01*
X119584938Y-115551413D01*
X119646094Y-115779655D01*
X119646096Y-115779659D01*
X119646097Y-115779663D01*
X119745965Y-115993830D01*
X119745967Y-115993834D01*
X119881501Y-116187395D01*
X119881506Y-116187402D01*
X120048597Y-116354493D01*
X120048603Y-116354498D01*
X120234158Y-116484425D01*
X120277783Y-116539002D01*
X120284977Y-116608500D01*
X120253454Y-116670855D01*
X120234158Y-116687575D01*
X120048597Y-116817505D01*
X119881505Y-116984597D01*
X119745965Y-117178169D01*
X119745964Y-117178171D01*
X119646098Y-117392335D01*
X119646094Y-117392344D01*
X119584938Y-117620586D01*
X119584936Y-117620596D01*
X119564341Y-117855999D01*
X119564341Y-117856000D01*
X119584936Y-118091403D01*
X119584938Y-118091413D01*
X119646094Y-118319655D01*
X119646096Y-118319659D01*
X119646097Y-118319663D01*
X119692810Y-118419839D01*
X119745965Y-118533830D01*
X119745967Y-118533834D01*
X119881501Y-118727395D01*
X119881506Y-118727402D01*
X120048597Y-118894493D01*
X120048603Y-118894498D01*
X120234594Y-119024730D01*
X120278219Y-119079307D01*
X120285413Y-119148805D01*
X120253890Y-119211160D01*
X120234595Y-119227880D01*
X120048922Y-119357890D01*
X120048920Y-119357891D01*
X119881891Y-119524920D01*
X119881886Y-119524926D01*
X119746400Y-119718420D01*
X119746399Y-119718422D01*
X119646570Y-119932507D01*
X119646567Y-119932513D01*
X119589364Y-120145999D01*
X119589364Y-120146000D01*
X120486314Y-120146000D01*
X120460507Y-120186156D01*
X120420000Y-120324111D01*
X120420000Y-120467889D01*
X120460507Y-120605844D01*
X120486314Y-120646000D01*
X119589364Y-120646000D01*
X119646567Y-120859486D01*
X119646570Y-120859492D01*
X119746399Y-121073578D01*
X119881894Y-121267082D01*
X120048917Y-121434105D01*
X120242421Y-121569600D01*
X120456507Y-121669429D01*
X120456516Y-121669433D01*
X120670000Y-121726634D01*
X120670000Y-120831501D01*
X120777685Y-120880680D01*
X120884237Y-120896000D01*
X120955763Y-120896000D01*
X121062315Y-120880680D01*
X121170000Y-120831501D01*
X121170000Y-121726633D01*
X121383483Y-121669433D01*
X121383492Y-121669429D01*
X121597578Y-121569600D01*
X121791082Y-121434105D01*
X121958105Y-121267082D01*
X122093600Y-121073578D01*
X122193429Y-120859492D01*
X122193432Y-120859486D01*
X122250636Y-120646000D01*
X121353686Y-120646000D01*
X121379493Y-120605844D01*
X121420000Y-120467889D01*
X121420000Y-120324111D01*
X121379493Y-120186156D01*
X121353686Y-120146000D01*
X122250636Y-120146000D01*
X122250635Y-120145999D01*
X122193432Y-119932513D01*
X122193429Y-119932507D01*
X122093600Y-119718422D01*
X122093599Y-119718420D01*
X121958113Y-119524926D01*
X121958108Y-119524920D01*
X121791078Y-119357890D01*
X121605405Y-119227879D01*
X121561780Y-119173302D01*
X121554588Y-119103804D01*
X121586110Y-119041449D01*
X121605406Y-119024730D01*
X121791401Y-118894495D01*
X121958495Y-118727401D01*
X122094035Y-118533830D01*
X122193903Y-118319663D01*
X122255063Y-118091408D01*
X122275659Y-117856000D01*
X122273222Y-117828154D01*
X122286987Y-117759657D01*
X122335601Y-117709473D01*
X122403629Y-117693538D01*
X122469473Y-117716911D01*
X122484431Y-117729666D01*
X136523669Y-131768904D01*
X136529022Y-131775007D01*
X136550718Y-131803283D01*
X136601156Y-131841984D01*
X136676159Y-131899536D01*
X136676162Y-131899537D01*
X136676163Y-131899538D01*
X136749198Y-131929790D01*
X136822238Y-131960044D01*
X136822369Y-131960061D01*
X136822470Y-131960105D01*
X136830088Y-131962147D01*
X136829769Y-131963334D01*
X136886265Y-131988328D01*
X136924736Y-132046652D01*
X136925567Y-132116517D01*
X136888495Y-132175740D01*
X136825289Y-132205519D01*
X136806183Y-132207000D01*
X124167368Y-132207000D01*
X124100329Y-132187315D01*
X124054574Y-132134511D01*
X124044630Y-132065353D01*
X124073655Y-132001797D01*
X124111073Y-131972515D01*
X124131421Y-131962147D01*
X124172789Y-131941069D01*
X124498084Y-131729820D01*
X124799516Y-131485725D01*
X125073781Y-131211460D01*
X125317876Y-130910028D01*
X125529125Y-130584733D01*
X125705214Y-130239138D01*
X125844214Y-129877031D01*
X125944602Y-129502377D01*
X126005278Y-129119282D01*
X126025578Y-128731944D01*
X126005278Y-128344606D01*
X125944602Y-127961511D01*
X125844214Y-127586857D01*
X125705214Y-127224750D01*
X125529125Y-126879155D01*
X125528444Y-126878106D01*
X125317877Y-126553861D01*
X125073784Y-126252432D01*
X125073781Y-126252428D01*
X124799516Y-125978163D01*
X124498084Y-125734068D01*
X124498082Y-125734066D01*
X124172793Y-125522821D01*
X123827197Y-125346731D01*
X123465094Y-125207732D01*
X123465087Y-125207730D01*
X123090433Y-125107342D01*
X123090429Y-125107341D01*
X123090428Y-125107341D01*
X122707339Y-125046666D01*
X122320001Y-125026366D01*
X122319999Y-125026366D01*
X121932660Y-125046666D01*
X121549572Y-125107341D01*
X121549570Y-125107341D01*
X121174905Y-125207732D01*
X120812802Y-125346731D01*
X120467206Y-125522821D01*
X120141917Y-125734066D01*
X119840488Y-125978159D01*
X119840480Y-125978166D01*
X119566222Y-126252424D01*
X119566215Y-126252432D01*
X119322122Y-126553861D01*
X119110875Y-126879152D01*
X119110873Y-126879156D01*
X119106483Y-126887773D01*
X119058508Y-126938567D01*
X118990686Y-126955361D01*
X118924552Y-126932822D01*
X118881102Y-126878106D01*
X118872000Y-126831475D01*
X118872000Y-124208105D01*
X118872586Y-122450495D01*
X118889856Y-70638024D01*
X118909563Y-70570994D01*
X118962382Y-70525256D01*
X119031544Y-70515336D01*
X119095090Y-70544382D01*
X119117851Y-70570533D01*
X119322122Y-70885082D01*
X119322124Y-70885084D01*
X119566219Y-71186516D01*
X119840484Y-71460781D01*
X119840488Y-71460784D01*
X120141917Y-71704877D01*
X120467206Y-71916122D01*
X120467211Y-71916125D01*
X120812806Y-72092214D01*
X121174913Y-72231214D01*
X121549567Y-72331602D01*
X121932662Y-72392278D01*
X122298576Y-72411455D01*
X122319999Y-72412578D01*
X122320000Y-72412578D01*
X122320001Y-72412578D01*
X122340301Y-72411514D01*
X122707338Y-72392278D01*
X123090433Y-72331602D01*
X123465087Y-72231214D01*
X123827194Y-72092214D01*
X124172789Y-71916125D01*
X124498084Y-71704876D01*
X124799516Y-71460781D01*
X125073781Y-71186516D01*
X125317876Y-70885084D01*
X125529125Y-70559789D01*
X125705214Y-70214194D01*
X125844214Y-69852087D01*
X125944602Y-69477433D01*
X126005278Y-69094338D01*
X126024897Y-68720000D01*
X138148000Y-68720000D01*
X138148000Y-68945357D01*
X138162829Y-69095932D01*
X138221443Y-69289154D01*
X138316615Y-69467209D01*
X138316620Y-69467215D01*
X138444707Y-69623292D01*
X138600784Y-69751379D01*
X138600790Y-69751384D01*
X138778846Y-69846557D01*
X138923000Y-69890285D01*
X138923000Y-68893650D01*
X138948000Y-68893650D01*
X138962860Y-68963560D01*
X139019082Y-69040943D01*
X139101918Y-69088769D01*
X139197044Y-69098767D01*
X139288013Y-69069209D01*
X139359096Y-69005206D01*
X139398000Y-68917825D01*
X139398000Y-68720000D01*
X139423000Y-68720000D01*
X139423000Y-69890285D01*
X139567153Y-69846557D01*
X139745209Y-69751384D01*
X139745215Y-69751379D01*
X139901292Y-69623292D01*
X140029379Y-69467215D01*
X140029384Y-69467209D01*
X140124556Y-69289154D01*
X140183170Y-69095932D01*
X140198000Y-68945357D01*
X140198000Y-68720000D01*
X145298000Y-68720000D01*
X145298000Y-68945357D01*
X145312829Y-69095932D01*
X145371443Y-69289154D01*
X145466615Y-69467209D01*
X145466620Y-69467215D01*
X145594707Y-69623292D01*
X145750784Y-69751379D01*
X145750790Y-69751384D01*
X145928846Y-69846557D01*
X146073000Y-69890285D01*
X146073000Y-68893650D01*
X146098000Y-68893650D01*
X146112860Y-68963560D01*
X146169082Y-69040943D01*
X146251918Y-69088769D01*
X146347044Y-69098767D01*
X146438013Y-69069209D01*
X146509096Y-69005206D01*
X146548000Y-68917825D01*
X146548000Y-68720000D01*
X146573000Y-68720000D01*
X146573000Y-69890285D01*
X146717153Y-69846557D01*
X146895209Y-69751384D01*
X146895215Y-69751379D01*
X147051292Y-69623292D01*
X147179379Y-69467215D01*
X147179384Y-69467209D01*
X147274556Y-69289154D01*
X147333170Y-69095932D01*
X147348000Y-68945357D01*
X147348000Y-68720000D01*
X146573000Y-68720000D01*
X146548000Y-68720000D01*
X146548000Y-68046350D01*
X146533140Y-67976440D01*
X146476918Y-67899057D01*
X146394082Y-67851231D01*
X146298956Y-67841233D01*
X146207987Y-67870791D01*
X146136904Y-67934794D01*
X146098000Y-68022175D01*
X146098000Y-68893650D01*
X146073000Y-68893650D01*
X146073000Y-68720000D01*
X145298000Y-68720000D01*
X140198000Y-68720000D01*
X139423000Y-68720000D01*
X139398000Y-68720000D01*
X139398000Y-68046350D01*
X139383140Y-67976440D01*
X139326918Y-67899057D01*
X139244082Y-67851231D01*
X139148956Y-67841233D01*
X139057987Y-67870791D01*
X138986904Y-67934794D01*
X138948000Y-68022175D01*
X138948000Y-68893650D01*
X138923000Y-68893650D01*
X138923000Y-68720000D01*
X138148000Y-68720000D01*
X126024897Y-68720000D01*
X126025578Y-68707000D01*
X126005278Y-68319662D01*
X125989493Y-68220000D01*
X138148000Y-68220000D01*
X138923000Y-68220000D01*
X138923000Y-67049712D01*
X139423000Y-67049712D01*
X139423000Y-68220000D01*
X140198000Y-68220000D01*
X145298000Y-68220000D01*
X146073000Y-68220000D01*
X146073000Y-67049712D01*
X146573000Y-67049712D01*
X146573000Y-68220000D01*
X147348000Y-68220000D01*
X147348000Y-67994642D01*
X147333170Y-67844067D01*
X147274556Y-67650845D01*
X147179384Y-67472790D01*
X147179379Y-67472784D01*
X147051292Y-67316707D01*
X146895215Y-67188620D01*
X146895209Y-67188615D01*
X146717150Y-67093441D01*
X146573000Y-67049712D01*
X146073000Y-67049712D01*
X145928849Y-67093441D01*
X145750790Y-67188615D01*
X145750784Y-67188620D01*
X145594707Y-67316707D01*
X145466620Y-67472784D01*
X145466615Y-67472790D01*
X145371443Y-67650845D01*
X145312829Y-67844067D01*
X145298000Y-67994642D01*
X145298000Y-68220000D01*
X140198000Y-68220000D01*
X140198000Y-67994642D01*
X140183170Y-67844067D01*
X140124556Y-67650845D01*
X140029384Y-67472790D01*
X140029379Y-67472784D01*
X139901292Y-67316707D01*
X139745215Y-67188620D01*
X139745209Y-67188615D01*
X139567150Y-67093441D01*
X139423000Y-67049712D01*
X138923000Y-67049712D01*
X138778849Y-67093441D01*
X138600790Y-67188615D01*
X138600784Y-67188620D01*
X138444707Y-67316707D01*
X138316620Y-67472784D01*
X138316615Y-67472790D01*
X138221443Y-67650845D01*
X138162829Y-67844067D01*
X138148000Y-67994642D01*
X138148000Y-68220000D01*
X125989493Y-68220000D01*
X125944602Y-67936567D01*
X125844214Y-67561913D01*
X125705214Y-67199806D01*
X125529125Y-66854211D01*
X125317876Y-66528916D01*
X125073781Y-66227484D01*
X124799516Y-65953219D01*
X124498084Y-65709124D01*
X124498082Y-65709122D01*
X124185294Y-65505995D01*
X124139791Y-65452974D01*
X124130177Y-65383769D01*
X124159504Y-65320352D01*
X124218461Y-65282858D01*
X124252829Y-65278000D01*
X129077967Y-65278000D01*
X160803556Y-65280353D01*
G37*
%TD.AperFunction*%
%TA.AperFunction,Conductor*%
G36*
X123042520Y-83016185D02*
G01*
X123063162Y-83032819D01*
X140783181Y-100752837D01*
X140816666Y-100814160D01*
X140819500Y-100840518D01*
X140819500Y-126713032D01*
X140812137Y-126755124D01*
X140358019Y-128013481D01*
X140316747Y-128069858D01*
X140251546Y-128094972D01*
X140183119Y-128080849D01*
X140133190Y-128031973D01*
X140129000Y-128023794D01*
X140110568Y-127984266D01*
X139980047Y-127797861D01*
X139980045Y-127797858D01*
X139819141Y-127636954D01*
X139632734Y-127506432D01*
X139632732Y-127506431D01*
X139426497Y-127410261D01*
X139426488Y-127410258D01*
X139206697Y-127351366D01*
X139206693Y-127351365D01*
X139206692Y-127351365D01*
X139206691Y-127351364D01*
X139206686Y-127351364D01*
X138980002Y-127331532D01*
X138979998Y-127331532D01*
X138753313Y-127351364D01*
X138753302Y-127351366D01*
X138533511Y-127410258D01*
X138533502Y-127410261D01*
X138327267Y-127506431D01*
X138327265Y-127506432D01*
X138140858Y-127636954D01*
X137979954Y-127797858D01*
X137849432Y-127984265D01*
X137849431Y-127984267D01*
X137753261Y-128190502D01*
X137753258Y-128190511D01*
X137694366Y-128410302D01*
X137694364Y-128410312D01*
X137679500Y-128580216D01*
X137679500Y-129093784D01*
X137694364Y-129263687D01*
X137694366Y-129263697D01*
X137753258Y-129483488D01*
X137753263Y-129483502D01*
X137790133Y-129562568D01*
X137792023Y-129567078D01*
X137796362Y-129578695D01*
X137802406Y-129594877D01*
X137804614Y-129598916D01*
X137820469Y-129627922D01*
X137822256Y-129631455D01*
X137849432Y-129689734D01*
X137867364Y-129715345D01*
X137869454Y-129718330D01*
X137873071Y-129724157D01*
X138261402Y-130434591D01*
X138276370Y-130501547D01*
X138275641Y-130513597D01*
X138275642Y-130513607D01*
X138286821Y-130574612D01*
X138287384Y-130578314D01*
X138294335Y-130635552D01*
X138282875Y-130704476D01*
X138235972Y-130756262D01*
X138171239Y-130774500D01*
X137279097Y-130774500D01*
X137212058Y-130754815D01*
X137191416Y-130738181D01*
X122756064Y-116302829D01*
X122727825Y-116259177D01*
X122700560Y-116187395D01*
X122369583Y-115316000D01*
X122196051Y-114859126D01*
X122194120Y-114853147D01*
X122193903Y-114852337D01*
X122192535Y-114849404D01*
X122190773Y-114845231D01*
X122180761Y-114818872D01*
X122180760Y-114818869D01*
X122179208Y-114814963D01*
X122153383Y-114759892D01*
X122153376Y-114759883D01*
X122150141Y-114754484D01*
X122150257Y-114754413D01*
X122141097Y-114739096D01*
X122094036Y-114638174D01*
X122094035Y-114638171D01*
X122094033Y-114638168D01*
X122094032Y-114638166D01*
X121958494Y-114444597D01*
X121791402Y-114277506D01*
X121791396Y-114277501D01*
X121605842Y-114147575D01*
X121562217Y-114092998D01*
X121555023Y-114023500D01*
X121586546Y-113961145D01*
X121605842Y-113944425D01*
X121644295Y-113917500D01*
X121791401Y-113814495D01*
X121958495Y-113647401D01*
X122094035Y-113453830D01*
X122193903Y-113239663D01*
X122255063Y-113011408D01*
X122275659Y-112776000D01*
X122255063Y-112540592D01*
X122193903Y-112312337D01*
X122094035Y-112098171D01*
X122074343Y-112070047D01*
X121958494Y-111904597D01*
X121791402Y-111737506D01*
X121791396Y-111737501D01*
X121605842Y-111607575D01*
X121562217Y-111552998D01*
X121555023Y-111483500D01*
X121586546Y-111421145D01*
X121605842Y-111404425D01*
X121736040Y-111313259D01*
X121791401Y-111274495D01*
X121958495Y-111107401D01*
X122094035Y-110913830D01*
X122193903Y-110699663D01*
X122255063Y-110471408D01*
X122275659Y-110236000D01*
X122255063Y-110000592D01*
X122193903Y-109772337D01*
X122094035Y-109558171D01*
X121958495Y-109364599D01*
X121958494Y-109364597D01*
X121791402Y-109197506D01*
X121791396Y-109197501D01*
X121605842Y-109067575D01*
X121562217Y-109012998D01*
X121555023Y-108943500D01*
X121586546Y-108881145D01*
X121605842Y-108864425D01*
X121628026Y-108848891D01*
X121791401Y-108734495D01*
X121958495Y-108567401D01*
X122094035Y-108373830D01*
X122193903Y-108159663D01*
X122255063Y-107931408D01*
X122275659Y-107696000D01*
X122255063Y-107460592D01*
X122193903Y-107232337D01*
X122094035Y-107018171D01*
X121958495Y-106824599D01*
X121958494Y-106824597D01*
X121791402Y-106657506D01*
X121791396Y-106657501D01*
X121605842Y-106527575D01*
X121562217Y-106472998D01*
X121555023Y-106403500D01*
X121586546Y-106341145D01*
X121605842Y-106324425D01*
X121628026Y-106308891D01*
X121791401Y-106194495D01*
X121958495Y-106027401D01*
X122094035Y-105833830D01*
X122193903Y-105619663D01*
X122255063Y-105391408D01*
X122275659Y-105156000D01*
X122255063Y-104920592D01*
X122193903Y-104692337D01*
X122094035Y-104478171D01*
X121958495Y-104284599D01*
X121958494Y-104284597D01*
X121791402Y-104117506D01*
X121791396Y-104117501D01*
X121605842Y-103987575D01*
X121562217Y-103932998D01*
X121555023Y-103863500D01*
X121586546Y-103801145D01*
X121605842Y-103784425D01*
X121718368Y-103705633D01*
X121791401Y-103654495D01*
X121958495Y-103487401D01*
X122094035Y-103293830D01*
X122193903Y-103079663D01*
X122255063Y-102851408D01*
X122275659Y-102616000D01*
X122255063Y-102380592D01*
X122193903Y-102152337D01*
X122094035Y-101938171D01*
X121958495Y-101744599D01*
X121958494Y-101744597D01*
X121791402Y-101577506D01*
X121791396Y-101577501D01*
X121605842Y-101447575D01*
X121562217Y-101392998D01*
X121555023Y-101323500D01*
X121586546Y-101261145D01*
X121605842Y-101244425D01*
X121628026Y-101228891D01*
X121791401Y-101114495D01*
X121958495Y-100947401D01*
X122094035Y-100753830D01*
X122193903Y-100539663D01*
X122255063Y-100311408D01*
X122275659Y-100076000D01*
X122255063Y-99840592D01*
X122208626Y-99667285D01*
X122193905Y-99612344D01*
X122193904Y-99612343D01*
X122193903Y-99612337D01*
X122094035Y-99398171D01*
X122083994Y-99383830D01*
X121958494Y-99204597D01*
X121791402Y-99037506D01*
X121791396Y-99037501D01*
X121605842Y-98907575D01*
X121562217Y-98852998D01*
X121555023Y-98783500D01*
X121586546Y-98721145D01*
X121605842Y-98704425D01*
X121738235Y-98611722D01*
X121791401Y-98574495D01*
X121958495Y-98407401D01*
X122094035Y-98213830D01*
X122193903Y-97999663D01*
X122255063Y-97771408D01*
X122275659Y-97536000D01*
X122255063Y-97300592D01*
X122193903Y-97072337D01*
X122094035Y-96858171D01*
X121958495Y-96664599D01*
X121958494Y-96664597D01*
X121791402Y-96497506D01*
X121791396Y-96497501D01*
X121605842Y-96367575D01*
X121562217Y-96312998D01*
X121555023Y-96243500D01*
X121586546Y-96181145D01*
X121605842Y-96164425D01*
X121628026Y-96148891D01*
X121791401Y-96034495D01*
X121958495Y-95867401D01*
X122094035Y-95673830D01*
X122193903Y-95459663D01*
X122255063Y-95231408D01*
X122275659Y-94996000D01*
X122255063Y-94760592D01*
X122193903Y-94532337D01*
X122094035Y-94318171D01*
X121958495Y-94124599D01*
X121958494Y-94124597D01*
X121791402Y-93957506D01*
X121791396Y-93957501D01*
X121605842Y-93827575D01*
X121562217Y-93772998D01*
X121555023Y-93703500D01*
X121586546Y-93641145D01*
X121605842Y-93624425D01*
X121719572Y-93544790D01*
X121791401Y-93494495D01*
X121958495Y-93327401D01*
X122094035Y-93133830D01*
X122193903Y-92919663D01*
X122255063Y-92691408D01*
X122275659Y-92456000D01*
X122255063Y-92220592D01*
X122193903Y-91992337D01*
X122094035Y-91778171D01*
X121958495Y-91584599D01*
X121958494Y-91584597D01*
X121791402Y-91417506D01*
X121791396Y-91417501D01*
X121605842Y-91287575D01*
X121562217Y-91232998D01*
X121555023Y-91163500D01*
X121586546Y-91101145D01*
X121605842Y-91084425D01*
X121628026Y-91068891D01*
X121791401Y-90954495D01*
X121958495Y-90787401D01*
X122094035Y-90593830D01*
X122193903Y-90379663D01*
X122255063Y-90151408D01*
X122275659Y-89916000D01*
X122255063Y-89680592D01*
X122193903Y-89452337D01*
X122094035Y-89238171D01*
X122035098Y-89153999D01*
X121958494Y-89044597D01*
X121791402Y-88877506D01*
X121791395Y-88877501D01*
X121625018Y-88761002D01*
X121581393Y-88706425D01*
X121574199Y-88636927D01*
X121605722Y-88574572D01*
X121650306Y-88544209D01*
X122389152Y-88250309D01*
X122458718Y-88243822D01*
X122520750Y-88275975D01*
X122522663Y-88277848D01*
X132267181Y-98022366D01*
X132300666Y-98083689D01*
X132303500Y-98110047D01*
X132303500Y-109605480D01*
X132283815Y-109672519D01*
X132267181Y-109693161D01*
X131981966Y-109978375D01*
X131979240Y-109980942D01*
X131932818Y-110022068D01*
X131897586Y-110073109D01*
X131895368Y-110076124D01*
X131857124Y-110124939D01*
X131857119Y-110124948D01*
X131852960Y-110134188D01*
X131841942Y-110153723D01*
X131836187Y-110162061D01*
X131836183Y-110162067D01*
X131836182Y-110162070D01*
X131836180Y-110162074D01*
X131836179Y-110162077D01*
X131814189Y-110220055D01*
X131812757Y-110223513D01*
X131787305Y-110280068D01*
X131785477Y-110290042D01*
X131779453Y-110311653D01*
X131775860Y-110321127D01*
X131775859Y-110321128D01*
X131768384Y-110382685D01*
X131767821Y-110386386D01*
X131756642Y-110447390D01*
X131756642Y-110447395D01*
X131760387Y-110509302D01*
X131760500Y-110513047D01*
X131760500Y-111537951D01*
X131760387Y-111541696D01*
X131756642Y-111603603D01*
X131756642Y-111603605D01*
X131767821Y-111664612D01*
X131768384Y-111668313D01*
X131775859Y-111729870D01*
X131775860Y-111729874D01*
X131779451Y-111739343D01*
X131785474Y-111760946D01*
X131787304Y-111770930D01*
X131812759Y-111827490D01*
X131814189Y-111830941D01*
X131836182Y-111888930D01*
X131836183Y-111888931D01*
X131841936Y-111897266D01*
X131852961Y-111916813D01*
X131857120Y-111926055D01*
X131857124Y-111926060D01*
X131895371Y-111974878D01*
X131897591Y-111977896D01*
X131932812Y-112028924D01*
X131932816Y-112028928D01*
X131932817Y-112028929D01*
X131979250Y-112070064D01*
X131981941Y-112072598D01*
X134305899Y-114396556D01*
X134308435Y-114399250D01*
X134349571Y-114445683D01*
X134380931Y-114467329D01*
X134400610Y-114480913D01*
X134403627Y-114483133D01*
X134452438Y-114521374D01*
X134452443Y-114521377D01*
X134461674Y-114525531D01*
X134481227Y-114536559D01*
X134489570Y-114542318D01*
X134547557Y-114564309D01*
X134551012Y-114565739D01*
X134580593Y-114579053D01*
X134607563Y-114591192D01*
X134607564Y-114591192D01*
X134607568Y-114591194D01*
X134617530Y-114593019D01*
X134639151Y-114599046D01*
X134648625Y-114602639D01*
X134648628Y-114602640D01*
X134665371Y-114604673D01*
X134710189Y-114610115D01*
X134713891Y-114610678D01*
X134750573Y-114617400D01*
X134801106Y-114639049D01*
X134887266Y-114701648D01*
X134887270Y-114701651D01*
X135060192Y-114778642D01*
X135060197Y-114778644D01*
X135245354Y-114818000D01*
X135245355Y-114818000D01*
X135434644Y-114818000D01*
X135434646Y-114818000D01*
X135619803Y-114778644D01*
X135792730Y-114701651D01*
X135945871Y-114590388D01*
X136072533Y-114449716D01*
X136167179Y-114285784D01*
X136225674Y-114105756D01*
X136245460Y-113917500D01*
X136225674Y-113729244D01*
X136167179Y-113549216D01*
X136072533Y-113385284D01*
X135945871Y-113244612D01*
X135939061Y-113239664D01*
X135792732Y-113133349D01*
X135723422Y-113102490D01*
X135716785Y-113099042D01*
X135715329Y-113098170D01*
X135709369Y-113096040D01*
X135705023Y-113094299D01*
X135668123Y-113077870D01*
X135619806Y-113056357D01*
X135619802Y-113056355D01*
X135474001Y-113025365D01*
X135434646Y-113017000D01*
X135434645Y-113017000D01*
X135431124Y-113017000D01*
X135406435Y-113014517D01*
X134813953Y-112894140D01*
X134752175Y-112861502D01*
X134750961Y-112860304D01*
X134006534Y-112115877D01*
X133973049Y-112054554D01*
X133978033Y-111984862D01*
X134019905Y-111928929D01*
X134043774Y-111914919D01*
X134056730Y-111909151D01*
X134209871Y-111797888D01*
X134336533Y-111657216D01*
X134431179Y-111493284D01*
X134489674Y-111313256D01*
X134509460Y-111125000D01*
X134504460Y-111077438D01*
X134499644Y-111031603D01*
X134499339Y-111027217D01*
X134499177Y-111022415D01*
X134498357Y-111017824D01*
X134497731Y-111013409D01*
X134489674Y-110936745D01*
X134478127Y-110901205D01*
X134476055Y-110892935D01*
X134441542Y-110699663D01*
X134329934Y-110074650D01*
X134306431Y-109943034D01*
X134304500Y-109921236D01*
X134304500Y-97543047D01*
X134304613Y-97539302D01*
X134308358Y-97477394D01*
X134297175Y-97416371D01*
X134296613Y-97412674D01*
X134294618Y-97396251D01*
X134289140Y-97351128D01*
X134285548Y-97341656D01*
X134279521Y-97320034D01*
X134277695Y-97310071D01*
X134277695Y-97310069D01*
X134252224Y-97253476D01*
X134250817Y-97250079D01*
X134228818Y-97192070D01*
X134228816Y-97192068D01*
X134228816Y-97192066D01*
X134223062Y-97183731D01*
X134212034Y-97164177D01*
X134207880Y-97154947D01*
X134207878Y-97154944D01*
X134169621Y-97106112D01*
X134167427Y-97103130D01*
X134132183Y-97052071D01*
X134085750Y-97010935D01*
X134083056Y-97008399D01*
X122815186Y-85740529D01*
X122789587Y-85703282D01*
X122764579Y-85647111D01*
X122171727Y-84315517D01*
X122150513Y-84273299D01*
X122150510Y-84273295D01*
X122150508Y-84273291D01*
X122147386Y-84268315D01*
X122147640Y-84268155D01*
X122137651Y-84251706D01*
X122094037Y-84158176D01*
X122094034Y-84158170D01*
X122094033Y-84158169D01*
X121958495Y-83964599D01*
X121958494Y-83964597D01*
X121791402Y-83797506D01*
X121791401Y-83797505D01*
X121682637Y-83721348D01*
X121627863Y-83682994D01*
X121584238Y-83628417D01*
X121577046Y-83558918D01*
X121608568Y-83496564D01*
X121654544Y-83465658D01*
X122855261Y-83004736D01*
X122899699Y-82996500D01*
X122975481Y-82996500D01*
X123042520Y-83016185D01*
G37*
%TD.AperFunction*%
%TA.AperFunction,Conductor*%
G36*
X142425703Y-101547278D02*
G01*
X142432181Y-101553310D01*
X144523181Y-103644310D01*
X144556666Y-103705633D01*
X144559500Y-103731991D01*
X144559500Y-127263380D01*
X144539815Y-127330419D01*
X144487011Y-127376174D01*
X144417853Y-127386118D01*
X144403406Y-127383155D01*
X144310000Y-127358126D01*
X144310000Y-128401498D01*
X144202315Y-128352320D01*
X144095763Y-128337000D01*
X144024237Y-128337000D01*
X143917685Y-128352320D01*
X143810000Y-128401498D01*
X143810000Y-127358127D01*
X143613671Y-127410734D01*
X143407517Y-127506865D01*
X143221179Y-127637342D01*
X143060342Y-127798179D01*
X142929865Y-127984518D01*
X142911238Y-128024463D01*
X142865065Y-128076901D01*
X142797871Y-128096052D01*
X142730990Y-128075835D01*
X142685657Y-128022669D01*
X142682220Y-128014148D01*
X142663225Y-127961514D01*
X142454507Y-127383155D01*
X142227863Y-126755125D01*
X142220500Y-126713033D01*
X142220500Y-101640991D01*
X142240185Y-101573952D01*
X142292989Y-101528197D01*
X142362147Y-101518253D01*
X142425703Y-101547278D01*
G37*
%TD.AperFunction*%
%TD*%
%TA.AperFunction,Conductor*%
%TO.N,+1V1*%
G36*
X142969623Y-98090317D02*
G01*
X143779796Y-98605188D01*
X143784941Y-98612518D01*
X143784341Y-98619515D01*
X143637563Y-98976195D01*
X143631245Y-98982542D01*
X143631195Y-98982563D01*
X143275574Y-99128905D01*
X143266620Y-99128884D01*
X143260620Y-99123243D01*
X143013214Y-98619515D01*
X142823975Y-98234218D01*
X142823405Y-98225283D01*
X142826203Y-98220791D01*
X142955076Y-98091918D01*
X142963348Y-98088492D01*
X142969623Y-98090317D01*
G37*
%TD.AperFunction*%
%TD*%
%TA.AperFunction,Conductor*%
%TO.N,+1V1*%
G36*
X146744855Y-85954303D02*
G01*
X146749906Y-85959992D01*
X146898123Y-86315498D01*
X146898144Y-86324452D01*
X146898123Y-86324502D01*
X146749906Y-86680007D01*
X146743559Y-86686325D01*
X146735965Y-86686775D01*
X146711687Y-86680007D01*
X146597304Y-86648120D01*
X145787558Y-86422385D01*
X145780509Y-86416863D01*
X145779000Y-86411115D01*
X145779000Y-86228884D01*
X145782427Y-86220611D01*
X145787557Y-86217614D01*
X146735967Y-85953224D01*
X146744855Y-85954303D01*
G37*
%TD.AperFunction*%
%TD*%
%TA.AperFunction,Conductor*%
%TO.N,GPIO0*%
G36*
X122762493Y-79553118D02*
G01*
X122768989Y-79559282D01*
X122770000Y-79564041D01*
X122770000Y-79947958D01*
X122766573Y-79956231D01*
X122762493Y-79958881D01*
X121255910Y-80537217D01*
X121246958Y-80536983D01*
X121240912Y-80530783D01*
X120920865Y-79760489D01*
X120920856Y-79751534D01*
X120920865Y-79751511D01*
X121003295Y-79553118D01*
X121240912Y-78981215D01*
X121247251Y-78974891D01*
X121255910Y-78974782D01*
X122762493Y-79553118D01*
G37*
%TD.AperFunction*%
%TD*%
%TA.AperFunction,Conductor*%
%TO.N,GPIO0*%
G36*
X138985911Y-128840827D02*
G01*
X139711907Y-129338216D01*
X139716795Y-129345719D01*
X139716431Y-129351452D01*
X139334287Y-130538886D01*
X139331423Y-130543575D01*
X139061624Y-130813374D01*
X139053351Y-130816801D01*
X139045078Y-130813374D01*
X139043085Y-130810713D01*
X138245966Y-129352422D01*
X138245004Y-129343519D01*
X138249609Y-129337165D01*
X138972679Y-128840832D01*
X138981437Y-128838976D01*
X138985911Y-128840827D01*
G37*
%TD.AperFunction*%
%TD*%
%TA.AperFunction,Conductor*%
%TO.N,GPIO1*%
G36*
X122762493Y-82093118D02*
G01*
X122768989Y-82099282D01*
X122770000Y-82104041D01*
X122770000Y-82487958D01*
X122766573Y-82496231D01*
X122762493Y-82498881D01*
X121255910Y-83077217D01*
X121246958Y-83076983D01*
X121240912Y-83070783D01*
X120920865Y-82300489D01*
X120920856Y-82291534D01*
X120920865Y-82291511D01*
X121003295Y-82093118D01*
X121240912Y-81521215D01*
X121247251Y-81514891D01*
X121255910Y-81514782D01*
X122762493Y-82093118D01*
G37*
%TD.AperFunction*%
%TD*%
%TA.AperFunction,Conductor*%
%TO.N,GPIO1*%
G36*
X141720057Y-126840427D02*
G01*
X141722789Y-126844728D01*
X142256034Y-128322348D01*
X142255619Y-128331294D01*
X142251649Y-128335967D01*
X141526620Y-128833457D01*
X141517859Y-128835312D01*
X141513380Y-128833457D01*
X140788350Y-128335967D01*
X140783468Y-128328461D01*
X140783965Y-128322348D01*
X141317211Y-126844728D01*
X141323242Y-126838110D01*
X141328216Y-126837000D01*
X141711784Y-126837000D01*
X141720057Y-126840427D01*
G37*
%TD.AperFunction*%
%TD*%
%TA.AperFunction,Conductor*%
%TO.N,GPIO2*%
G36*
X121703728Y-84515073D02*
G01*
X121709928Y-84521119D01*
X122366298Y-85995380D01*
X122366532Y-86004332D01*
X122363882Y-86008412D01*
X122092412Y-86279882D01*
X122084139Y-86283309D01*
X122079380Y-86282298D01*
X120605119Y-85625928D01*
X120598955Y-85619432D01*
X120599063Y-85610776D01*
X120917438Y-84839783D01*
X120923759Y-84833448D01*
X121694775Y-84515064D01*
X121703728Y-84515073D01*
G37*
%TD.AperFunction*%
%TD*%
%TA.AperFunction,Conductor*%
%TO.N,GPIO2*%
G36*
X133802477Y-110008427D02*
G01*
X133805722Y-110014643D01*
X134001549Y-111111277D01*
X133999630Y-111120024D01*
X133992088Y-111124852D01*
X133990060Y-111125034D01*
X133604000Y-111126000D01*
X133217939Y-111125034D01*
X133209674Y-111121586D01*
X133206268Y-111113305D01*
X133206449Y-111111283D01*
X133401168Y-110020855D01*
X133401354Y-110020112D01*
X133403640Y-110013081D01*
X133409457Y-110006274D01*
X133414766Y-110005000D01*
X133794204Y-110005000D01*
X133802477Y-110008427D01*
G37*
%TD.AperFunction*%
%TD*%
%TA.AperFunction,Conductor*%
%TO.N,GPIO3*%
G36*
X134542582Y-113354833D02*
G01*
X135479195Y-113545128D01*
X135486618Y-113550133D01*
X135488329Y-113558923D01*
X135487683Y-113561045D01*
X135341603Y-113916027D01*
X135339035Y-113919869D01*
X135064105Y-114193428D01*
X135055824Y-114196834D01*
X135049132Y-114194711D01*
X134264984Y-113644426D01*
X134260181Y-113636869D01*
X134262128Y-113628128D01*
X134263426Y-113626582D01*
X134531982Y-113358026D01*
X134540254Y-113354600D01*
X134542582Y-113354833D01*
G37*
%TD.AperFunction*%
%TD*%
%TA.AperFunction,Conductor*%
%TO.N,GPIO3*%
G36*
X121255888Y-86595664D02*
G01*
X121256347Y-86595867D01*
X122849852Y-87339610D01*
X122855900Y-87346214D01*
X122855506Y-87355160D01*
X122853177Y-87358485D01*
X122583852Y-87627811D01*
X122579903Y-87630409D01*
X121255994Y-88157036D01*
X121247041Y-88156910D01*
X121240864Y-88150648D01*
X120921152Y-87379777D01*
X120921149Y-87370825D01*
X121240595Y-86601978D01*
X121246933Y-86595655D01*
X121255888Y-86595664D01*
G37*
%TD.AperFunction*%
%TD*%
%TA.AperFunction,Conductor*%
%TO.N,GPIO14*%
G36*
X121703124Y-114995323D02*
G01*
X121709449Y-115001662D01*
X121709573Y-115001974D01*
X122296170Y-116546362D01*
X122295904Y-116555312D01*
X122293505Y-116558789D01*
X122162789Y-116689505D01*
X122154516Y-116692932D01*
X122150362Y-116692170D01*
X120605974Y-116105573D01*
X120599456Y-116099431D01*
X120599190Y-116090481D01*
X120599297Y-116090209D01*
X120917438Y-115319783D01*
X120923759Y-115313448D01*
X121694170Y-114995314D01*
X121703124Y-114995323D01*
G37*
%TD.AperFunction*%
%TD*%
%TA.AperFunction,Conductor*%
%TO.N,GPIO14*%
G36*
X161057360Y-117834006D02*
G01*
X161413195Y-117980436D01*
X161419542Y-117986754D01*
X161419563Y-117986804D01*
X161566265Y-118343299D01*
X161566244Y-118352253D01*
X161561521Y-118357749D01*
X160733576Y-118860925D01*
X160724727Y-118862294D01*
X160719227Y-118859200D01*
X160590355Y-118730328D01*
X160586928Y-118722055D01*
X160588236Y-118716679D01*
X161042518Y-117839445D01*
X161049366Y-117833675D01*
X161057360Y-117834006D01*
G37*
%TD.AperFunction*%
%TD*%
M02*
