%TF.GenerationSoftware,KiCad,Pcbnew,7.0.9*%
%TF.CreationDate,2023-12-13T10:33:34+03:00*%
%TF.ProjectId,rp2040,72703230-3430-42e6-9b69-6361645f7063,rev?*%
%TF.SameCoordinates,Original*%
%TF.FileFunction,Legend,Top*%
%TF.FilePolarity,Positive*%
%FSLAX46Y46*%
G04 Gerber Fmt 4.6, Leading zero omitted, Abs format (unit mm)*
G04 Created by KiCad (PCBNEW 7.0.9) date 2023-12-13 10:33:34*
%MOMM*%
%LPD*%
G01*
G04 APERTURE LIST*
%ADD10C,0.300000*%
%ADD11C,0.250000*%
%ADD12C,0.150000*%
%ADD13C,0.120000*%
G04 APERTURE END LIST*
D10*
X127765114Y-83320489D02*
X127836542Y-83106203D01*
X127836542Y-83106203D02*
X127907971Y-83034774D01*
X127907971Y-83034774D02*
X128050828Y-82963346D01*
X128050828Y-82963346D02*
X128265114Y-82963346D01*
X128265114Y-82963346D02*
X128407971Y-83034774D01*
X128407971Y-83034774D02*
X128479400Y-83106203D01*
X128479400Y-83106203D02*
X128550828Y-83249060D01*
X128550828Y-83249060D02*
X128550828Y-83820489D01*
X128550828Y-83820489D02*
X127050828Y-83820489D01*
X127050828Y-83820489D02*
X127050828Y-83320489D01*
X127050828Y-83320489D02*
X127122257Y-83177632D01*
X127122257Y-83177632D02*
X127193685Y-83106203D01*
X127193685Y-83106203D02*
X127336542Y-83034774D01*
X127336542Y-83034774D02*
X127479400Y-83034774D01*
X127479400Y-83034774D02*
X127622257Y-83106203D01*
X127622257Y-83106203D02*
X127693685Y-83177632D01*
X127693685Y-83177632D02*
X127765114Y-83320489D01*
X127765114Y-83320489D02*
X127765114Y-83820489D01*
X127050828Y-82034774D02*
X127050828Y-81749060D01*
X127050828Y-81749060D02*
X127122257Y-81606203D01*
X127122257Y-81606203D02*
X127265114Y-81463346D01*
X127265114Y-81463346D02*
X127550828Y-81391917D01*
X127550828Y-81391917D02*
X128050828Y-81391917D01*
X128050828Y-81391917D02*
X128336542Y-81463346D01*
X128336542Y-81463346D02*
X128479400Y-81606203D01*
X128479400Y-81606203D02*
X128550828Y-81749060D01*
X128550828Y-81749060D02*
X128550828Y-82034774D01*
X128550828Y-82034774D02*
X128479400Y-82177632D01*
X128479400Y-82177632D02*
X128336542Y-82320489D01*
X128336542Y-82320489D02*
X128050828Y-82391917D01*
X128050828Y-82391917D02*
X127550828Y-82391917D01*
X127550828Y-82391917D02*
X127265114Y-82320489D01*
X127265114Y-82320489D02*
X127122257Y-82177632D01*
X127122257Y-82177632D02*
X127050828Y-82034774D01*
X127050828Y-80463345D02*
X127050828Y-80177631D01*
X127050828Y-80177631D02*
X127122257Y-80034774D01*
X127122257Y-80034774D02*
X127265114Y-79891917D01*
X127265114Y-79891917D02*
X127550828Y-79820488D01*
X127550828Y-79820488D02*
X128050828Y-79820488D01*
X128050828Y-79820488D02*
X128336542Y-79891917D01*
X128336542Y-79891917D02*
X128479400Y-80034774D01*
X128479400Y-80034774D02*
X128550828Y-80177631D01*
X128550828Y-80177631D02*
X128550828Y-80463345D01*
X128550828Y-80463345D02*
X128479400Y-80606203D01*
X128479400Y-80606203D02*
X128336542Y-80749060D01*
X128336542Y-80749060D02*
X128050828Y-80820488D01*
X128050828Y-80820488D02*
X127550828Y-80820488D01*
X127550828Y-80820488D02*
X127265114Y-80749060D01*
X127265114Y-80749060D02*
X127122257Y-80606203D01*
X127122257Y-80606203D02*
X127050828Y-80463345D01*
X127050828Y-79391916D02*
X127050828Y-78534774D01*
X128550828Y-78963345D02*
X127050828Y-78963345D01*
D11*
X150048996Y-127789619D02*
X149715663Y-127313428D01*
X149477568Y-127789619D02*
X149477568Y-126789619D01*
X149477568Y-126789619D02*
X149858520Y-126789619D01*
X149858520Y-126789619D02*
X149953758Y-126837238D01*
X149953758Y-126837238D02*
X150001377Y-126884857D01*
X150001377Y-126884857D02*
X150048996Y-126980095D01*
X150048996Y-126980095D02*
X150048996Y-127122952D01*
X150048996Y-127122952D02*
X150001377Y-127218190D01*
X150001377Y-127218190D02*
X149953758Y-127265809D01*
X149953758Y-127265809D02*
X149858520Y-127313428D01*
X149858520Y-127313428D02*
X149477568Y-127313428D01*
X150477568Y-127265809D02*
X150810901Y-127265809D01*
X150953758Y-127789619D02*
X150477568Y-127789619D01*
X150477568Y-127789619D02*
X150477568Y-126789619D01*
X150477568Y-126789619D02*
X150953758Y-126789619D01*
X151334711Y-127742000D02*
X151477568Y-127789619D01*
X151477568Y-127789619D02*
X151715663Y-127789619D01*
X151715663Y-127789619D02*
X151810901Y-127742000D01*
X151810901Y-127742000D02*
X151858520Y-127694380D01*
X151858520Y-127694380D02*
X151906139Y-127599142D01*
X151906139Y-127599142D02*
X151906139Y-127503904D01*
X151906139Y-127503904D02*
X151858520Y-127408666D01*
X151858520Y-127408666D02*
X151810901Y-127361047D01*
X151810901Y-127361047D02*
X151715663Y-127313428D01*
X151715663Y-127313428D02*
X151525187Y-127265809D01*
X151525187Y-127265809D02*
X151429949Y-127218190D01*
X151429949Y-127218190D02*
X151382330Y-127170571D01*
X151382330Y-127170571D02*
X151334711Y-127075333D01*
X151334711Y-127075333D02*
X151334711Y-126980095D01*
X151334711Y-126980095D02*
X151382330Y-126884857D01*
X151382330Y-126884857D02*
X151429949Y-126837238D01*
X151429949Y-126837238D02*
X151525187Y-126789619D01*
X151525187Y-126789619D02*
X151763282Y-126789619D01*
X151763282Y-126789619D02*
X151906139Y-126837238D01*
X152334711Y-127265809D02*
X152668044Y-127265809D01*
X152810901Y-127789619D02*
X152334711Y-127789619D01*
X152334711Y-127789619D02*
X152334711Y-126789619D01*
X152334711Y-126789619D02*
X152810901Y-126789619D01*
X153096616Y-126789619D02*
X153668044Y-126789619D01*
X153382330Y-127789619D02*
X153382330Y-126789619D01*
D12*
X123082017Y-87239866D02*
X123015350Y-87206533D01*
X123015350Y-87206533D02*
X122915350Y-87206533D01*
X122915350Y-87206533D02*
X122815350Y-87239866D01*
X122815350Y-87239866D02*
X122748684Y-87306533D01*
X122748684Y-87306533D02*
X122715350Y-87373200D01*
X122715350Y-87373200D02*
X122682017Y-87506533D01*
X122682017Y-87506533D02*
X122682017Y-87606533D01*
X122682017Y-87606533D02*
X122715350Y-87739866D01*
X122715350Y-87739866D02*
X122748684Y-87806533D01*
X122748684Y-87806533D02*
X122815350Y-87873200D01*
X122815350Y-87873200D02*
X122915350Y-87906533D01*
X122915350Y-87906533D02*
X122982017Y-87906533D01*
X122982017Y-87906533D02*
X123082017Y-87873200D01*
X123082017Y-87873200D02*
X123115350Y-87839866D01*
X123115350Y-87839866D02*
X123115350Y-87606533D01*
X123115350Y-87606533D02*
X122982017Y-87606533D01*
X123415350Y-87906533D02*
X123415350Y-87206533D01*
X123415350Y-87206533D02*
X123682017Y-87206533D01*
X123682017Y-87206533D02*
X123748684Y-87239866D01*
X123748684Y-87239866D02*
X123782017Y-87273200D01*
X123782017Y-87273200D02*
X123815350Y-87339866D01*
X123815350Y-87339866D02*
X123815350Y-87439866D01*
X123815350Y-87439866D02*
X123782017Y-87506533D01*
X123782017Y-87506533D02*
X123748684Y-87539866D01*
X123748684Y-87539866D02*
X123682017Y-87573200D01*
X123682017Y-87573200D02*
X123415350Y-87573200D01*
X124115350Y-87906533D02*
X124115350Y-87206533D01*
X124582017Y-87206533D02*
X124715350Y-87206533D01*
X124715350Y-87206533D02*
X124782017Y-87239866D01*
X124782017Y-87239866D02*
X124848683Y-87306533D01*
X124848683Y-87306533D02*
X124882017Y-87439866D01*
X124882017Y-87439866D02*
X124882017Y-87673200D01*
X124882017Y-87673200D02*
X124848683Y-87806533D01*
X124848683Y-87806533D02*
X124782017Y-87873200D01*
X124782017Y-87873200D02*
X124715350Y-87906533D01*
X124715350Y-87906533D02*
X124582017Y-87906533D01*
X124582017Y-87906533D02*
X124515350Y-87873200D01*
X124515350Y-87873200D02*
X124448683Y-87806533D01*
X124448683Y-87806533D02*
X124415350Y-87673200D01*
X124415350Y-87673200D02*
X124415350Y-87439866D01*
X124415350Y-87439866D02*
X124448683Y-87306533D01*
X124448683Y-87306533D02*
X124515350Y-87239866D01*
X124515350Y-87239866D02*
X124582017Y-87206533D01*
X125115350Y-87206533D02*
X125548683Y-87206533D01*
X125548683Y-87206533D02*
X125315350Y-87473200D01*
X125315350Y-87473200D02*
X125415350Y-87473200D01*
X125415350Y-87473200D02*
X125482016Y-87506533D01*
X125482016Y-87506533D02*
X125515350Y-87539866D01*
X125515350Y-87539866D02*
X125548683Y-87606533D01*
X125548683Y-87606533D02*
X125548683Y-87773200D01*
X125548683Y-87773200D02*
X125515350Y-87839866D01*
X125515350Y-87839866D02*
X125482016Y-87873200D01*
X125482016Y-87873200D02*
X125415350Y-87906533D01*
X125415350Y-87906533D02*
X125215350Y-87906533D01*
X125215350Y-87906533D02*
X125148683Y-87873200D01*
X125148683Y-87873200D02*
X125115350Y-87839866D01*
X123082017Y-102389866D02*
X123015350Y-102356533D01*
X123015350Y-102356533D02*
X122915350Y-102356533D01*
X122915350Y-102356533D02*
X122815350Y-102389866D01*
X122815350Y-102389866D02*
X122748684Y-102456533D01*
X122748684Y-102456533D02*
X122715350Y-102523200D01*
X122715350Y-102523200D02*
X122682017Y-102656533D01*
X122682017Y-102656533D02*
X122682017Y-102756533D01*
X122682017Y-102756533D02*
X122715350Y-102889866D01*
X122715350Y-102889866D02*
X122748684Y-102956533D01*
X122748684Y-102956533D02*
X122815350Y-103023200D01*
X122815350Y-103023200D02*
X122915350Y-103056533D01*
X122915350Y-103056533D02*
X122982017Y-103056533D01*
X122982017Y-103056533D02*
X123082017Y-103023200D01*
X123082017Y-103023200D02*
X123115350Y-102989866D01*
X123115350Y-102989866D02*
X123115350Y-102756533D01*
X123115350Y-102756533D02*
X122982017Y-102756533D01*
X123415350Y-103056533D02*
X123415350Y-102356533D01*
X123415350Y-102356533D02*
X123682017Y-102356533D01*
X123682017Y-102356533D02*
X123748684Y-102389866D01*
X123748684Y-102389866D02*
X123782017Y-102423200D01*
X123782017Y-102423200D02*
X123815350Y-102489866D01*
X123815350Y-102489866D02*
X123815350Y-102589866D01*
X123815350Y-102589866D02*
X123782017Y-102656533D01*
X123782017Y-102656533D02*
X123748684Y-102689866D01*
X123748684Y-102689866D02*
X123682017Y-102723200D01*
X123682017Y-102723200D02*
X123415350Y-102723200D01*
X124115350Y-103056533D02*
X124115350Y-102356533D01*
X124582017Y-102356533D02*
X124715350Y-102356533D01*
X124715350Y-102356533D02*
X124782017Y-102389866D01*
X124782017Y-102389866D02*
X124848683Y-102456533D01*
X124848683Y-102456533D02*
X124882017Y-102589866D01*
X124882017Y-102589866D02*
X124882017Y-102823200D01*
X124882017Y-102823200D02*
X124848683Y-102956533D01*
X124848683Y-102956533D02*
X124782017Y-103023200D01*
X124782017Y-103023200D02*
X124715350Y-103056533D01*
X124715350Y-103056533D02*
X124582017Y-103056533D01*
X124582017Y-103056533D02*
X124515350Y-103023200D01*
X124515350Y-103023200D02*
X124448683Y-102956533D01*
X124448683Y-102956533D02*
X124415350Y-102823200D01*
X124415350Y-102823200D02*
X124415350Y-102589866D01*
X124415350Y-102589866D02*
X124448683Y-102456533D01*
X124448683Y-102456533D02*
X124515350Y-102389866D01*
X124515350Y-102389866D02*
X124582017Y-102356533D01*
X125215350Y-103056533D02*
X125348683Y-103056533D01*
X125348683Y-103056533D02*
X125415350Y-103023200D01*
X125415350Y-103023200D02*
X125448683Y-102989866D01*
X125448683Y-102989866D02*
X125515350Y-102889866D01*
X125515350Y-102889866D02*
X125548683Y-102756533D01*
X125548683Y-102756533D02*
X125548683Y-102489866D01*
X125548683Y-102489866D02*
X125515350Y-102423200D01*
X125515350Y-102423200D02*
X125482016Y-102389866D01*
X125482016Y-102389866D02*
X125415350Y-102356533D01*
X125415350Y-102356533D02*
X125282016Y-102356533D01*
X125282016Y-102356533D02*
X125215350Y-102389866D01*
X125215350Y-102389866D02*
X125182016Y-102423200D01*
X125182016Y-102423200D02*
X125148683Y-102489866D01*
X125148683Y-102489866D02*
X125148683Y-102656533D01*
X125148683Y-102656533D02*
X125182016Y-102723200D01*
X125182016Y-102723200D02*
X125215350Y-102756533D01*
X125215350Y-102756533D02*
X125282016Y-102789866D01*
X125282016Y-102789866D02*
X125415350Y-102789866D01*
X125415350Y-102789866D02*
X125482016Y-102756533D01*
X125482016Y-102756533D02*
X125515350Y-102723200D01*
X125515350Y-102723200D02*
X125548683Y-102656533D01*
X123082017Y-112289866D02*
X123015350Y-112256533D01*
X123015350Y-112256533D02*
X122915350Y-112256533D01*
X122915350Y-112256533D02*
X122815350Y-112289866D01*
X122815350Y-112289866D02*
X122748684Y-112356533D01*
X122748684Y-112356533D02*
X122715350Y-112423200D01*
X122715350Y-112423200D02*
X122682017Y-112556533D01*
X122682017Y-112556533D02*
X122682017Y-112656533D01*
X122682017Y-112656533D02*
X122715350Y-112789866D01*
X122715350Y-112789866D02*
X122748684Y-112856533D01*
X122748684Y-112856533D02*
X122815350Y-112923200D01*
X122815350Y-112923200D02*
X122915350Y-112956533D01*
X122915350Y-112956533D02*
X122982017Y-112956533D01*
X122982017Y-112956533D02*
X123082017Y-112923200D01*
X123082017Y-112923200D02*
X123115350Y-112889866D01*
X123115350Y-112889866D02*
X123115350Y-112656533D01*
X123115350Y-112656533D02*
X122982017Y-112656533D01*
X123415350Y-112956533D02*
X123415350Y-112256533D01*
X123415350Y-112256533D02*
X123682017Y-112256533D01*
X123682017Y-112256533D02*
X123748684Y-112289866D01*
X123748684Y-112289866D02*
X123782017Y-112323200D01*
X123782017Y-112323200D02*
X123815350Y-112389866D01*
X123815350Y-112389866D02*
X123815350Y-112489866D01*
X123815350Y-112489866D02*
X123782017Y-112556533D01*
X123782017Y-112556533D02*
X123748684Y-112589866D01*
X123748684Y-112589866D02*
X123682017Y-112623200D01*
X123682017Y-112623200D02*
X123415350Y-112623200D01*
X124115350Y-112956533D02*
X124115350Y-112256533D01*
X124582017Y-112256533D02*
X124715350Y-112256533D01*
X124715350Y-112256533D02*
X124782017Y-112289866D01*
X124782017Y-112289866D02*
X124848683Y-112356533D01*
X124848683Y-112356533D02*
X124882017Y-112489866D01*
X124882017Y-112489866D02*
X124882017Y-112723200D01*
X124882017Y-112723200D02*
X124848683Y-112856533D01*
X124848683Y-112856533D02*
X124782017Y-112923200D01*
X124782017Y-112923200D02*
X124715350Y-112956533D01*
X124715350Y-112956533D02*
X124582017Y-112956533D01*
X124582017Y-112956533D02*
X124515350Y-112923200D01*
X124515350Y-112923200D02*
X124448683Y-112856533D01*
X124448683Y-112856533D02*
X124415350Y-112723200D01*
X124415350Y-112723200D02*
X124415350Y-112489866D01*
X124415350Y-112489866D02*
X124448683Y-112356533D01*
X124448683Y-112356533D02*
X124515350Y-112289866D01*
X124515350Y-112289866D02*
X124582017Y-112256533D01*
X125548683Y-112956533D02*
X125148683Y-112956533D01*
X125348683Y-112956533D02*
X125348683Y-112256533D01*
X125348683Y-112256533D02*
X125282016Y-112356533D01*
X125282016Y-112356533D02*
X125215350Y-112423200D01*
X125215350Y-112423200D02*
X125148683Y-112456533D01*
X125782017Y-112256533D02*
X126215350Y-112256533D01*
X126215350Y-112256533D02*
X125982017Y-112523200D01*
X125982017Y-112523200D02*
X126082017Y-112523200D01*
X126082017Y-112523200D02*
X126148683Y-112556533D01*
X126148683Y-112556533D02*
X126182017Y-112589866D01*
X126182017Y-112589866D02*
X126215350Y-112656533D01*
X126215350Y-112656533D02*
X126215350Y-112823200D01*
X126215350Y-112823200D02*
X126182017Y-112889866D01*
X126182017Y-112889866D02*
X126148683Y-112923200D01*
X126148683Y-112923200D02*
X126082017Y-112956533D01*
X126082017Y-112956533D02*
X125882017Y-112956533D01*
X125882017Y-112956533D02*
X125815350Y-112923200D01*
X125815350Y-112923200D02*
X125782017Y-112889866D01*
X159482017Y-104989866D02*
X159415350Y-104956533D01*
X159415350Y-104956533D02*
X159315350Y-104956533D01*
X159315350Y-104956533D02*
X159215350Y-104989866D01*
X159215350Y-104989866D02*
X159148684Y-105056533D01*
X159148684Y-105056533D02*
X159115350Y-105123200D01*
X159115350Y-105123200D02*
X159082017Y-105256533D01*
X159082017Y-105256533D02*
X159082017Y-105356533D01*
X159082017Y-105356533D02*
X159115350Y-105489866D01*
X159115350Y-105489866D02*
X159148684Y-105556533D01*
X159148684Y-105556533D02*
X159215350Y-105623200D01*
X159215350Y-105623200D02*
X159315350Y-105656533D01*
X159315350Y-105656533D02*
X159382017Y-105656533D01*
X159382017Y-105656533D02*
X159482017Y-105623200D01*
X159482017Y-105623200D02*
X159515350Y-105589866D01*
X159515350Y-105589866D02*
X159515350Y-105356533D01*
X159515350Y-105356533D02*
X159382017Y-105356533D01*
X159815350Y-105656533D02*
X159815350Y-104956533D01*
X159815350Y-104956533D02*
X160082017Y-104956533D01*
X160082017Y-104956533D02*
X160148684Y-104989866D01*
X160148684Y-104989866D02*
X160182017Y-105023200D01*
X160182017Y-105023200D02*
X160215350Y-105089866D01*
X160215350Y-105089866D02*
X160215350Y-105189866D01*
X160215350Y-105189866D02*
X160182017Y-105256533D01*
X160182017Y-105256533D02*
X160148684Y-105289866D01*
X160148684Y-105289866D02*
X160082017Y-105323200D01*
X160082017Y-105323200D02*
X159815350Y-105323200D01*
X160515350Y-105656533D02*
X160515350Y-104956533D01*
X160982017Y-104956533D02*
X161115350Y-104956533D01*
X161115350Y-104956533D02*
X161182017Y-104989866D01*
X161182017Y-104989866D02*
X161248683Y-105056533D01*
X161248683Y-105056533D02*
X161282017Y-105189866D01*
X161282017Y-105189866D02*
X161282017Y-105423200D01*
X161282017Y-105423200D02*
X161248683Y-105556533D01*
X161248683Y-105556533D02*
X161182017Y-105623200D01*
X161182017Y-105623200D02*
X161115350Y-105656533D01*
X161115350Y-105656533D02*
X160982017Y-105656533D01*
X160982017Y-105656533D02*
X160915350Y-105623200D01*
X160915350Y-105623200D02*
X160848683Y-105556533D01*
X160848683Y-105556533D02*
X160815350Y-105423200D01*
X160815350Y-105423200D02*
X160815350Y-105189866D01*
X160815350Y-105189866D02*
X160848683Y-105056533D01*
X160848683Y-105056533D02*
X160915350Y-104989866D01*
X160915350Y-104989866D02*
X160982017Y-104956533D01*
X161948683Y-105656533D02*
X161548683Y-105656533D01*
X161748683Y-105656533D02*
X161748683Y-104956533D01*
X161748683Y-104956533D02*
X161682016Y-105056533D01*
X161682016Y-105056533D02*
X161615350Y-105123200D01*
X161615350Y-105123200D02*
X161548683Y-105156533D01*
X162348683Y-105256533D02*
X162282017Y-105223200D01*
X162282017Y-105223200D02*
X162248683Y-105189866D01*
X162248683Y-105189866D02*
X162215350Y-105123200D01*
X162215350Y-105123200D02*
X162215350Y-105089866D01*
X162215350Y-105089866D02*
X162248683Y-105023200D01*
X162248683Y-105023200D02*
X162282017Y-104989866D01*
X162282017Y-104989866D02*
X162348683Y-104956533D01*
X162348683Y-104956533D02*
X162482017Y-104956533D01*
X162482017Y-104956533D02*
X162548683Y-104989866D01*
X162548683Y-104989866D02*
X162582017Y-105023200D01*
X162582017Y-105023200D02*
X162615350Y-105089866D01*
X162615350Y-105089866D02*
X162615350Y-105123200D01*
X162615350Y-105123200D02*
X162582017Y-105189866D01*
X162582017Y-105189866D02*
X162548683Y-105223200D01*
X162548683Y-105223200D02*
X162482017Y-105256533D01*
X162482017Y-105256533D02*
X162348683Y-105256533D01*
X162348683Y-105256533D02*
X162282017Y-105289866D01*
X162282017Y-105289866D02*
X162248683Y-105323200D01*
X162248683Y-105323200D02*
X162215350Y-105389866D01*
X162215350Y-105389866D02*
X162215350Y-105523200D01*
X162215350Y-105523200D02*
X162248683Y-105589866D01*
X162248683Y-105589866D02*
X162282017Y-105623200D01*
X162282017Y-105623200D02*
X162348683Y-105656533D01*
X162348683Y-105656533D02*
X162482017Y-105656533D01*
X162482017Y-105656533D02*
X162548683Y-105623200D01*
X162548683Y-105623200D02*
X162582017Y-105589866D01*
X162582017Y-105589866D02*
X162615350Y-105523200D01*
X162615350Y-105523200D02*
X162615350Y-105389866D01*
X162615350Y-105389866D02*
X162582017Y-105323200D01*
X162582017Y-105323200D02*
X162548683Y-105289866D01*
X162548683Y-105289866D02*
X162482017Y-105256533D01*
X123082017Y-79439866D02*
X123015350Y-79406533D01*
X123015350Y-79406533D02*
X122915350Y-79406533D01*
X122915350Y-79406533D02*
X122815350Y-79439866D01*
X122815350Y-79439866D02*
X122748684Y-79506533D01*
X122748684Y-79506533D02*
X122715350Y-79573200D01*
X122715350Y-79573200D02*
X122682017Y-79706533D01*
X122682017Y-79706533D02*
X122682017Y-79806533D01*
X122682017Y-79806533D02*
X122715350Y-79939866D01*
X122715350Y-79939866D02*
X122748684Y-80006533D01*
X122748684Y-80006533D02*
X122815350Y-80073200D01*
X122815350Y-80073200D02*
X122915350Y-80106533D01*
X122915350Y-80106533D02*
X122982017Y-80106533D01*
X122982017Y-80106533D02*
X123082017Y-80073200D01*
X123082017Y-80073200D02*
X123115350Y-80039866D01*
X123115350Y-80039866D02*
X123115350Y-79806533D01*
X123115350Y-79806533D02*
X122982017Y-79806533D01*
X123415350Y-80106533D02*
X123415350Y-79406533D01*
X123415350Y-79406533D02*
X123682017Y-79406533D01*
X123682017Y-79406533D02*
X123748684Y-79439866D01*
X123748684Y-79439866D02*
X123782017Y-79473200D01*
X123782017Y-79473200D02*
X123815350Y-79539866D01*
X123815350Y-79539866D02*
X123815350Y-79639866D01*
X123815350Y-79639866D02*
X123782017Y-79706533D01*
X123782017Y-79706533D02*
X123748684Y-79739866D01*
X123748684Y-79739866D02*
X123682017Y-79773200D01*
X123682017Y-79773200D02*
X123415350Y-79773200D01*
X124115350Y-80106533D02*
X124115350Y-79406533D01*
X124582017Y-79406533D02*
X124715350Y-79406533D01*
X124715350Y-79406533D02*
X124782017Y-79439866D01*
X124782017Y-79439866D02*
X124848683Y-79506533D01*
X124848683Y-79506533D02*
X124882017Y-79639866D01*
X124882017Y-79639866D02*
X124882017Y-79873200D01*
X124882017Y-79873200D02*
X124848683Y-80006533D01*
X124848683Y-80006533D02*
X124782017Y-80073200D01*
X124782017Y-80073200D02*
X124715350Y-80106533D01*
X124715350Y-80106533D02*
X124582017Y-80106533D01*
X124582017Y-80106533D02*
X124515350Y-80073200D01*
X124515350Y-80073200D02*
X124448683Y-80006533D01*
X124448683Y-80006533D02*
X124415350Y-79873200D01*
X124415350Y-79873200D02*
X124415350Y-79639866D01*
X124415350Y-79639866D02*
X124448683Y-79506533D01*
X124448683Y-79506533D02*
X124515350Y-79439866D01*
X124515350Y-79439866D02*
X124582017Y-79406533D01*
X125315350Y-79406533D02*
X125382016Y-79406533D01*
X125382016Y-79406533D02*
X125448683Y-79439866D01*
X125448683Y-79439866D02*
X125482016Y-79473200D01*
X125482016Y-79473200D02*
X125515350Y-79539866D01*
X125515350Y-79539866D02*
X125548683Y-79673200D01*
X125548683Y-79673200D02*
X125548683Y-79839866D01*
X125548683Y-79839866D02*
X125515350Y-79973200D01*
X125515350Y-79973200D02*
X125482016Y-80039866D01*
X125482016Y-80039866D02*
X125448683Y-80073200D01*
X125448683Y-80073200D02*
X125382016Y-80106533D01*
X125382016Y-80106533D02*
X125315350Y-80106533D01*
X125315350Y-80106533D02*
X125248683Y-80073200D01*
X125248683Y-80073200D02*
X125215350Y-80039866D01*
X125215350Y-80039866D02*
X125182016Y-79973200D01*
X125182016Y-79973200D02*
X125148683Y-79839866D01*
X125148683Y-79839866D02*
X125148683Y-79673200D01*
X125148683Y-79673200D02*
X125182016Y-79539866D01*
X125182016Y-79539866D02*
X125215350Y-79473200D01*
X125215350Y-79473200D02*
X125248683Y-79439866D01*
X125248683Y-79439866D02*
X125315350Y-79406533D01*
X159482017Y-102389866D02*
X159415350Y-102356533D01*
X159415350Y-102356533D02*
X159315350Y-102356533D01*
X159315350Y-102356533D02*
X159215350Y-102389866D01*
X159215350Y-102389866D02*
X159148684Y-102456533D01*
X159148684Y-102456533D02*
X159115350Y-102523200D01*
X159115350Y-102523200D02*
X159082017Y-102656533D01*
X159082017Y-102656533D02*
X159082017Y-102756533D01*
X159082017Y-102756533D02*
X159115350Y-102889866D01*
X159115350Y-102889866D02*
X159148684Y-102956533D01*
X159148684Y-102956533D02*
X159215350Y-103023200D01*
X159215350Y-103023200D02*
X159315350Y-103056533D01*
X159315350Y-103056533D02*
X159382017Y-103056533D01*
X159382017Y-103056533D02*
X159482017Y-103023200D01*
X159482017Y-103023200D02*
X159515350Y-102989866D01*
X159515350Y-102989866D02*
X159515350Y-102756533D01*
X159515350Y-102756533D02*
X159382017Y-102756533D01*
X159815350Y-103056533D02*
X159815350Y-102356533D01*
X159815350Y-102356533D02*
X160082017Y-102356533D01*
X160082017Y-102356533D02*
X160148684Y-102389866D01*
X160148684Y-102389866D02*
X160182017Y-102423200D01*
X160182017Y-102423200D02*
X160215350Y-102489866D01*
X160215350Y-102489866D02*
X160215350Y-102589866D01*
X160215350Y-102589866D02*
X160182017Y-102656533D01*
X160182017Y-102656533D02*
X160148684Y-102689866D01*
X160148684Y-102689866D02*
X160082017Y-102723200D01*
X160082017Y-102723200D02*
X159815350Y-102723200D01*
X160515350Y-103056533D02*
X160515350Y-102356533D01*
X160982017Y-102356533D02*
X161115350Y-102356533D01*
X161115350Y-102356533D02*
X161182017Y-102389866D01*
X161182017Y-102389866D02*
X161248683Y-102456533D01*
X161248683Y-102456533D02*
X161282017Y-102589866D01*
X161282017Y-102589866D02*
X161282017Y-102823200D01*
X161282017Y-102823200D02*
X161248683Y-102956533D01*
X161248683Y-102956533D02*
X161182017Y-103023200D01*
X161182017Y-103023200D02*
X161115350Y-103056533D01*
X161115350Y-103056533D02*
X160982017Y-103056533D01*
X160982017Y-103056533D02*
X160915350Y-103023200D01*
X160915350Y-103023200D02*
X160848683Y-102956533D01*
X160848683Y-102956533D02*
X160815350Y-102823200D01*
X160815350Y-102823200D02*
X160815350Y-102589866D01*
X160815350Y-102589866D02*
X160848683Y-102456533D01*
X160848683Y-102456533D02*
X160915350Y-102389866D01*
X160915350Y-102389866D02*
X160982017Y-102356533D01*
X161948683Y-103056533D02*
X161548683Y-103056533D01*
X161748683Y-103056533D02*
X161748683Y-102356533D01*
X161748683Y-102356533D02*
X161682016Y-102456533D01*
X161682016Y-102456533D02*
X161615350Y-102523200D01*
X161615350Y-102523200D02*
X161548683Y-102556533D01*
X162282017Y-103056533D02*
X162415350Y-103056533D01*
X162415350Y-103056533D02*
X162482017Y-103023200D01*
X162482017Y-103023200D02*
X162515350Y-102989866D01*
X162515350Y-102989866D02*
X162582017Y-102889866D01*
X162582017Y-102889866D02*
X162615350Y-102756533D01*
X162615350Y-102756533D02*
X162615350Y-102489866D01*
X162615350Y-102489866D02*
X162582017Y-102423200D01*
X162582017Y-102423200D02*
X162548683Y-102389866D01*
X162548683Y-102389866D02*
X162482017Y-102356533D01*
X162482017Y-102356533D02*
X162348683Y-102356533D01*
X162348683Y-102356533D02*
X162282017Y-102389866D01*
X162282017Y-102389866D02*
X162248683Y-102423200D01*
X162248683Y-102423200D02*
X162215350Y-102489866D01*
X162215350Y-102489866D02*
X162215350Y-102656533D01*
X162215350Y-102656533D02*
X162248683Y-102723200D01*
X162248683Y-102723200D02*
X162282017Y-102756533D01*
X162282017Y-102756533D02*
X162348683Y-102789866D01*
X162348683Y-102789866D02*
X162482017Y-102789866D01*
X162482017Y-102789866D02*
X162548683Y-102756533D01*
X162548683Y-102756533D02*
X162582017Y-102723200D01*
X162582017Y-102723200D02*
X162615350Y-102656533D01*
X123082017Y-99839866D02*
X123015350Y-99806533D01*
X123015350Y-99806533D02*
X122915350Y-99806533D01*
X122915350Y-99806533D02*
X122815350Y-99839866D01*
X122815350Y-99839866D02*
X122748684Y-99906533D01*
X122748684Y-99906533D02*
X122715350Y-99973200D01*
X122715350Y-99973200D02*
X122682017Y-100106533D01*
X122682017Y-100106533D02*
X122682017Y-100206533D01*
X122682017Y-100206533D02*
X122715350Y-100339866D01*
X122715350Y-100339866D02*
X122748684Y-100406533D01*
X122748684Y-100406533D02*
X122815350Y-100473200D01*
X122815350Y-100473200D02*
X122915350Y-100506533D01*
X122915350Y-100506533D02*
X122982017Y-100506533D01*
X122982017Y-100506533D02*
X123082017Y-100473200D01*
X123082017Y-100473200D02*
X123115350Y-100439866D01*
X123115350Y-100439866D02*
X123115350Y-100206533D01*
X123115350Y-100206533D02*
X122982017Y-100206533D01*
X123415350Y-100506533D02*
X123415350Y-99806533D01*
X123415350Y-99806533D02*
X123682017Y-99806533D01*
X123682017Y-99806533D02*
X123748684Y-99839866D01*
X123748684Y-99839866D02*
X123782017Y-99873200D01*
X123782017Y-99873200D02*
X123815350Y-99939866D01*
X123815350Y-99939866D02*
X123815350Y-100039866D01*
X123815350Y-100039866D02*
X123782017Y-100106533D01*
X123782017Y-100106533D02*
X123748684Y-100139866D01*
X123748684Y-100139866D02*
X123682017Y-100173200D01*
X123682017Y-100173200D02*
X123415350Y-100173200D01*
X124115350Y-100506533D02*
X124115350Y-99806533D01*
X124582017Y-99806533D02*
X124715350Y-99806533D01*
X124715350Y-99806533D02*
X124782017Y-99839866D01*
X124782017Y-99839866D02*
X124848683Y-99906533D01*
X124848683Y-99906533D02*
X124882017Y-100039866D01*
X124882017Y-100039866D02*
X124882017Y-100273200D01*
X124882017Y-100273200D02*
X124848683Y-100406533D01*
X124848683Y-100406533D02*
X124782017Y-100473200D01*
X124782017Y-100473200D02*
X124715350Y-100506533D01*
X124715350Y-100506533D02*
X124582017Y-100506533D01*
X124582017Y-100506533D02*
X124515350Y-100473200D01*
X124515350Y-100473200D02*
X124448683Y-100406533D01*
X124448683Y-100406533D02*
X124415350Y-100273200D01*
X124415350Y-100273200D02*
X124415350Y-100039866D01*
X124415350Y-100039866D02*
X124448683Y-99906533D01*
X124448683Y-99906533D02*
X124515350Y-99839866D01*
X124515350Y-99839866D02*
X124582017Y-99806533D01*
X125282016Y-100106533D02*
X125215350Y-100073200D01*
X125215350Y-100073200D02*
X125182016Y-100039866D01*
X125182016Y-100039866D02*
X125148683Y-99973200D01*
X125148683Y-99973200D02*
X125148683Y-99939866D01*
X125148683Y-99939866D02*
X125182016Y-99873200D01*
X125182016Y-99873200D02*
X125215350Y-99839866D01*
X125215350Y-99839866D02*
X125282016Y-99806533D01*
X125282016Y-99806533D02*
X125415350Y-99806533D01*
X125415350Y-99806533D02*
X125482016Y-99839866D01*
X125482016Y-99839866D02*
X125515350Y-99873200D01*
X125515350Y-99873200D02*
X125548683Y-99939866D01*
X125548683Y-99939866D02*
X125548683Y-99973200D01*
X125548683Y-99973200D02*
X125515350Y-100039866D01*
X125515350Y-100039866D02*
X125482016Y-100073200D01*
X125482016Y-100073200D02*
X125415350Y-100106533D01*
X125415350Y-100106533D02*
X125282016Y-100106533D01*
X125282016Y-100106533D02*
X125215350Y-100139866D01*
X125215350Y-100139866D02*
X125182016Y-100173200D01*
X125182016Y-100173200D02*
X125148683Y-100239866D01*
X125148683Y-100239866D02*
X125148683Y-100373200D01*
X125148683Y-100373200D02*
X125182016Y-100439866D01*
X125182016Y-100439866D02*
X125215350Y-100473200D01*
X125215350Y-100473200D02*
X125282016Y-100506533D01*
X125282016Y-100506533D02*
X125415350Y-100506533D01*
X125415350Y-100506533D02*
X125482016Y-100473200D01*
X125482016Y-100473200D02*
X125515350Y-100439866D01*
X125515350Y-100439866D02*
X125548683Y-100373200D01*
X125548683Y-100373200D02*
X125548683Y-100239866D01*
X125548683Y-100239866D02*
X125515350Y-100173200D01*
X125515350Y-100173200D02*
X125482016Y-100139866D01*
X125482016Y-100139866D02*
X125415350Y-100106533D01*
X123082017Y-109989866D02*
X123015350Y-109956533D01*
X123015350Y-109956533D02*
X122915350Y-109956533D01*
X122915350Y-109956533D02*
X122815350Y-109989866D01*
X122815350Y-109989866D02*
X122748684Y-110056533D01*
X122748684Y-110056533D02*
X122715350Y-110123200D01*
X122715350Y-110123200D02*
X122682017Y-110256533D01*
X122682017Y-110256533D02*
X122682017Y-110356533D01*
X122682017Y-110356533D02*
X122715350Y-110489866D01*
X122715350Y-110489866D02*
X122748684Y-110556533D01*
X122748684Y-110556533D02*
X122815350Y-110623200D01*
X122815350Y-110623200D02*
X122915350Y-110656533D01*
X122915350Y-110656533D02*
X122982017Y-110656533D01*
X122982017Y-110656533D02*
X123082017Y-110623200D01*
X123082017Y-110623200D02*
X123115350Y-110589866D01*
X123115350Y-110589866D02*
X123115350Y-110356533D01*
X123115350Y-110356533D02*
X122982017Y-110356533D01*
X123415350Y-110656533D02*
X123415350Y-109956533D01*
X123415350Y-109956533D02*
X123682017Y-109956533D01*
X123682017Y-109956533D02*
X123748684Y-109989866D01*
X123748684Y-109989866D02*
X123782017Y-110023200D01*
X123782017Y-110023200D02*
X123815350Y-110089866D01*
X123815350Y-110089866D02*
X123815350Y-110189866D01*
X123815350Y-110189866D02*
X123782017Y-110256533D01*
X123782017Y-110256533D02*
X123748684Y-110289866D01*
X123748684Y-110289866D02*
X123682017Y-110323200D01*
X123682017Y-110323200D02*
X123415350Y-110323200D01*
X124115350Y-110656533D02*
X124115350Y-109956533D01*
X124582017Y-109956533D02*
X124715350Y-109956533D01*
X124715350Y-109956533D02*
X124782017Y-109989866D01*
X124782017Y-109989866D02*
X124848683Y-110056533D01*
X124848683Y-110056533D02*
X124882017Y-110189866D01*
X124882017Y-110189866D02*
X124882017Y-110423200D01*
X124882017Y-110423200D02*
X124848683Y-110556533D01*
X124848683Y-110556533D02*
X124782017Y-110623200D01*
X124782017Y-110623200D02*
X124715350Y-110656533D01*
X124715350Y-110656533D02*
X124582017Y-110656533D01*
X124582017Y-110656533D02*
X124515350Y-110623200D01*
X124515350Y-110623200D02*
X124448683Y-110556533D01*
X124448683Y-110556533D02*
X124415350Y-110423200D01*
X124415350Y-110423200D02*
X124415350Y-110189866D01*
X124415350Y-110189866D02*
X124448683Y-110056533D01*
X124448683Y-110056533D02*
X124515350Y-109989866D01*
X124515350Y-109989866D02*
X124582017Y-109956533D01*
X125548683Y-110656533D02*
X125148683Y-110656533D01*
X125348683Y-110656533D02*
X125348683Y-109956533D01*
X125348683Y-109956533D02*
X125282016Y-110056533D01*
X125282016Y-110056533D02*
X125215350Y-110123200D01*
X125215350Y-110123200D02*
X125148683Y-110156533D01*
X125815350Y-110023200D02*
X125848683Y-109989866D01*
X125848683Y-109989866D02*
X125915350Y-109956533D01*
X125915350Y-109956533D02*
X126082017Y-109956533D01*
X126082017Y-109956533D02*
X126148683Y-109989866D01*
X126148683Y-109989866D02*
X126182017Y-110023200D01*
X126182017Y-110023200D02*
X126215350Y-110089866D01*
X126215350Y-110089866D02*
X126215350Y-110156533D01*
X126215350Y-110156533D02*
X126182017Y-110256533D01*
X126182017Y-110256533D02*
X125782017Y-110656533D01*
X125782017Y-110656533D02*
X126215350Y-110656533D01*
X162473200Y-116067982D02*
X162506533Y-115967982D01*
X162506533Y-115967982D02*
X162506533Y-115801316D01*
X162506533Y-115801316D02*
X162473200Y-115734649D01*
X162473200Y-115734649D02*
X162439866Y-115701316D01*
X162439866Y-115701316D02*
X162373200Y-115667982D01*
X162373200Y-115667982D02*
X162306533Y-115667982D01*
X162306533Y-115667982D02*
X162239866Y-115701316D01*
X162239866Y-115701316D02*
X162206533Y-115734649D01*
X162206533Y-115734649D02*
X162173200Y-115801316D01*
X162173200Y-115801316D02*
X162139866Y-115934649D01*
X162139866Y-115934649D02*
X162106533Y-116001316D01*
X162106533Y-116001316D02*
X162073200Y-116034649D01*
X162073200Y-116034649D02*
X162006533Y-116067982D01*
X162006533Y-116067982D02*
X161939866Y-116067982D01*
X161939866Y-116067982D02*
X161873200Y-116034649D01*
X161873200Y-116034649D02*
X161839866Y-116001316D01*
X161839866Y-116001316D02*
X161806533Y-115934649D01*
X161806533Y-115934649D02*
X161806533Y-115767982D01*
X161806533Y-115767982D02*
X161839866Y-115667982D01*
X161806533Y-115434649D02*
X162506533Y-115267982D01*
X162506533Y-115267982D02*
X162006533Y-115134649D01*
X162006533Y-115134649D02*
X162506533Y-115001315D01*
X162506533Y-115001315D02*
X161806533Y-114834649D01*
X162506533Y-114567982D02*
X161806533Y-114567982D01*
X161806533Y-114567982D02*
X161806533Y-114401315D01*
X161806533Y-114401315D02*
X161839866Y-114301315D01*
X161839866Y-114301315D02*
X161906533Y-114234649D01*
X161906533Y-114234649D02*
X161973200Y-114201315D01*
X161973200Y-114201315D02*
X162106533Y-114167982D01*
X162106533Y-114167982D02*
X162206533Y-114167982D01*
X162206533Y-114167982D02*
X162339866Y-114201315D01*
X162339866Y-114201315D02*
X162406533Y-114234649D01*
X162406533Y-114234649D02*
X162473200Y-114301315D01*
X162473200Y-114301315D02*
X162506533Y-114401315D01*
X162506533Y-114401315D02*
X162506533Y-114567982D01*
X123082017Y-82189866D02*
X123015350Y-82156533D01*
X123015350Y-82156533D02*
X122915350Y-82156533D01*
X122915350Y-82156533D02*
X122815350Y-82189866D01*
X122815350Y-82189866D02*
X122748684Y-82256533D01*
X122748684Y-82256533D02*
X122715350Y-82323200D01*
X122715350Y-82323200D02*
X122682017Y-82456533D01*
X122682017Y-82456533D02*
X122682017Y-82556533D01*
X122682017Y-82556533D02*
X122715350Y-82689866D01*
X122715350Y-82689866D02*
X122748684Y-82756533D01*
X122748684Y-82756533D02*
X122815350Y-82823200D01*
X122815350Y-82823200D02*
X122915350Y-82856533D01*
X122915350Y-82856533D02*
X122982017Y-82856533D01*
X122982017Y-82856533D02*
X123082017Y-82823200D01*
X123082017Y-82823200D02*
X123115350Y-82789866D01*
X123115350Y-82789866D02*
X123115350Y-82556533D01*
X123115350Y-82556533D02*
X122982017Y-82556533D01*
X123415350Y-82856533D02*
X123415350Y-82156533D01*
X123415350Y-82156533D02*
X123682017Y-82156533D01*
X123682017Y-82156533D02*
X123748684Y-82189866D01*
X123748684Y-82189866D02*
X123782017Y-82223200D01*
X123782017Y-82223200D02*
X123815350Y-82289866D01*
X123815350Y-82289866D02*
X123815350Y-82389866D01*
X123815350Y-82389866D02*
X123782017Y-82456533D01*
X123782017Y-82456533D02*
X123748684Y-82489866D01*
X123748684Y-82489866D02*
X123682017Y-82523200D01*
X123682017Y-82523200D02*
X123415350Y-82523200D01*
X124115350Y-82856533D02*
X124115350Y-82156533D01*
X124582017Y-82156533D02*
X124715350Y-82156533D01*
X124715350Y-82156533D02*
X124782017Y-82189866D01*
X124782017Y-82189866D02*
X124848683Y-82256533D01*
X124848683Y-82256533D02*
X124882017Y-82389866D01*
X124882017Y-82389866D02*
X124882017Y-82623200D01*
X124882017Y-82623200D02*
X124848683Y-82756533D01*
X124848683Y-82756533D02*
X124782017Y-82823200D01*
X124782017Y-82823200D02*
X124715350Y-82856533D01*
X124715350Y-82856533D02*
X124582017Y-82856533D01*
X124582017Y-82856533D02*
X124515350Y-82823200D01*
X124515350Y-82823200D02*
X124448683Y-82756533D01*
X124448683Y-82756533D02*
X124415350Y-82623200D01*
X124415350Y-82623200D02*
X124415350Y-82389866D01*
X124415350Y-82389866D02*
X124448683Y-82256533D01*
X124448683Y-82256533D02*
X124515350Y-82189866D01*
X124515350Y-82189866D02*
X124582017Y-82156533D01*
X125548683Y-82856533D02*
X125148683Y-82856533D01*
X125348683Y-82856533D02*
X125348683Y-82156533D01*
X125348683Y-82156533D02*
X125282016Y-82256533D01*
X125282016Y-82256533D02*
X125215350Y-82323200D01*
X125215350Y-82323200D02*
X125148683Y-82356533D01*
X159482017Y-109939866D02*
X159415350Y-109906533D01*
X159415350Y-109906533D02*
X159315350Y-109906533D01*
X159315350Y-109906533D02*
X159215350Y-109939866D01*
X159215350Y-109939866D02*
X159148684Y-110006533D01*
X159148684Y-110006533D02*
X159115350Y-110073200D01*
X159115350Y-110073200D02*
X159082017Y-110206533D01*
X159082017Y-110206533D02*
X159082017Y-110306533D01*
X159082017Y-110306533D02*
X159115350Y-110439866D01*
X159115350Y-110439866D02*
X159148684Y-110506533D01*
X159148684Y-110506533D02*
X159215350Y-110573200D01*
X159215350Y-110573200D02*
X159315350Y-110606533D01*
X159315350Y-110606533D02*
X159382017Y-110606533D01*
X159382017Y-110606533D02*
X159482017Y-110573200D01*
X159482017Y-110573200D02*
X159515350Y-110539866D01*
X159515350Y-110539866D02*
X159515350Y-110306533D01*
X159515350Y-110306533D02*
X159382017Y-110306533D01*
X159815350Y-110606533D02*
X159815350Y-109906533D01*
X159815350Y-109906533D02*
X160082017Y-109906533D01*
X160082017Y-109906533D02*
X160148684Y-109939866D01*
X160148684Y-109939866D02*
X160182017Y-109973200D01*
X160182017Y-109973200D02*
X160215350Y-110039866D01*
X160215350Y-110039866D02*
X160215350Y-110139866D01*
X160215350Y-110139866D02*
X160182017Y-110206533D01*
X160182017Y-110206533D02*
X160148684Y-110239866D01*
X160148684Y-110239866D02*
X160082017Y-110273200D01*
X160082017Y-110273200D02*
X159815350Y-110273200D01*
X160515350Y-110606533D02*
X160515350Y-109906533D01*
X160982017Y-109906533D02*
X161115350Y-109906533D01*
X161115350Y-109906533D02*
X161182017Y-109939866D01*
X161182017Y-109939866D02*
X161248683Y-110006533D01*
X161248683Y-110006533D02*
X161282017Y-110139866D01*
X161282017Y-110139866D02*
X161282017Y-110373200D01*
X161282017Y-110373200D02*
X161248683Y-110506533D01*
X161248683Y-110506533D02*
X161182017Y-110573200D01*
X161182017Y-110573200D02*
X161115350Y-110606533D01*
X161115350Y-110606533D02*
X160982017Y-110606533D01*
X160982017Y-110606533D02*
X160915350Y-110573200D01*
X160915350Y-110573200D02*
X160848683Y-110506533D01*
X160848683Y-110506533D02*
X160815350Y-110373200D01*
X160815350Y-110373200D02*
X160815350Y-110139866D01*
X160815350Y-110139866D02*
X160848683Y-110006533D01*
X160848683Y-110006533D02*
X160915350Y-109939866D01*
X160915350Y-109939866D02*
X160982017Y-109906533D01*
X161948683Y-110606533D02*
X161548683Y-110606533D01*
X161748683Y-110606533D02*
X161748683Y-109906533D01*
X161748683Y-109906533D02*
X161682016Y-110006533D01*
X161682016Y-110006533D02*
X161615350Y-110073200D01*
X161615350Y-110073200D02*
X161548683Y-110106533D01*
X162548683Y-109906533D02*
X162415350Y-109906533D01*
X162415350Y-109906533D02*
X162348683Y-109939866D01*
X162348683Y-109939866D02*
X162315350Y-109973200D01*
X162315350Y-109973200D02*
X162248683Y-110073200D01*
X162248683Y-110073200D02*
X162215350Y-110206533D01*
X162215350Y-110206533D02*
X162215350Y-110473200D01*
X162215350Y-110473200D02*
X162248683Y-110539866D01*
X162248683Y-110539866D02*
X162282017Y-110573200D01*
X162282017Y-110573200D02*
X162348683Y-110606533D01*
X162348683Y-110606533D02*
X162482017Y-110606533D01*
X162482017Y-110606533D02*
X162548683Y-110573200D01*
X162548683Y-110573200D02*
X162582017Y-110539866D01*
X162582017Y-110539866D02*
X162615350Y-110473200D01*
X162615350Y-110473200D02*
X162615350Y-110306533D01*
X162615350Y-110306533D02*
X162582017Y-110239866D01*
X162582017Y-110239866D02*
X162548683Y-110206533D01*
X162548683Y-110206533D02*
X162482017Y-110173200D01*
X162482017Y-110173200D02*
X162348683Y-110173200D01*
X162348683Y-110173200D02*
X162282017Y-110206533D01*
X162282017Y-110206533D02*
X162248683Y-110239866D01*
X162248683Y-110239866D02*
X162215350Y-110306533D01*
X159482017Y-94839866D02*
X159415350Y-94806533D01*
X159415350Y-94806533D02*
X159315350Y-94806533D01*
X159315350Y-94806533D02*
X159215350Y-94839866D01*
X159215350Y-94839866D02*
X159148684Y-94906533D01*
X159148684Y-94906533D02*
X159115350Y-94973200D01*
X159115350Y-94973200D02*
X159082017Y-95106533D01*
X159082017Y-95106533D02*
X159082017Y-95206533D01*
X159082017Y-95206533D02*
X159115350Y-95339866D01*
X159115350Y-95339866D02*
X159148684Y-95406533D01*
X159148684Y-95406533D02*
X159215350Y-95473200D01*
X159215350Y-95473200D02*
X159315350Y-95506533D01*
X159315350Y-95506533D02*
X159382017Y-95506533D01*
X159382017Y-95506533D02*
X159482017Y-95473200D01*
X159482017Y-95473200D02*
X159515350Y-95439866D01*
X159515350Y-95439866D02*
X159515350Y-95206533D01*
X159515350Y-95206533D02*
X159382017Y-95206533D01*
X159815350Y-95506533D02*
X159815350Y-94806533D01*
X159815350Y-94806533D02*
X160082017Y-94806533D01*
X160082017Y-94806533D02*
X160148684Y-94839866D01*
X160148684Y-94839866D02*
X160182017Y-94873200D01*
X160182017Y-94873200D02*
X160215350Y-94939866D01*
X160215350Y-94939866D02*
X160215350Y-95039866D01*
X160215350Y-95039866D02*
X160182017Y-95106533D01*
X160182017Y-95106533D02*
X160148684Y-95139866D01*
X160148684Y-95139866D02*
X160082017Y-95173200D01*
X160082017Y-95173200D02*
X159815350Y-95173200D01*
X160515350Y-95506533D02*
X160515350Y-94806533D01*
X160982017Y-94806533D02*
X161115350Y-94806533D01*
X161115350Y-94806533D02*
X161182017Y-94839866D01*
X161182017Y-94839866D02*
X161248683Y-94906533D01*
X161248683Y-94906533D02*
X161282017Y-95039866D01*
X161282017Y-95039866D02*
X161282017Y-95273200D01*
X161282017Y-95273200D02*
X161248683Y-95406533D01*
X161248683Y-95406533D02*
X161182017Y-95473200D01*
X161182017Y-95473200D02*
X161115350Y-95506533D01*
X161115350Y-95506533D02*
X160982017Y-95506533D01*
X160982017Y-95506533D02*
X160915350Y-95473200D01*
X160915350Y-95473200D02*
X160848683Y-95406533D01*
X160848683Y-95406533D02*
X160815350Y-95273200D01*
X160815350Y-95273200D02*
X160815350Y-95039866D01*
X160815350Y-95039866D02*
X160848683Y-94906533D01*
X160848683Y-94906533D02*
X160915350Y-94839866D01*
X160915350Y-94839866D02*
X160982017Y-94806533D01*
X161548683Y-94873200D02*
X161582016Y-94839866D01*
X161582016Y-94839866D02*
X161648683Y-94806533D01*
X161648683Y-94806533D02*
X161815350Y-94806533D01*
X161815350Y-94806533D02*
X161882016Y-94839866D01*
X161882016Y-94839866D02*
X161915350Y-94873200D01*
X161915350Y-94873200D02*
X161948683Y-94939866D01*
X161948683Y-94939866D02*
X161948683Y-95006533D01*
X161948683Y-95006533D02*
X161915350Y-95106533D01*
X161915350Y-95106533D02*
X161515350Y-95506533D01*
X161515350Y-95506533D02*
X161948683Y-95506533D01*
X162215350Y-94873200D02*
X162248683Y-94839866D01*
X162248683Y-94839866D02*
X162315350Y-94806533D01*
X162315350Y-94806533D02*
X162482017Y-94806533D01*
X162482017Y-94806533D02*
X162548683Y-94839866D01*
X162548683Y-94839866D02*
X162582017Y-94873200D01*
X162582017Y-94873200D02*
X162615350Y-94939866D01*
X162615350Y-94939866D02*
X162615350Y-95006533D01*
X162615350Y-95006533D02*
X162582017Y-95106533D01*
X162582017Y-95106533D02*
X162182017Y-95506533D01*
X162182017Y-95506533D02*
X162615350Y-95506533D01*
X159482017Y-89739866D02*
X159415350Y-89706533D01*
X159415350Y-89706533D02*
X159315350Y-89706533D01*
X159315350Y-89706533D02*
X159215350Y-89739866D01*
X159215350Y-89739866D02*
X159148684Y-89806533D01*
X159148684Y-89806533D02*
X159115350Y-89873200D01*
X159115350Y-89873200D02*
X159082017Y-90006533D01*
X159082017Y-90006533D02*
X159082017Y-90106533D01*
X159082017Y-90106533D02*
X159115350Y-90239866D01*
X159115350Y-90239866D02*
X159148684Y-90306533D01*
X159148684Y-90306533D02*
X159215350Y-90373200D01*
X159215350Y-90373200D02*
X159315350Y-90406533D01*
X159315350Y-90406533D02*
X159382017Y-90406533D01*
X159382017Y-90406533D02*
X159482017Y-90373200D01*
X159482017Y-90373200D02*
X159515350Y-90339866D01*
X159515350Y-90339866D02*
X159515350Y-90106533D01*
X159515350Y-90106533D02*
X159382017Y-90106533D01*
X159815350Y-90406533D02*
X159815350Y-89706533D01*
X159815350Y-89706533D02*
X160082017Y-89706533D01*
X160082017Y-89706533D02*
X160148684Y-89739866D01*
X160148684Y-89739866D02*
X160182017Y-89773200D01*
X160182017Y-89773200D02*
X160215350Y-89839866D01*
X160215350Y-89839866D02*
X160215350Y-89939866D01*
X160215350Y-89939866D02*
X160182017Y-90006533D01*
X160182017Y-90006533D02*
X160148684Y-90039866D01*
X160148684Y-90039866D02*
X160082017Y-90073200D01*
X160082017Y-90073200D02*
X159815350Y-90073200D01*
X160515350Y-90406533D02*
X160515350Y-89706533D01*
X160982017Y-89706533D02*
X161115350Y-89706533D01*
X161115350Y-89706533D02*
X161182017Y-89739866D01*
X161182017Y-89739866D02*
X161248683Y-89806533D01*
X161248683Y-89806533D02*
X161282017Y-89939866D01*
X161282017Y-89939866D02*
X161282017Y-90173200D01*
X161282017Y-90173200D02*
X161248683Y-90306533D01*
X161248683Y-90306533D02*
X161182017Y-90373200D01*
X161182017Y-90373200D02*
X161115350Y-90406533D01*
X161115350Y-90406533D02*
X160982017Y-90406533D01*
X160982017Y-90406533D02*
X160915350Y-90373200D01*
X160915350Y-90373200D02*
X160848683Y-90306533D01*
X160848683Y-90306533D02*
X160815350Y-90173200D01*
X160815350Y-90173200D02*
X160815350Y-89939866D01*
X160815350Y-89939866D02*
X160848683Y-89806533D01*
X160848683Y-89806533D02*
X160915350Y-89739866D01*
X160915350Y-89739866D02*
X160982017Y-89706533D01*
X161548683Y-89773200D02*
X161582016Y-89739866D01*
X161582016Y-89739866D02*
X161648683Y-89706533D01*
X161648683Y-89706533D02*
X161815350Y-89706533D01*
X161815350Y-89706533D02*
X161882016Y-89739866D01*
X161882016Y-89739866D02*
X161915350Y-89773200D01*
X161915350Y-89773200D02*
X161948683Y-89839866D01*
X161948683Y-89839866D02*
X161948683Y-89906533D01*
X161948683Y-89906533D02*
X161915350Y-90006533D01*
X161915350Y-90006533D02*
X161515350Y-90406533D01*
X161515350Y-90406533D02*
X161948683Y-90406533D01*
X162548683Y-89939866D02*
X162548683Y-90406533D01*
X162382017Y-89673200D02*
X162215350Y-90173200D01*
X162215350Y-90173200D02*
X162648683Y-90173200D01*
X122648684Y-77056533D02*
X123082017Y-77056533D01*
X123082017Y-77056533D02*
X122848684Y-77323200D01*
X122848684Y-77323200D02*
X122948684Y-77323200D01*
X122948684Y-77323200D02*
X123015350Y-77356533D01*
X123015350Y-77356533D02*
X123048684Y-77389866D01*
X123048684Y-77389866D02*
X123082017Y-77456533D01*
X123082017Y-77456533D02*
X123082017Y-77623200D01*
X123082017Y-77623200D02*
X123048684Y-77689866D01*
X123048684Y-77689866D02*
X123015350Y-77723200D01*
X123015350Y-77723200D02*
X122948684Y-77756533D01*
X122948684Y-77756533D02*
X122748684Y-77756533D01*
X122748684Y-77756533D02*
X122682017Y-77723200D01*
X122682017Y-77723200D02*
X122648684Y-77689866D01*
X123382017Y-77689866D02*
X123415351Y-77723200D01*
X123415351Y-77723200D02*
X123382017Y-77756533D01*
X123382017Y-77756533D02*
X123348684Y-77723200D01*
X123348684Y-77723200D02*
X123382017Y-77689866D01*
X123382017Y-77689866D02*
X123382017Y-77756533D01*
X123648684Y-77056533D02*
X124082017Y-77056533D01*
X124082017Y-77056533D02*
X123848684Y-77323200D01*
X123848684Y-77323200D02*
X123948684Y-77323200D01*
X123948684Y-77323200D02*
X124015350Y-77356533D01*
X124015350Y-77356533D02*
X124048684Y-77389866D01*
X124048684Y-77389866D02*
X124082017Y-77456533D01*
X124082017Y-77456533D02*
X124082017Y-77623200D01*
X124082017Y-77623200D02*
X124048684Y-77689866D01*
X124048684Y-77689866D02*
X124015350Y-77723200D01*
X124015350Y-77723200D02*
X123948684Y-77756533D01*
X123948684Y-77756533D02*
X123748684Y-77756533D01*
X123748684Y-77756533D02*
X123682017Y-77723200D01*
X123682017Y-77723200D02*
X123648684Y-77689866D01*
X124282017Y-77056533D02*
X124515351Y-77756533D01*
X124515351Y-77756533D02*
X124748684Y-77056533D01*
X123082017Y-94739866D02*
X123015350Y-94706533D01*
X123015350Y-94706533D02*
X122915350Y-94706533D01*
X122915350Y-94706533D02*
X122815350Y-94739866D01*
X122815350Y-94739866D02*
X122748684Y-94806533D01*
X122748684Y-94806533D02*
X122715350Y-94873200D01*
X122715350Y-94873200D02*
X122682017Y-95006533D01*
X122682017Y-95006533D02*
X122682017Y-95106533D01*
X122682017Y-95106533D02*
X122715350Y-95239866D01*
X122715350Y-95239866D02*
X122748684Y-95306533D01*
X122748684Y-95306533D02*
X122815350Y-95373200D01*
X122815350Y-95373200D02*
X122915350Y-95406533D01*
X122915350Y-95406533D02*
X122982017Y-95406533D01*
X122982017Y-95406533D02*
X123082017Y-95373200D01*
X123082017Y-95373200D02*
X123115350Y-95339866D01*
X123115350Y-95339866D02*
X123115350Y-95106533D01*
X123115350Y-95106533D02*
X122982017Y-95106533D01*
X123415350Y-95406533D02*
X123415350Y-94706533D01*
X123415350Y-94706533D02*
X123682017Y-94706533D01*
X123682017Y-94706533D02*
X123748684Y-94739866D01*
X123748684Y-94739866D02*
X123782017Y-94773200D01*
X123782017Y-94773200D02*
X123815350Y-94839866D01*
X123815350Y-94839866D02*
X123815350Y-94939866D01*
X123815350Y-94939866D02*
X123782017Y-95006533D01*
X123782017Y-95006533D02*
X123748684Y-95039866D01*
X123748684Y-95039866D02*
X123682017Y-95073200D01*
X123682017Y-95073200D02*
X123415350Y-95073200D01*
X124115350Y-95406533D02*
X124115350Y-94706533D01*
X124582017Y-94706533D02*
X124715350Y-94706533D01*
X124715350Y-94706533D02*
X124782017Y-94739866D01*
X124782017Y-94739866D02*
X124848683Y-94806533D01*
X124848683Y-94806533D02*
X124882017Y-94939866D01*
X124882017Y-94939866D02*
X124882017Y-95173200D01*
X124882017Y-95173200D02*
X124848683Y-95306533D01*
X124848683Y-95306533D02*
X124782017Y-95373200D01*
X124782017Y-95373200D02*
X124715350Y-95406533D01*
X124715350Y-95406533D02*
X124582017Y-95406533D01*
X124582017Y-95406533D02*
X124515350Y-95373200D01*
X124515350Y-95373200D02*
X124448683Y-95306533D01*
X124448683Y-95306533D02*
X124415350Y-95173200D01*
X124415350Y-95173200D02*
X124415350Y-94939866D01*
X124415350Y-94939866D02*
X124448683Y-94806533D01*
X124448683Y-94806533D02*
X124515350Y-94739866D01*
X124515350Y-94739866D02*
X124582017Y-94706533D01*
X125482016Y-94706533D02*
X125348683Y-94706533D01*
X125348683Y-94706533D02*
X125282016Y-94739866D01*
X125282016Y-94739866D02*
X125248683Y-94773200D01*
X125248683Y-94773200D02*
X125182016Y-94873200D01*
X125182016Y-94873200D02*
X125148683Y-95006533D01*
X125148683Y-95006533D02*
X125148683Y-95273200D01*
X125148683Y-95273200D02*
X125182016Y-95339866D01*
X125182016Y-95339866D02*
X125215350Y-95373200D01*
X125215350Y-95373200D02*
X125282016Y-95406533D01*
X125282016Y-95406533D02*
X125415350Y-95406533D01*
X125415350Y-95406533D02*
X125482016Y-95373200D01*
X125482016Y-95373200D02*
X125515350Y-95339866D01*
X125515350Y-95339866D02*
X125548683Y-95273200D01*
X125548683Y-95273200D02*
X125548683Y-95106533D01*
X125548683Y-95106533D02*
X125515350Y-95039866D01*
X125515350Y-95039866D02*
X125482016Y-95006533D01*
X125482016Y-95006533D02*
X125415350Y-94973200D01*
X125415350Y-94973200D02*
X125282016Y-94973200D01*
X125282016Y-94973200D02*
X125215350Y-95006533D01*
X125215350Y-95006533D02*
X125182016Y-95039866D01*
X125182016Y-95039866D02*
X125148683Y-95106533D01*
X123082017Y-92189866D02*
X123015350Y-92156533D01*
X123015350Y-92156533D02*
X122915350Y-92156533D01*
X122915350Y-92156533D02*
X122815350Y-92189866D01*
X122815350Y-92189866D02*
X122748684Y-92256533D01*
X122748684Y-92256533D02*
X122715350Y-92323200D01*
X122715350Y-92323200D02*
X122682017Y-92456533D01*
X122682017Y-92456533D02*
X122682017Y-92556533D01*
X122682017Y-92556533D02*
X122715350Y-92689866D01*
X122715350Y-92689866D02*
X122748684Y-92756533D01*
X122748684Y-92756533D02*
X122815350Y-92823200D01*
X122815350Y-92823200D02*
X122915350Y-92856533D01*
X122915350Y-92856533D02*
X122982017Y-92856533D01*
X122982017Y-92856533D02*
X123082017Y-92823200D01*
X123082017Y-92823200D02*
X123115350Y-92789866D01*
X123115350Y-92789866D02*
X123115350Y-92556533D01*
X123115350Y-92556533D02*
X122982017Y-92556533D01*
X123415350Y-92856533D02*
X123415350Y-92156533D01*
X123415350Y-92156533D02*
X123682017Y-92156533D01*
X123682017Y-92156533D02*
X123748684Y-92189866D01*
X123748684Y-92189866D02*
X123782017Y-92223200D01*
X123782017Y-92223200D02*
X123815350Y-92289866D01*
X123815350Y-92289866D02*
X123815350Y-92389866D01*
X123815350Y-92389866D02*
X123782017Y-92456533D01*
X123782017Y-92456533D02*
X123748684Y-92489866D01*
X123748684Y-92489866D02*
X123682017Y-92523200D01*
X123682017Y-92523200D02*
X123415350Y-92523200D01*
X124115350Y-92856533D02*
X124115350Y-92156533D01*
X124582017Y-92156533D02*
X124715350Y-92156533D01*
X124715350Y-92156533D02*
X124782017Y-92189866D01*
X124782017Y-92189866D02*
X124848683Y-92256533D01*
X124848683Y-92256533D02*
X124882017Y-92389866D01*
X124882017Y-92389866D02*
X124882017Y-92623200D01*
X124882017Y-92623200D02*
X124848683Y-92756533D01*
X124848683Y-92756533D02*
X124782017Y-92823200D01*
X124782017Y-92823200D02*
X124715350Y-92856533D01*
X124715350Y-92856533D02*
X124582017Y-92856533D01*
X124582017Y-92856533D02*
X124515350Y-92823200D01*
X124515350Y-92823200D02*
X124448683Y-92756533D01*
X124448683Y-92756533D02*
X124415350Y-92623200D01*
X124415350Y-92623200D02*
X124415350Y-92389866D01*
X124415350Y-92389866D02*
X124448683Y-92256533D01*
X124448683Y-92256533D02*
X124515350Y-92189866D01*
X124515350Y-92189866D02*
X124582017Y-92156533D01*
X125515350Y-92156533D02*
X125182016Y-92156533D01*
X125182016Y-92156533D02*
X125148683Y-92489866D01*
X125148683Y-92489866D02*
X125182016Y-92456533D01*
X125182016Y-92456533D02*
X125248683Y-92423200D01*
X125248683Y-92423200D02*
X125415350Y-92423200D01*
X125415350Y-92423200D02*
X125482016Y-92456533D01*
X125482016Y-92456533D02*
X125515350Y-92489866D01*
X125515350Y-92489866D02*
X125548683Y-92556533D01*
X125548683Y-92556533D02*
X125548683Y-92723200D01*
X125548683Y-92723200D02*
X125515350Y-92789866D01*
X125515350Y-92789866D02*
X125482016Y-92823200D01*
X125482016Y-92823200D02*
X125415350Y-92856533D01*
X125415350Y-92856533D02*
X125248683Y-92856533D01*
X125248683Y-92856533D02*
X125182016Y-92823200D01*
X125182016Y-92823200D02*
X125148683Y-92789866D01*
X159482017Y-99939866D02*
X159415350Y-99906533D01*
X159415350Y-99906533D02*
X159315350Y-99906533D01*
X159315350Y-99906533D02*
X159215350Y-99939866D01*
X159215350Y-99939866D02*
X159148684Y-100006533D01*
X159148684Y-100006533D02*
X159115350Y-100073200D01*
X159115350Y-100073200D02*
X159082017Y-100206533D01*
X159082017Y-100206533D02*
X159082017Y-100306533D01*
X159082017Y-100306533D02*
X159115350Y-100439866D01*
X159115350Y-100439866D02*
X159148684Y-100506533D01*
X159148684Y-100506533D02*
X159215350Y-100573200D01*
X159215350Y-100573200D02*
X159315350Y-100606533D01*
X159315350Y-100606533D02*
X159382017Y-100606533D01*
X159382017Y-100606533D02*
X159482017Y-100573200D01*
X159482017Y-100573200D02*
X159515350Y-100539866D01*
X159515350Y-100539866D02*
X159515350Y-100306533D01*
X159515350Y-100306533D02*
X159382017Y-100306533D01*
X159815350Y-100606533D02*
X159815350Y-99906533D01*
X159815350Y-99906533D02*
X160082017Y-99906533D01*
X160082017Y-99906533D02*
X160148684Y-99939866D01*
X160148684Y-99939866D02*
X160182017Y-99973200D01*
X160182017Y-99973200D02*
X160215350Y-100039866D01*
X160215350Y-100039866D02*
X160215350Y-100139866D01*
X160215350Y-100139866D02*
X160182017Y-100206533D01*
X160182017Y-100206533D02*
X160148684Y-100239866D01*
X160148684Y-100239866D02*
X160082017Y-100273200D01*
X160082017Y-100273200D02*
X159815350Y-100273200D01*
X160515350Y-100606533D02*
X160515350Y-99906533D01*
X160982017Y-99906533D02*
X161115350Y-99906533D01*
X161115350Y-99906533D02*
X161182017Y-99939866D01*
X161182017Y-99939866D02*
X161248683Y-100006533D01*
X161248683Y-100006533D02*
X161282017Y-100139866D01*
X161282017Y-100139866D02*
X161282017Y-100373200D01*
X161282017Y-100373200D02*
X161248683Y-100506533D01*
X161248683Y-100506533D02*
X161182017Y-100573200D01*
X161182017Y-100573200D02*
X161115350Y-100606533D01*
X161115350Y-100606533D02*
X160982017Y-100606533D01*
X160982017Y-100606533D02*
X160915350Y-100573200D01*
X160915350Y-100573200D02*
X160848683Y-100506533D01*
X160848683Y-100506533D02*
X160815350Y-100373200D01*
X160815350Y-100373200D02*
X160815350Y-100139866D01*
X160815350Y-100139866D02*
X160848683Y-100006533D01*
X160848683Y-100006533D02*
X160915350Y-99939866D01*
X160915350Y-99939866D02*
X160982017Y-99906533D01*
X161548683Y-99973200D02*
X161582016Y-99939866D01*
X161582016Y-99939866D02*
X161648683Y-99906533D01*
X161648683Y-99906533D02*
X161815350Y-99906533D01*
X161815350Y-99906533D02*
X161882016Y-99939866D01*
X161882016Y-99939866D02*
X161915350Y-99973200D01*
X161915350Y-99973200D02*
X161948683Y-100039866D01*
X161948683Y-100039866D02*
X161948683Y-100106533D01*
X161948683Y-100106533D02*
X161915350Y-100206533D01*
X161915350Y-100206533D02*
X161515350Y-100606533D01*
X161515350Y-100606533D02*
X161948683Y-100606533D01*
X162382017Y-99906533D02*
X162448683Y-99906533D01*
X162448683Y-99906533D02*
X162515350Y-99939866D01*
X162515350Y-99939866D02*
X162548683Y-99973200D01*
X162548683Y-99973200D02*
X162582017Y-100039866D01*
X162582017Y-100039866D02*
X162615350Y-100173200D01*
X162615350Y-100173200D02*
X162615350Y-100339866D01*
X162615350Y-100339866D02*
X162582017Y-100473200D01*
X162582017Y-100473200D02*
X162548683Y-100539866D01*
X162548683Y-100539866D02*
X162515350Y-100573200D01*
X162515350Y-100573200D02*
X162448683Y-100606533D01*
X162448683Y-100606533D02*
X162382017Y-100606533D01*
X162382017Y-100606533D02*
X162315350Y-100573200D01*
X162315350Y-100573200D02*
X162282017Y-100539866D01*
X162282017Y-100539866D02*
X162248683Y-100473200D01*
X162248683Y-100473200D02*
X162215350Y-100339866D01*
X162215350Y-100339866D02*
X162215350Y-100173200D01*
X162215350Y-100173200D02*
X162248683Y-100039866D01*
X162248683Y-100039866D02*
X162282017Y-99973200D01*
X162282017Y-99973200D02*
X162315350Y-99939866D01*
X162315350Y-99939866D02*
X162382017Y-99906533D01*
X159482017Y-97439866D02*
X159415350Y-97406533D01*
X159415350Y-97406533D02*
X159315350Y-97406533D01*
X159315350Y-97406533D02*
X159215350Y-97439866D01*
X159215350Y-97439866D02*
X159148684Y-97506533D01*
X159148684Y-97506533D02*
X159115350Y-97573200D01*
X159115350Y-97573200D02*
X159082017Y-97706533D01*
X159082017Y-97706533D02*
X159082017Y-97806533D01*
X159082017Y-97806533D02*
X159115350Y-97939866D01*
X159115350Y-97939866D02*
X159148684Y-98006533D01*
X159148684Y-98006533D02*
X159215350Y-98073200D01*
X159215350Y-98073200D02*
X159315350Y-98106533D01*
X159315350Y-98106533D02*
X159382017Y-98106533D01*
X159382017Y-98106533D02*
X159482017Y-98073200D01*
X159482017Y-98073200D02*
X159515350Y-98039866D01*
X159515350Y-98039866D02*
X159515350Y-97806533D01*
X159515350Y-97806533D02*
X159382017Y-97806533D01*
X159815350Y-98106533D02*
X159815350Y-97406533D01*
X159815350Y-97406533D02*
X160082017Y-97406533D01*
X160082017Y-97406533D02*
X160148684Y-97439866D01*
X160148684Y-97439866D02*
X160182017Y-97473200D01*
X160182017Y-97473200D02*
X160215350Y-97539866D01*
X160215350Y-97539866D02*
X160215350Y-97639866D01*
X160215350Y-97639866D02*
X160182017Y-97706533D01*
X160182017Y-97706533D02*
X160148684Y-97739866D01*
X160148684Y-97739866D02*
X160082017Y-97773200D01*
X160082017Y-97773200D02*
X159815350Y-97773200D01*
X160515350Y-98106533D02*
X160515350Y-97406533D01*
X160982017Y-97406533D02*
X161115350Y-97406533D01*
X161115350Y-97406533D02*
X161182017Y-97439866D01*
X161182017Y-97439866D02*
X161248683Y-97506533D01*
X161248683Y-97506533D02*
X161282017Y-97639866D01*
X161282017Y-97639866D02*
X161282017Y-97873200D01*
X161282017Y-97873200D02*
X161248683Y-98006533D01*
X161248683Y-98006533D02*
X161182017Y-98073200D01*
X161182017Y-98073200D02*
X161115350Y-98106533D01*
X161115350Y-98106533D02*
X160982017Y-98106533D01*
X160982017Y-98106533D02*
X160915350Y-98073200D01*
X160915350Y-98073200D02*
X160848683Y-98006533D01*
X160848683Y-98006533D02*
X160815350Y-97873200D01*
X160815350Y-97873200D02*
X160815350Y-97639866D01*
X160815350Y-97639866D02*
X160848683Y-97506533D01*
X160848683Y-97506533D02*
X160915350Y-97439866D01*
X160915350Y-97439866D02*
X160982017Y-97406533D01*
X161548683Y-97473200D02*
X161582016Y-97439866D01*
X161582016Y-97439866D02*
X161648683Y-97406533D01*
X161648683Y-97406533D02*
X161815350Y-97406533D01*
X161815350Y-97406533D02*
X161882016Y-97439866D01*
X161882016Y-97439866D02*
X161915350Y-97473200D01*
X161915350Y-97473200D02*
X161948683Y-97539866D01*
X161948683Y-97539866D02*
X161948683Y-97606533D01*
X161948683Y-97606533D02*
X161915350Y-97706533D01*
X161915350Y-97706533D02*
X161515350Y-98106533D01*
X161515350Y-98106533D02*
X161948683Y-98106533D01*
X162615350Y-98106533D02*
X162215350Y-98106533D01*
X162415350Y-98106533D02*
X162415350Y-97406533D01*
X162415350Y-97406533D02*
X162348683Y-97506533D01*
X162348683Y-97506533D02*
X162282017Y-97573200D01*
X162282017Y-97573200D02*
X162215350Y-97606533D01*
X163932017Y-122139866D02*
X163865350Y-122106533D01*
X163865350Y-122106533D02*
X163765350Y-122106533D01*
X163765350Y-122106533D02*
X163665350Y-122139866D01*
X163665350Y-122139866D02*
X163598684Y-122206533D01*
X163598684Y-122206533D02*
X163565350Y-122273200D01*
X163565350Y-122273200D02*
X163532017Y-122406533D01*
X163532017Y-122406533D02*
X163532017Y-122506533D01*
X163532017Y-122506533D02*
X163565350Y-122639866D01*
X163565350Y-122639866D02*
X163598684Y-122706533D01*
X163598684Y-122706533D02*
X163665350Y-122773200D01*
X163665350Y-122773200D02*
X163765350Y-122806533D01*
X163765350Y-122806533D02*
X163832017Y-122806533D01*
X163832017Y-122806533D02*
X163932017Y-122773200D01*
X163932017Y-122773200D02*
X163965350Y-122739866D01*
X163965350Y-122739866D02*
X163965350Y-122506533D01*
X163965350Y-122506533D02*
X163832017Y-122506533D01*
X164265350Y-122806533D02*
X164265350Y-122106533D01*
X164265350Y-122106533D02*
X164665350Y-122806533D01*
X164665350Y-122806533D02*
X164665350Y-122106533D01*
X164998683Y-122806533D02*
X164998683Y-122106533D01*
X164998683Y-122106533D02*
X165165350Y-122106533D01*
X165165350Y-122106533D02*
X165265350Y-122139866D01*
X165265350Y-122139866D02*
X165332017Y-122206533D01*
X165332017Y-122206533D02*
X165365350Y-122273200D01*
X165365350Y-122273200D02*
X165398683Y-122406533D01*
X165398683Y-122406533D02*
X165398683Y-122506533D01*
X165398683Y-122506533D02*
X165365350Y-122639866D01*
X165365350Y-122639866D02*
X165332017Y-122706533D01*
X165332017Y-122706533D02*
X165265350Y-122773200D01*
X165265350Y-122773200D02*
X165165350Y-122806533D01*
X165165350Y-122806533D02*
X164998683Y-122806533D01*
X156282017Y-84689866D02*
X156215350Y-84656533D01*
X156215350Y-84656533D02*
X156115350Y-84656533D01*
X156115350Y-84656533D02*
X156015350Y-84689866D01*
X156015350Y-84689866D02*
X155948684Y-84756533D01*
X155948684Y-84756533D02*
X155915350Y-84823200D01*
X155915350Y-84823200D02*
X155882017Y-84956533D01*
X155882017Y-84956533D02*
X155882017Y-85056533D01*
X155882017Y-85056533D02*
X155915350Y-85189866D01*
X155915350Y-85189866D02*
X155948684Y-85256533D01*
X155948684Y-85256533D02*
X156015350Y-85323200D01*
X156015350Y-85323200D02*
X156115350Y-85356533D01*
X156115350Y-85356533D02*
X156182017Y-85356533D01*
X156182017Y-85356533D02*
X156282017Y-85323200D01*
X156282017Y-85323200D02*
X156315350Y-85289866D01*
X156315350Y-85289866D02*
X156315350Y-85056533D01*
X156315350Y-85056533D02*
X156182017Y-85056533D01*
X156615350Y-85356533D02*
X156615350Y-84656533D01*
X156615350Y-84656533D02*
X156882017Y-84656533D01*
X156882017Y-84656533D02*
X156948684Y-84689866D01*
X156948684Y-84689866D02*
X156982017Y-84723200D01*
X156982017Y-84723200D02*
X157015350Y-84789866D01*
X157015350Y-84789866D02*
X157015350Y-84889866D01*
X157015350Y-84889866D02*
X156982017Y-84956533D01*
X156982017Y-84956533D02*
X156948684Y-84989866D01*
X156948684Y-84989866D02*
X156882017Y-85023200D01*
X156882017Y-85023200D02*
X156615350Y-85023200D01*
X157315350Y-85356533D02*
X157315350Y-84656533D01*
X157782017Y-84656533D02*
X157915350Y-84656533D01*
X157915350Y-84656533D02*
X157982017Y-84689866D01*
X157982017Y-84689866D02*
X158048683Y-84756533D01*
X158048683Y-84756533D02*
X158082017Y-84889866D01*
X158082017Y-84889866D02*
X158082017Y-85123200D01*
X158082017Y-85123200D02*
X158048683Y-85256533D01*
X158048683Y-85256533D02*
X157982017Y-85323200D01*
X157982017Y-85323200D02*
X157915350Y-85356533D01*
X157915350Y-85356533D02*
X157782017Y-85356533D01*
X157782017Y-85356533D02*
X157715350Y-85323200D01*
X157715350Y-85323200D02*
X157648683Y-85256533D01*
X157648683Y-85256533D02*
X157615350Y-85123200D01*
X157615350Y-85123200D02*
X157615350Y-84889866D01*
X157615350Y-84889866D02*
X157648683Y-84756533D01*
X157648683Y-84756533D02*
X157715350Y-84689866D01*
X157715350Y-84689866D02*
X157782017Y-84656533D01*
X158348683Y-84723200D02*
X158382016Y-84689866D01*
X158382016Y-84689866D02*
X158448683Y-84656533D01*
X158448683Y-84656533D02*
X158615350Y-84656533D01*
X158615350Y-84656533D02*
X158682016Y-84689866D01*
X158682016Y-84689866D02*
X158715350Y-84723200D01*
X158715350Y-84723200D02*
X158748683Y-84789866D01*
X158748683Y-84789866D02*
X158748683Y-84856533D01*
X158748683Y-84856533D02*
X158715350Y-84956533D01*
X158715350Y-84956533D02*
X158315350Y-85356533D01*
X158315350Y-85356533D02*
X158748683Y-85356533D01*
X158982017Y-84656533D02*
X159448683Y-84656533D01*
X159448683Y-84656533D02*
X159148683Y-85356533D01*
X159548684Y-85423200D02*
X160082017Y-85423200D01*
X160215350Y-85156533D02*
X160548683Y-85156533D01*
X160148683Y-85356533D02*
X160382017Y-84656533D01*
X160382017Y-84656533D02*
X160615350Y-85356533D01*
X160848683Y-85356533D02*
X160848683Y-84656533D01*
X160848683Y-84656533D02*
X161015350Y-84656533D01*
X161015350Y-84656533D02*
X161115350Y-84689866D01*
X161115350Y-84689866D02*
X161182017Y-84756533D01*
X161182017Y-84756533D02*
X161215350Y-84823200D01*
X161215350Y-84823200D02*
X161248683Y-84956533D01*
X161248683Y-84956533D02*
X161248683Y-85056533D01*
X161248683Y-85056533D02*
X161215350Y-85189866D01*
X161215350Y-85189866D02*
X161182017Y-85256533D01*
X161182017Y-85256533D02*
X161115350Y-85323200D01*
X161115350Y-85323200D02*
X161015350Y-85356533D01*
X161015350Y-85356533D02*
X160848683Y-85356533D01*
X161948683Y-85289866D02*
X161915350Y-85323200D01*
X161915350Y-85323200D02*
X161815350Y-85356533D01*
X161815350Y-85356533D02*
X161748683Y-85356533D01*
X161748683Y-85356533D02*
X161648683Y-85323200D01*
X161648683Y-85323200D02*
X161582017Y-85256533D01*
X161582017Y-85256533D02*
X161548683Y-85189866D01*
X161548683Y-85189866D02*
X161515350Y-85056533D01*
X161515350Y-85056533D02*
X161515350Y-84956533D01*
X161515350Y-84956533D02*
X161548683Y-84823200D01*
X161548683Y-84823200D02*
X161582017Y-84756533D01*
X161582017Y-84756533D02*
X161648683Y-84689866D01*
X161648683Y-84689866D02*
X161748683Y-84656533D01*
X161748683Y-84656533D02*
X161815350Y-84656533D01*
X161815350Y-84656533D02*
X161915350Y-84689866D01*
X161915350Y-84689866D02*
X161948683Y-84723200D01*
X162382017Y-84656533D02*
X162448683Y-84656533D01*
X162448683Y-84656533D02*
X162515350Y-84689866D01*
X162515350Y-84689866D02*
X162548683Y-84723200D01*
X162548683Y-84723200D02*
X162582017Y-84789866D01*
X162582017Y-84789866D02*
X162615350Y-84923200D01*
X162615350Y-84923200D02*
X162615350Y-85089866D01*
X162615350Y-85089866D02*
X162582017Y-85223200D01*
X162582017Y-85223200D02*
X162548683Y-85289866D01*
X162548683Y-85289866D02*
X162515350Y-85323200D01*
X162515350Y-85323200D02*
X162448683Y-85356533D01*
X162448683Y-85356533D02*
X162382017Y-85356533D01*
X162382017Y-85356533D02*
X162315350Y-85323200D01*
X162315350Y-85323200D02*
X162282017Y-85289866D01*
X162282017Y-85289866D02*
X162248683Y-85223200D01*
X162248683Y-85223200D02*
X162215350Y-85089866D01*
X162215350Y-85089866D02*
X162215350Y-84923200D01*
X162215350Y-84923200D02*
X162248683Y-84789866D01*
X162248683Y-84789866D02*
X162282017Y-84723200D01*
X162282017Y-84723200D02*
X162315350Y-84689866D01*
X162315350Y-84689866D02*
X162382017Y-84656533D01*
X123082017Y-107439866D02*
X123015350Y-107406533D01*
X123015350Y-107406533D02*
X122915350Y-107406533D01*
X122915350Y-107406533D02*
X122815350Y-107439866D01*
X122815350Y-107439866D02*
X122748684Y-107506533D01*
X122748684Y-107506533D02*
X122715350Y-107573200D01*
X122715350Y-107573200D02*
X122682017Y-107706533D01*
X122682017Y-107706533D02*
X122682017Y-107806533D01*
X122682017Y-107806533D02*
X122715350Y-107939866D01*
X122715350Y-107939866D02*
X122748684Y-108006533D01*
X122748684Y-108006533D02*
X122815350Y-108073200D01*
X122815350Y-108073200D02*
X122915350Y-108106533D01*
X122915350Y-108106533D02*
X122982017Y-108106533D01*
X122982017Y-108106533D02*
X123082017Y-108073200D01*
X123082017Y-108073200D02*
X123115350Y-108039866D01*
X123115350Y-108039866D02*
X123115350Y-107806533D01*
X123115350Y-107806533D02*
X122982017Y-107806533D01*
X123415350Y-108106533D02*
X123415350Y-107406533D01*
X123415350Y-107406533D02*
X123682017Y-107406533D01*
X123682017Y-107406533D02*
X123748684Y-107439866D01*
X123748684Y-107439866D02*
X123782017Y-107473200D01*
X123782017Y-107473200D02*
X123815350Y-107539866D01*
X123815350Y-107539866D02*
X123815350Y-107639866D01*
X123815350Y-107639866D02*
X123782017Y-107706533D01*
X123782017Y-107706533D02*
X123748684Y-107739866D01*
X123748684Y-107739866D02*
X123682017Y-107773200D01*
X123682017Y-107773200D02*
X123415350Y-107773200D01*
X124115350Y-108106533D02*
X124115350Y-107406533D01*
X124582017Y-107406533D02*
X124715350Y-107406533D01*
X124715350Y-107406533D02*
X124782017Y-107439866D01*
X124782017Y-107439866D02*
X124848683Y-107506533D01*
X124848683Y-107506533D02*
X124882017Y-107639866D01*
X124882017Y-107639866D02*
X124882017Y-107873200D01*
X124882017Y-107873200D02*
X124848683Y-108006533D01*
X124848683Y-108006533D02*
X124782017Y-108073200D01*
X124782017Y-108073200D02*
X124715350Y-108106533D01*
X124715350Y-108106533D02*
X124582017Y-108106533D01*
X124582017Y-108106533D02*
X124515350Y-108073200D01*
X124515350Y-108073200D02*
X124448683Y-108006533D01*
X124448683Y-108006533D02*
X124415350Y-107873200D01*
X124415350Y-107873200D02*
X124415350Y-107639866D01*
X124415350Y-107639866D02*
X124448683Y-107506533D01*
X124448683Y-107506533D02*
X124515350Y-107439866D01*
X124515350Y-107439866D02*
X124582017Y-107406533D01*
X125548683Y-108106533D02*
X125148683Y-108106533D01*
X125348683Y-108106533D02*
X125348683Y-107406533D01*
X125348683Y-107406533D02*
X125282016Y-107506533D01*
X125282016Y-107506533D02*
X125215350Y-107573200D01*
X125215350Y-107573200D02*
X125148683Y-107606533D01*
X126215350Y-108106533D02*
X125815350Y-108106533D01*
X126015350Y-108106533D02*
X126015350Y-107406533D01*
X126015350Y-107406533D02*
X125948683Y-107506533D01*
X125948683Y-107506533D02*
X125882017Y-107573200D01*
X125882017Y-107573200D02*
X125815350Y-107606533D01*
X156282017Y-79539866D02*
X156215350Y-79506533D01*
X156215350Y-79506533D02*
X156115350Y-79506533D01*
X156115350Y-79506533D02*
X156015350Y-79539866D01*
X156015350Y-79539866D02*
X155948684Y-79606533D01*
X155948684Y-79606533D02*
X155915350Y-79673200D01*
X155915350Y-79673200D02*
X155882017Y-79806533D01*
X155882017Y-79806533D02*
X155882017Y-79906533D01*
X155882017Y-79906533D02*
X155915350Y-80039866D01*
X155915350Y-80039866D02*
X155948684Y-80106533D01*
X155948684Y-80106533D02*
X156015350Y-80173200D01*
X156015350Y-80173200D02*
X156115350Y-80206533D01*
X156115350Y-80206533D02*
X156182017Y-80206533D01*
X156182017Y-80206533D02*
X156282017Y-80173200D01*
X156282017Y-80173200D02*
X156315350Y-80139866D01*
X156315350Y-80139866D02*
X156315350Y-79906533D01*
X156315350Y-79906533D02*
X156182017Y-79906533D01*
X156615350Y-80206533D02*
X156615350Y-79506533D01*
X156615350Y-79506533D02*
X156882017Y-79506533D01*
X156882017Y-79506533D02*
X156948684Y-79539866D01*
X156948684Y-79539866D02*
X156982017Y-79573200D01*
X156982017Y-79573200D02*
X157015350Y-79639866D01*
X157015350Y-79639866D02*
X157015350Y-79739866D01*
X157015350Y-79739866D02*
X156982017Y-79806533D01*
X156982017Y-79806533D02*
X156948684Y-79839866D01*
X156948684Y-79839866D02*
X156882017Y-79873200D01*
X156882017Y-79873200D02*
X156615350Y-79873200D01*
X157315350Y-80206533D02*
X157315350Y-79506533D01*
X157782017Y-79506533D02*
X157915350Y-79506533D01*
X157915350Y-79506533D02*
X157982017Y-79539866D01*
X157982017Y-79539866D02*
X158048683Y-79606533D01*
X158048683Y-79606533D02*
X158082017Y-79739866D01*
X158082017Y-79739866D02*
X158082017Y-79973200D01*
X158082017Y-79973200D02*
X158048683Y-80106533D01*
X158048683Y-80106533D02*
X157982017Y-80173200D01*
X157982017Y-80173200D02*
X157915350Y-80206533D01*
X157915350Y-80206533D02*
X157782017Y-80206533D01*
X157782017Y-80206533D02*
X157715350Y-80173200D01*
X157715350Y-80173200D02*
X157648683Y-80106533D01*
X157648683Y-80106533D02*
X157615350Y-79973200D01*
X157615350Y-79973200D02*
X157615350Y-79739866D01*
X157615350Y-79739866D02*
X157648683Y-79606533D01*
X157648683Y-79606533D02*
X157715350Y-79539866D01*
X157715350Y-79539866D02*
X157782017Y-79506533D01*
X158348683Y-79573200D02*
X158382016Y-79539866D01*
X158382016Y-79539866D02*
X158448683Y-79506533D01*
X158448683Y-79506533D02*
X158615350Y-79506533D01*
X158615350Y-79506533D02*
X158682016Y-79539866D01*
X158682016Y-79539866D02*
X158715350Y-79573200D01*
X158715350Y-79573200D02*
X158748683Y-79639866D01*
X158748683Y-79639866D02*
X158748683Y-79706533D01*
X158748683Y-79706533D02*
X158715350Y-79806533D01*
X158715350Y-79806533D02*
X158315350Y-80206533D01*
X158315350Y-80206533D02*
X158748683Y-80206533D01*
X159148683Y-79806533D02*
X159082017Y-79773200D01*
X159082017Y-79773200D02*
X159048683Y-79739866D01*
X159048683Y-79739866D02*
X159015350Y-79673200D01*
X159015350Y-79673200D02*
X159015350Y-79639866D01*
X159015350Y-79639866D02*
X159048683Y-79573200D01*
X159048683Y-79573200D02*
X159082017Y-79539866D01*
X159082017Y-79539866D02*
X159148683Y-79506533D01*
X159148683Y-79506533D02*
X159282017Y-79506533D01*
X159282017Y-79506533D02*
X159348683Y-79539866D01*
X159348683Y-79539866D02*
X159382017Y-79573200D01*
X159382017Y-79573200D02*
X159415350Y-79639866D01*
X159415350Y-79639866D02*
X159415350Y-79673200D01*
X159415350Y-79673200D02*
X159382017Y-79739866D01*
X159382017Y-79739866D02*
X159348683Y-79773200D01*
X159348683Y-79773200D02*
X159282017Y-79806533D01*
X159282017Y-79806533D02*
X159148683Y-79806533D01*
X159148683Y-79806533D02*
X159082017Y-79839866D01*
X159082017Y-79839866D02*
X159048683Y-79873200D01*
X159048683Y-79873200D02*
X159015350Y-79939866D01*
X159015350Y-79939866D02*
X159015350Y-80073200D01*
X159015350Y-80073200D02*
X159048683Y-80139866D01*
X159048683Y-80139866D02*
X159082017Y-80173200D01*
X159082017Y-80173200D02*
X159148683Y-80206533D01*
X159148683Y-80206533D02*
X159282017Y-80206533D01*
X159282017Y-80206533D02*
X159348683Y-80173200D01*
X159348683Y-80173200D02*
X159382017Y-80139866D01*
X159382017Y-80139866D02*
X159415350Y-80073200D01*
X159415350Y-80073200D02*
X159415350Y-79939866D01*
X159415350Y-79939866D02*
X159382017Y-79873200D01*
X159382017Y-79873200D02*
X159348683Y-79839866D01*
X159348683Y-79839866D02*
X159282017Y-79806533D01*
X159548684Y-80273200D02*
X160082017Y-80273200D01*
X160215350Y-80006533D02*
X160548683Y-80006533D01*
X160148683Y-80206533D02*
X160382017Y-79506533D01*
X160382017Y-79506533D02*
X160615350Y-80206533D01*
X160848683Y-80206533D02*
X160848683Y-79506533D01*
X160848683Y-79506533D02*
X161015350Y-79506533D01*
X161015350Y-79506533D02*
X161115350Y-79539866D01*
X161115350Y-79539866D02*
X161182017Y-79606533D01*
X161182017Y-79606533D02*
X161215350Y-79673200D01*
X161215350Y-79673200D02*
X161248683Y-79806533D01*
X161248683Y-79806533D02*
X161248683Y-79906533D01*
X161248683Y-79906533D02*
X161215350Y-80039866D01*
X161215350Y-80039866D02*
X161182017Y-80106533D01*
X161182017Y-80106533D02*
X161115350Y-80173200D01*
X161115350Y-80173200D02*
X161015350Y-80206533D01*
X161015350Y-80206533D02*
X160848683Y-80206533D01*
X161948683Y-80139866D02*
X161915350Y-80173200D01*
X161915350Y-80173200D02*
X161815350Y-80206533D01*
X161815350Y-80206533D02*
X161748683Y-80206533D01*
X161748683Y-80206533D02*
X161648683Y-80173200D01*
X161648683Y-80173200D02*
X161582017Y-80106533D01*
X161582017Y-80106533D02*
X161548683Y-80039866D01*
X161548683Y-80039866D02*
X161515350Y-79906533D01*
X161515350Y-79906533D02*
X161515350Y-79806533D01*
X161515350Y-79806533D02*
X161548683Y-79673200D01*
X161548683Y-79673200D02*
X161582017Y-79606533D01*
X161582017Y-79606533D02*
X161648683Y-79539866D01*
X161648683Y-79539866D02*
X161748683Y-79506533D01*
X161748683Y-79506533D02*
X161815350Y-79506533D01*
X161815350Y-79506533D02*
X161915350Y-79539866D01*
X161915350Y-79539866D02*
X161948683Y-79573200D01*
X162215350Y-79573200D02*
X162248683Y-79539866D01*
X162248683Y-79539866D02*
X162315350Y-79506533D01*
X162315350Y-79506533D02*
X162482017Y-79506533D01*
X162482017Y-79506533D02*
X162548683Y-79539866D01*
X162548683Y-79539866D02*
X162582017Y-79573200D01*
X162582017Y-79573200D02*
X162615350Y-79639866D01*
X162615350Y-79639866D02*
X162615350Y-79706533D01*
X162615350Y-79706533D02*
X162582017Y-79806533D01*
X162582017Y-79806533D02*
X162182017Y-80206533D01*
X162182017Y-80206533D02*
X162615350Y-80206533D01*
X122989866Y-119017982D02*
X122956533Y-119084649D01*
X122956533Y-119084649D02*
X122956533Y-119184649D01*
X122956533Y-119184649D02*
X122989866Y-119284649D01*
X122989866Y-119284649D02*
X123056533Y-119351316D01*
X123056533Y-119351316D02*
X123123200Y-119384649D01*
X123123200Y-119384649D02*
X123256533Y-119417982D01*
X123256533Y-119417982D02*
X123356533Y-119417982D01*
X123356533Y-119417982D02*
X123489866Y-119384649D01*
X123489866Y-119384649D02*
X123556533Y-119351316D01*
X123556533Y-119351316D02*
X123623200Y-119284649D01*
X123623200Y-119284649D02*
X123656533Y-119184649D01*
X123656533Y-119184649D02*
X123656533Y-119117982D01*
X123656533Y-119117982D02*
X123623200Y-119017982D01*
X123623200Y-119017982D02*
X123589866Y-118984649D01*
X123589866Y-118984649D02*
X123356533Y-118984649D01*
X123356533Y-118984649D02*
X123356533Y-119117982D01*
X123656533Y-118684649D02*
X122956533Y-118684649D01*
X122956533Y-118684649D02*
X122956533Y-118417982D01*
X122956533Y-118417982D02*
X122989866Y-118351316D01*
X122989866Y-118351316D02*
X123023200Y-118317982D01*
X123023200Y-118317982D02*
X123089866Y-118284649D01*
X123089866Y-118284649D02*
X123189866Y-118284649D01*
X123189866Y-118284649D02*
X123256533Y-118317982D01*
X123256533Y-118317982D02*
X123289866Y-118351316D01*
X123289866Y-118351316D02*
X123323200Y-118417982D01*
X123323200Y-118417982D02*
X123323200Y-118684649D01*
X123656533Y-117984649D02*
X122956533Y-117984649D01*
X122956533Y-117517983D02*
X122956533Y-117384649D01*
X122956533Y-117384649D02*
X122989866Y-117317983D01*
X122989866Y-117317983D02*
X123056533Y-117251316D01*
X123056533Y-117251316D02*
X123189866Y-117217983D01*
X123189866Y-117217983D02*
X123423200Y-117217983D01*
X123423200Y-117217983D02*
X123556533Y-117251316D01*
X123556533Y-117251316D02*
X123623200Y-117317983D01*
X123623200Y-117317983D02*
X123656533Y-117384649D01*
X123656533Y-117384649D02*
X123656533Y-117517983D01*
X123656533Y-117517983D02*
X123623200Y-117584649D01*
X123623200Y-117584649D02*
X123556533Y-117651316D01*
X123556533Y-117651316D02*
X123423200Y-117684649D01*
X123423200Y-117684649D02*
X123189866Y-117684649D01*
X123189866Y-117684649D02*
X123056533Y-117651316D01*
X123056533Y-117651316D02*
X122989866Y-117584649D01*
X122989866Y-117584649D02*
X122956533Y-117517983D01*
X123656533Y-116551316D02*
X123656533Y-116951316D01*
X123656533Y-116751316D02*
X122956533Y-116751316D01*
X122956533Y-116751316D02*
X123056533Y-116817983D01*
X123056533Y-116817983D02*
X123123200Y-116884650D01*
X123123200Y-116884650D02*
X123156533Y-116951316D01*
X122956533Y-115917983D02*
X122956533Y-116251316D01*
X122956533Y-116251316D02*
X123289866Y-116284649D01*
X123289866Y-116284649D02*
X123256533Y-116251316D01*
X123256533Y-116251316D02*
X123223200Y-116184649D01*
X123223200Y-116184649D02*
X123223200Y-116017983D01*
X123223200Y-116017983D02*
X123256533Y-115951316D01*
X123256533Y-115951316D02*
X123289866Y-115917983D01*
X123289866Y-115917983D02*
X123356533Y-115884649D01*
X123356533Y-115884649D02*
X123523200Y-115884649D01*
X123523200Y-115884649D02*
X123589866Y-115917983D01*
X123589866Y-115917983D02*
X123623200Y-115951316D01*
X123623200Y-115951316D02*
X123656533Y-116017983D01*
X123656533Y-116017983D02*
X123656533Y-116184649D01*
X123656533Y-116184649D02*
X123623200Y-116251316D01*
X123623200Y-116251316D02*
X123589866Y-116284649D01*
X123082017Y-89739866D02*
X123015350Y-89706533D01*
X123015350Y-89706533D02*
X122915350Y-89706533D01*
X122915350Y-89706533D02*
X122815350Y-89739866D01*
X122815350Y-89739866D02*
X122748684Y-89806533D01*
X122748684Y-89806533D02*
X122715350Y-89873200D01*
X122715350Y-89873200D02*
X122682017Y-90006533D01*
X122682017Y-90006533D02*
X122682017Y-90106533D01*
X122682017Y-90106533D02*
X122715350Y-90239866D01*
X122715350Y-90239866D02*
X122748684Y-90306533D01*
X122748684Y-90306533D02*
X122815350Y-90373200D01*
X122815350Y-90373200D02*
X122915350Y-90406533D01*
X122915350Y-90406533D02*
X122982017Y-90406533D01*
X122982017Y-90406533D02*
X123082017Y-90373200D01*
X123082017Y-90373200D02*
X123115350Y-90339866D01*
X123115350Y-90339866D02*
X123115350Y-90106533D01*
X123115350Y-90106533D02*
X122982017Y-90106533D01*
X123415350Y-90406533D02*
X123415350Y-89706533D01*
X123415350Y-89706533D02*
X123682017Y-89706533D01*
X123682017Y-89706533D02*
X123748684Y-89739866D01*
X123748684Y-89739866D02*
X123782017Y-89773200D01*
X123782017Y-89773200D02*
X123815350Y-89839866D01*
X123815350Y-89839866D02*
X123815350Y-89939866D01*
X123815350Y-89939866D02*
X123782017Y-90006533D01*
X123782017Y-90006533D02*
X123748684Y-90039866D01*
X123748684Y-90039866D02*
X123682017Y-90073200D01*
X123682017Y-90073200D02*
X123415350Y-90073200D01*
X124115350Y-90406533D02*
X124115350Y-89706533D01*
X124582017Y-89706533D02*
X124715350Y-89706533D01*
X124715350Y-89706533D02*
X124782017Y-89739866D01*
X124782017Y-89739866D02*
X124848683Y-89806533D01*
X124848683Y-89806533D02*
X124882017Y-89939866D01*
X124882017Y-89939866D02*
X124882017Y-90173200D01*
X124882017Y-90173200D02*
X124848683Y-90306533D01*
X124848683Y-90306533D02*
X124782017Y-90373200D01*
X124782017Y-90373200D02*
X124715350Y-90406533D01*
X124715350Y-90406533D02*
X124582017Y-90406533D01*
X124582017Y-90406533D02*
X124515350Y-90373200D01*
X124515350Y-90373200D02*
X124448683Y-90306533D01*
X124448683Y-90306533D02*
X124415350Y-90173200D01*
X124415350Y-90173200D02*
X124415350Y-89939866D01*
X124415350Y-89939866D02*
X124448683Y-89806533D01*
X124448683Y-89806533D02*
X124515350Y-89739866D01*
X124515350Y-89739866D02*
X124582017Y-89706533D01*
X125482016Y-89939866D02*
X125482016Y-90406533D01*
X125315350Y-89673200D02*
X125148683Y-90173200D01*
X125148683Y-90173200D02*
X125582016Y-90173200D01*
X159482017Y-107489866D02*
X159415350Y-107456533D01*
X159415350Y-107456533D02*
X159315350Y-107456533D01*
X159315350Y-107456533D02*
X159215350Y-107489866D01*
X159215350Y-107489866D02*
X159148684Y-107556533D01*
X159148684Y-107556533D02*
X159115350Y-107623200D01*
X159115350Y-107623200D02*
X159082017Y-107756533D01*
X159082017Y-107756533D02*
X159082017Y-107856533D01*
X159082017Y-107856533D02*
X159115350Y-107989866D01*
X159115350Y-107989866D02*
X159148684Y-108056533D01*
X159148684Y-108056533D02*
X159215350Y-108123200D01*
X159215350Y-108123200D02*
X159315350Y-108156533D01*
X159315350Y-108156533D02*
X159382017Y-108156533D01*
X159382017Y-108156533D02*
X159482017Y-108123200D01*
X159482017Y-108123200D02*
X159515350Y-108089866D01*
X159515350Y-108089866D02*
X159515350Y-107856533D01*
X159515350Y-107856533D02*
X159382017Y-107856533D01*
X159815350Y-108156533D02*
X159815350Y-107456533D01*
X159815350Y-107456533D02*
X160082017Y-107456533D01*
X160082017Y-107456533D02*
X160148684Y-107489866D01*
X160148684Y-107489866D02*
X160182017Y-107523200D01*
X160182017Y-107523200D02*
X160215350Y-107589866D01*
X160215350Y-107589866D02*
X160215350Y-107689866D01*
X160215350Y-107689866D02*
X160182017Y-107756533D01*
X160182017Y-107756533D02*
X160148684Y-107789866D01*
X160148684Y-107789866D02*
X160082017Y-107823200D01*
X160082017Y-107823200D02*
X159815350Y-107823200D01*
X160515350Y-108156533D02*
X160515350Y-107456533D01*
X160982017Y-107456533D02*
X161115350Y-107456533D01*
X161115350Y-107456533D02*
X161182017Y-107489866D01*
X161182017Y-107489866D02*
X161248683Y-107556533D01*
X161248683Y-107556533D02*
X161282017Y-107689866D01*
X161282017Y-107689866D02*
X161282017Y-107923200D01*
X161282017Y-107923200D02*
X161248683Y-108056533D01*
X161248683Y-108056533D02*
X161182017Y-108123200D01*
X161182017Y-108123200D02*
X161115350Y-108156533D01*
X161115350Y-108156533D02*
X160982017Y-108156533D01*
X160982017Y-108156533D02*
X160915350Y-108123200D01*
X160915350Y-108123200D02*
X160848683Y-108056533D01*
X160848683Y-108056533D02*
X160815350Y-107923200D01*
X160815350Y-107923200D02*
X160815350Y-107689866D01*
X160815350Y-107689866D02*
X160848683Y-107556533D01*
X160848683Y-107556533D02*
X160915350Y-107489866D01*
X160915350Y-107489866D02*
X160982017Y-107456533D01*
X161948683Y-108156533D02*
X161548683Y-108156533D01*
X161748683Y-108156533D02*
X161748683Y-107456533D01*
X161748683Y-107456533D02*
X161682016Y-107556533D01*
X161682016Y-107556533D02*
X161615350Y-107623200D01*
X161615350Y-107623200D02*
X161548683Y-107656533D01*
X162182017Y-107456533D02*
X162648683Y-107456533D01*
X162648683Y-107456533D02*
X162348683Y-108156533D01*
X123082017Y-97289866D02*
X123015350Y-97256533D01*
X123015350Y-97256533D02*
X122915350Y-97256533D01*
X122915350Y-97256533D02*
X122815350Y-97289866D01*
X122815350Y-97289866D02*
X122748684Y-97356533D01*
X122748684Y-97356533D02*
X122715350Y-97423200D01*
X122715350Y-97423200D02*
X122682017Y-97556533D01*
X122682017Y-97556533D02*
X122682017Y-97656533D01*
X122682017Y-97656533D02*
X122715350Y-97789866D01*
X122715350Y-97789866D02*
X122748684Y-97856533D01*
X122748684Y-97856533D02*
X122815350Y-97923200D01*
X122815350Y-97923200D02*
X122915350Y-97956533D01*
X122915350Y-97956533D02*
X122982017Y-97956533D01*
X122982017Y-97956533D02*
X123082017Y-97923200D01*
X123082017Y-97923200D02*
X123115350Y-97889866D01*
X123115350Y-97889866D02*
X123115350Y-97656533D01*
X123115350Y-97656533D02*
X122982017Y-97656533D01*
X123415350Y-97956533D02*
X123415350Y-97256533D01*
X123415350Y-97256533D02*
X123682017Y-97256533D01*
X123682017Y-97256533D02*
X123748684Y-97289866D01*
X123748684Y-97289866D02*
X123782017Y-97323200D01*
X123782017Y-97323200D02*
X123815350Y-97389866D01*
X123815350Y-97389866D02*
X123815350Y-97489866D01*
X123815350Y-97489866D02*
X123782017Y-97556533D01*
X123782017Y-97556533D02*
X123748684Y-97589866D01*
X123748684Y-97589866D02*
X123682017Y-97623200D01*
X123682017Y-97623200D02*
X123415350Y-97623200D01*
X124115350Y-97956533D02*
X124115350Y-97256533D01*
X124582017Y-97256533D02*
X124715350Y-97256533D01*
X124715350Y-97256533D02*
X124782017Y-97289866D01*
X124782017Y-97289866D02*
X124848683Y-97356533D01*
X124848683Y-97356533D02*
X124882017Y-97489866D01*
X124882017Y-97489866D02*
X124882017Y-97723200D01*
X124882017Y-97723200D02*
X124848683Y-97856533D01*
X124848683Y-97856533D02*
X124782017Y-97923200D01*
X124782017Y-97923200D02*
X124715350Y-97956533D01*
X124715350Y-97956533D02*
X124582017Y-97956533D01*
X124582017Y-97956533D02*
X124515350Y-97923200D01*
X124515350Y-97923200D02*
X124448683Y-97856533D01*
X124448683Y-97856533D02*
X124415350Y-97723200D01*
X124415350Y-97723200D02*
X124415350Y-97489866D01*
X124415350Y-97489866D02*
X124448683Y-97356533D01*
X124448683Y-97356533D02*
X124515350Y-97289866D01*
X124515350Y-97289866D02*
X124582017Y-97256533D01*
X125115350Y-97256533D02*
X125582016Y-97256533D01*
X125582016Y-97256533D02*
X125282016Y-97956533D01*
X162523200Y-119567982D02*
X162556533Y-119467982D01*
X162556533Y-119467982D02*
X162556533Y-119301316D01*
X162556533Y-119301316D02*
X162523200Y-119234649D01*
X162523200Y-119234649D02*
X162489866Y-119201316D01*
X162489866Y-119201316D02*
X162423200Y-119167982D01*
X162423200Y-119167982D02*
X162356533Y-119167982D01*
X162356533Y-119167982D02*
X162289866Y-119201316D01*
X162289866Y-119201316D02*
X162256533Y-119234649D01*
X162256533Y-119234649D02*
X162223200Y-119301316D01*
X162223200Y-119301316D02*
X162189866Y-119434649D01*
X162189866Y-119434649D02*
X162156533Y-119501316D01*
X162156533Y-119501316D02*
X162123200Y-119534649D01*
X162123200Y-119534649D02*
X162056533Y-119567982D01*
X162056533Y-119567982D02*
X161989866Y-119567982D01*
X161989866Y-119567982D02*
X161923200Y-119534649D01*
X161923200Y-119534649D02*
X161889866Y-119501316D01*
X161889866Y-119501316D02*
X161856533Y-119434649D01*
X161856533Y-119434649D02*
X161856533Y-119267982D01*
X161856533Y-119267982D02*
X161889866Y-119167982D01*
X161856533Y-118934649D02*
X162556533Y-118767982D01*
X162556533Y-118767982D02*
X162056533Y-118634649D01*
X162056533Y-118634649D02*
X162556533Y-118501315D01*
X162556533Y-118501315D02*
X161856533Y-118334649D01*
X162489866Y-117667982D02*
X162523200Y-117701315D01*
X162523200Y-117701315D02*
X162556533Y-117801315D01*
X162556533Y-117801315D02*
X162556533Y-117867982D01*
X162556533Y-117867982D02*
X162523200Y-117967982D01*
X162523200Y-117967982D02*
X162456533Y-118034649D01*
X162456533Y-118034649D02*
X162389866Y-118067982D01*
X162389866Y-118067982D02*
X162256533Y-118101315D01*
X162256533Y-118101315D02*
X162156533Y-118101315D01*
X162156533Y-118101315D02*
X162023200Y-118067982D01*
X162023200Y-118067982D02*
X161956533Y-118034649D01*
X161956533Y-118034649D02*
X161889866Y-117967982D01*
X161889866Y-117967982D02*
X161856533Y-117867982D01*
X161856533Y-117867982D02*
X161856533Y-117801315D01*
X161856533Y-117801315D02*
X161889866Y-117701315D01*
X161889866Y-117701315D02*
X161923200Y-117667982D01*
X162556533Y-117034649D02*
X162556533Y-117367982D01*
X162556533Y-117367982D02*
X161856533Y-117367982D01*
X162556533Y-116801315D02*
X161856533Y-116801315D01*
X162556533Y-116401315D02*
X162156533Y-116701315D01*
X161856533Y-116401315D02*
X162256533Y-116801315D01*
X159482017Y-87239866D02*
X159415350Y-87206533D01*
X159415350Y-87206533D02*
X159315350Y-87206533D01*
X159315350Y-87206533D02*
X159215350Y-87239866D01*
X159215350Y-87239866D02*
X159148684Y-87306533D01*
X159148684Y-87306533D02*
X159115350Y-87373200D01*
X159115350Y-87373200D02*
X159082017Y-87506533D01*
X159082017Y-87506533D02*
X159082017Y-87606533D01*
X159082017Y-87606533D02*
X159115350Y-87739866D01*
X159115350Y-87739866D02*
X159148684Y-87806533D01*
X159148684Y-87806533D02*
X159215350Y-87873200D01*
X159215350Y-87873200D02*
X159315350Y-87906533D01*
X159315350Y-87906533D02*
X159382017Y-87906533D01*
X159382017Y-87906533D02*
X159482017Y-87873200D01*
X159482017Y-87873200D02*
X159515350Y-87839866D01*
X159515350Y-87839866D02*
X159515350Y-87606533D01*
X159515350Y-87606533D02*
X159382017Y-87606533D01*
X159815350Y-87906533D02*
X159815350Y-87206533D01*
X159815350Y-87206533D02*
X160082017Y-87206533D01*
X160082017Y-87206533D02*
X160148684Y-87239866D01*
X160148684Y-87239866D02*
X160182017Y-87273200D01*
X160182017Y-87273200D02*
X160215350Y-87339866D01*
X160215350Y-87339866D02*
X160215350Y-87439866D01*
X160215350Y-87439866D02*
X160182017Y-87506533D01*
X160182017Y-87506533D02*
X160148684Y-87539866D01*
X160148684Y-87539866D02*
X160082017Y-87573200D01*
X160082017Y-87573200D02*
X159815350Y-87573200D01*
X160515350Y-87906533D02*
X160515350Y-87206533D01*
X160982017Y-87206533D02*
X161115350Y-87206533D01*
X161115350Y-87206533D02*
X161182017Y-87239866D01*
X161182017Y-87239866D02*
X161248683Y-87306533D01*
X161248683Y-87306533D02*
X161282017Y-87439866D01*
X161282017Y-87439866D02*
X161282017Y-87673200D01*
X161282017Y-87673200D02*
X161248683Y-87806533D01*
X161248683Y-87806533D02*
X161182017Y-87873200D01*
X161182017Y-87873200D02*
X161115350Y-87906533D01*
X161115350Y-87906533D02*
X160982017Y-87906533D01*
X160982017Y-87906533D02*
X160915350Y-87873200D01*
X160915350Y-87873200D02*
X160848683Y-87806533D01*
X160848683Y-87806533D02*
X160815350Y-87673200D01*
X160815350Y-87673200D02*
X160815350Y-87439866D01*
X160815350Y-87439866D02*
X160848683Y-87306533D01*
X160848683Y-87306533D02*
X160915350Y-87239866D01*
X160915350Y-87239866D02*
X160982017Y-87206533D01*
X161548683Y-87273200D02*
X161582016Y-87239866D01*
X161582016Y-87239866D02*
X161648683Y-87206533D01*
X161648683Y-87206533D02*
X161815350Y-87206533D01*
X161815350Y-87206533D02*
X161882016Y-87239866D01*
X161882016Y-87239866D02*
X161915350Y-87273200D01*
X161915350Y-87273200D02*
X161948683Y-87339866D01*
X161948683Y-87339866D02*
X161948683Y-87406533D01*
X161948683Y-87406533D02*
X161915350Y-87506533D01*
X161915350Y-87506533D02*
X161515350Y-87906533D01*
X161515350Y-87906533D02*
X161948683Y-87906533D01*
X162582017Y-87206533D02*
X162248683Y-87206533D01*
X162248683Y-87206533D02*
X162215350Y-87539866D01*
X162215350Y-87539866D02*
X162248683Y-87506533D01*
X162248683Y-87506533D02*
X162315350Y-87473200D01*
X162315350Y-87473200D02*
X162482017Y-87473200D01*
X162482017Y-87473200D02*
X162548683Y-87506533D01*
X162548683Y-87506533D02*
X162582017Y-87539866D01*
X162582017Y-87539866D02*
X162615350Y-87606533D01*
X162615350Y-87606533D02*
X162615350Y-87773200D01*
X162615350Y-87773200D02*
X162582017Y-87839866D01*
X162582017Y-87839866D02*
X162548683Y-87873200D01*
X162548683Y-87873200D02*
X162482017Y-87906533D01*
X162482017Y-87906533D02*
X162315350Y-87906533D01*
X162315350Y-87906533D02*
X162248683Y-87873200D01*
X162248683Y-87873200D02*
X162215350Y-87839866D01*
X123082017Y-114739866D02*
X123015350Y-114706533D01*
X123015350Y-114706533D02*
X122915350Y-114706533D01*
X122915350Y-114706533D02*
X122815350Y-114739866D01*
X122815350Y-114739866D02*
X122748684Y-114806533D01*
X122748684Y-114806533D02*
X122715350Y-114873200D01*
X122715350Y-114873200D02*
X122682017Y-115006533D01*
X122682017Y-115006533D02*
X122682017Y-115106533D01*
X122682017Y-115106533D02*
X122715350Y-115239866D01*
X122715350Y-115239866D02*
X122748684Y-115306533D01*
X122748684Y-115306533D02*
X122815350Y-115373200D01*
X122815350Y-115373200D02*
X122915350Y-115406533D01*
X122915350Y-115406533D02*
X122982017Y-115406533D01*
X122982017Y-115406533D02*
X123082017Y-115373200D01*
X123082017Y-115373200D02*
X123115350Y-115339866D01*
X123115350Y-115339866D02*
X123115350Y-115106533D01*
X123115350Y-115106533D02*
X122982017Y-115106533D01*
X123415350Y-115406533D02*
X123415350Y-114706533D01*
X123415350Y-114706533D02*
X123682017Y-114706533D01*
X123682017Y-114706533D02*
X123748684Y-114739866D01*
X123748684Y-114739866D02*
X123782017Y-114773200D01*
X123782017Y-114773200D02*
X123815350Y-114839866D01*
X123815350Y-114839866D02*
X123815350Y-114939866D01*
X123815350Y-114939866D02*
X123782017Y-115006533D01*
X123782017Y-115006533D02*
X123748684Y-115039866D01*
X123748684Y-115039866D02*
X123682017Y-115073200D01*
X123682017Y-115073200D02*
X123415350Y-115073200D01*
X124115350Y-115406533D02*
X124115350Y-114706533D01*
X124582017Y-114706533D02*
X124715350Y-114706533D01*
X124715350Y-114706533D02*
X124782017Y-114739866D01*
X124782017Y-114739866D02*
X124848683Y-114806533D01*
X124848683Y-114806533D02*
X124882017Y-114939866D01*
X124882017Y-114939866D02*
X124882017Y-115173200D01*
X124882017Y-115173200D02*
X124848683Y-115306533D01*
X124848683Y-115306533D02*
X124782017Y-115373200D01*
X124782017Y-115373200D02*
X124715350Y-115406533D01*
X124715350Y-115406533D02*
X124582017Y-115406533D01*
X124582017Y-115406533D02*
X124515350Y-115373200D01*
X124515350Y-115373200D02*
X124448683Y-115306533D01*
X124448683Y-115306533D02*
X124415350Y-115173200D01*
X124415350Y-115173200D02*
X124415350Y-114939866D01*
X124415350Y-114939866D02*
X124448683Y-114806533D01*
X124448683Y-114806533D02*
X124515350Y-114739866D01*
X124515350Y-114739866D02*
X124582017Y-114706533D01*
X125548683Y-115406533D02*
X125148683Y-115406533D01*
X125348683Y-115406533D02*
X125348683Y-114706533D01*
X125348683Y-114706533D02*
X125282016Y-114806533D01*
X125282016Y-114806533D02*
X125215350Y-114873200D01*
X125215350Y-114873200D02*
X125148683Y-114906533D01*
X126148683Y-114939866D02*
X126148683Y-115406533D01*
X125982017Y-114673200D02*
X125815350Y-115173200D01*
X125815350Y-115173200D02*
X126248683Y-115173200D01*
X123082017Y-104889866D02*
X123015350Y-104856533D01*
X123015350Y-104856533D02*
X122915350Y-104856533D01*
X122915350Y-104856533D02*
X122815350Y-104889866D01*
X122815350Y-104889866D02*
X122748684Y-104956533D01*
X122748684Y-104956533D02*
X122715350Y-105023200D01*
X122715350Y-105023200D02*
X122682017Y-105156533D01*
X122682017Y-105156533D02*
X122682017Y-105256533D01*
X122682017Y-105256533D02*
X122715350Y-105389866D01*
X122715350Y-105389866D02*
X122748684Y-105456533D01*
X122748684Y-105456533D02*
X122815350Y-105523200D01*
X122815350Y-105523200D02*
X122915350Y-105556533D01*
X122915350Y-105556533D02*
X122982017Y-105556533D01*
X122982017Y-105556533D02*
X123082017Y-105523200D01*
X123082017Y-105523200D02*
X123115350Y-105489866D01*
X123115350Y-105489866D02*
X123115350Y-105256533D01*
X123115350Y-105256533D02*
X122982017Y-105256533D01*
X123415350Y-105556533D02*
X123415350Y-104856533D01*
X123415350Y-104856533D02*
X123682017Y-104856533D01*
X123682017Y-104856533D02*
X123748684Y-104889866D01*
X123748684Y-104889866D02*
X123782017Y-104923200D01*
X123782017Y-104923200D02*
X123815350Y-104989866D01*
X123815350Y-104989866D02*
X123815350Y-105089866D01*
X123815350Y-105089866D02*
X123782017Y-105156533D01*
X123782017Y-105156533D02*
X123748684Y-105189866D01*
X123748684Y-105189866D02*
X123682017Y-105223200D01*
X123682017Y-105223200D02*
X123415350Y-105223200D01*
X124115350Y-105556533D02*
X124115350Y-104856533D01*
X124582017Y-104856533D02*
X124715350Y-104856533D01*
X124715350Y-104856533D02*
X124782017Y-104889866D01*
X124782017Y-104889866D02*
X124848683Y-104956533D01*
X124848683Y-104956533D02*
X124882017Y-105089866D01*
X124882017Y-105089866D02*
X124882017Y-105323200D01*
X124882017Y-105323200D02*
X124848683Y-105456533D01*
X124848683Y-105456533D02*
X124782017Y-105523200D01*
X124782017Y-105523200D02*
X124715350Y-105556533D01*
X124715350Y-105556533D02*
X124582017Y-105556533D01*
X124582017Y-105556533D02*
X124515350Y-105523200D01*
X124515350Y-105523200D02*
X124448683Y-105456533D01*
X124448683Y-105456533D02*
X124415350Y-105323200D01*
X124415350Y-105323200D02*
X124415350Y-105089866D01*
X124415350Y-105089866D02*
X124448683Y-104956533D01*
X124448683Y-104956533D02*
X124515350Y-104889866D01*
X124515350Y-104889866D02*
X124582017Y-104856533D01*
X125548683Y-105556533D02*
X125148683Y-105556533D01*
X125348683Y-105556533D02*
X125348683Y-104856533D01*
X125348683Y-104856533D02*
X125282016Y-104956533D01*
X125282016Y-104956533D02*
X125215350Y-105023200D01*
X125215350Y-105023200D02*
X125148683Y-105056533D01*
X125982017Y-104856533D02*
X126048683Y-104856533D01*
X126048683Y-104856533D02*
X126115350Y-104889866D01*
X126115350Y-104889866D02*
X126148683Y-104923200D01*
X126148683Y-104923200D02*
X126182017Y-104989866D01*
X126182017Y-104989866D02*
X126215350Y-105123200D01*
X126215350Y-105123200D02*
X126215350Y-105289866D01*
X126215350Y-105289866D02*
X126182017Y-105423200D01*
X126182017Y-105423200D02*
X126148683Y-105489866D01*
X126148683Y-105489866D02*
X126115350Y-105523200D01*
X126115350Y-105523200D02*
X126048683Y-105556533D01*
X126048683Y-105556533D02*
X125982017Y-105556533D01*
X125982017Y-105556533D02*
X125915350Y-105523200D01*
X125915350Y-105523200D02*
X125882017Y-105489866D01*
X125882017Y-105489866D02*
X125848683Y-105423200D01*
X125848683Y-105423200D02*
X125815350Y-105289866D01*
X125815350Y-105289866D02*
X125815350Y-105123200D01*
X125815350Y-105123200D02*
X125848683Y-104989866D01*
X125848683Y-104989866D02*
X125882017Y-104923200D01*
X125882017Y-104923200D02*
X125915350Y-104889866D01*
X125915350Y-104889866D02*
X125982017Y-104856533D01*
X156282017Y-77089866D02*
X156215350Y-77056533D01*
X156215350Y-77056533D02*
X156115350Y-77056533D01*
X156115350Y-77056533D02*
X156015350Y-77089866D01*
X156015350Y-77089866D02*
X155948684Y-77156533D01*
X155948684Y-77156533D02*
X155915350Y-77223200D01*
X155915350Y-77223200D02*
X155882017Y-77356533D01*
X155882017Y-77356533D02*
X155882017Y-77456533D01*
X155882017Y-77456533D02*
X155915350Y-77589866D01*
X155915350Y-77589866D02*
X155948684Y-77656533D01*
X155948684Y-77656533D02*
X156015350Y-77723200D01*
X156015350Y-77723200D02*
X156115350Y-77756533D01*
X156115350Y-77756533D02*
X156182017Y-77756533D01*
X156182017Y-77756533D02*
X156282017Y-77723200D01*
X156282017Y-77723200D02*
X156315350Y-77689866D01*
X156315350Y-77689866D02*
X156315350Y-77456533D01*
X156315350Y-77456533D02*
X156182017Y-77456533D01*
X156615350Y-77756533D02*
X156615350Y-77056533D01*
X156615350Y-77056533D02*
X156882017Y-77056533D01*
X156882017Y-77056533D02*
X156948684Y-77089866D01*
X156948684Y-77089866D02*
X156982017Y-77123200D01*
X156982017Y-77123200D02*
X157015350Y-77189866D01*
X157015350Y-77189866D02*
X157015350Y-77289866D01*
X157015350Y-77289866D02*
X156982017Y-77356533D01*
X156982017Y-77356533D02*
X156948684Y-77389866D01*
X156948684Y-77389866D02*
X156882017Y-77423200D01*
X156882017Y-77423200D02*
X156615350Y-77423200D01*
X157315350Y-77756533D02*
X157315350Y-77056533D01*
X157782017Y-77056533D02*
X157915350Y-77056533D01*
X157915350Y-77056533D02*
X157982017Y-77089866D01*
X157982017Y-77089866D02*
X158048683Y-77156533D01*
X158048683Y-77156533D02*
X158082017Y-77289866D01*
X158082017Y-77289866D02*
X158082017Y-77523200D01*
X158082017Y-77523200D02*
X158048683Y-77656533D01*
X158048683Y-77656533D02*
X157982017Y-77723200D01*
X157982017Y-77723200D02*
X157915350Y-77756533D01*
X157915350Y-77756533D02*
X157782017Y-77756533D01*
X157782017Y-77756533D02*
X157715350Y-77723200D01*
X157715350Y-77723200D02*
X157648683Y-77656533D01*
X157648683Y-77656533D02*
X157615350Y-77523200D01*
X157615350Y-77523200D02*
X157615350Y-77289866D01*
X157615350Y-77289866D02*
X157648683Y-77156533D01*
X157648683Y-77156533D02*
X157715350Y-77089866D01*
X157715350Y-77089866D02*
X157782017Y-77056533D01*
X158348683Y-77123200D02*
X158382016Y-77089866D01*
X158382016Y-77089866D02*
X158448683Y-77056533D01*
X158448683Y-77056533D02*
X158615350Y-77056533D01*
X158615350Y-77056533D02*
X158682016Y-77089866D01*
X158682016Y-77089866D02*
X158715350Y-77123200D01*
X158715350Y-77123200D02*
X158748683Y-77189866D01*
X158748683Y-77189866D02*
X158748683Y-77256533D01*
X158748683Y-77256533D02*
X158715350Y-77356533D01*
X158715350Y-77356533D02*
X158315350Y-77756533D01*
X158315350Y-77756533D02*
X158748683Y-77756533D01*
X159082017Y-77756533D02*
X159215350Y-77756533D01*
X159215350Y-77756533D02*
X159282017Y-77723200D01*
X159282017Y-77723200D02*
X159315350Y-77689866D01*
X159315350Y-77689866D02*
X159382017Y-77589866D01*
X159382017Y-77589866D02*
X159415350Y-77456533D01*
X159415350Y-77456533D02*
X159415350Y-77189866D01*
X159415350Y-77189866D02*
X159382017Y-77123200D01*
X159382017Y-77123200D02*
X159348683Y-77089866D01*
X159348683Y-77089866D02*
X159282017Y-77056533D01*
X159282017Y-77056533D02*
X159148683Y-77056533D01*
X159148683Y-77056533D02*
X159082017Y-77089866D01*
X159082017Y-77089866D02*
X159048683Y-77123200D01*
X159048683Y-77123200D02*
X159015350Y-77189866D01*
X159015350Y-77189866D02*
X159015350Y-77356533D01*
X159015350Y-77356533D02*
X159048683Y-77423200D01*
X159048683Y-77423200D02*
X159082017Y-77456533D01*
X159082017Y-77456533D02*
X159148683Y-77489866D01*
X159148683Y-77489866D02*
X159282017Y-77489866D01*
X159282017Y-77489866D02*
X159348683Y-77456533D01*
X159348683Y-77456533D02*
X159382017Y-77423200D01*
X159382017Y-77423200D02*
X159415350Y-77356533D01*
X159548684Y-77823200D02*
X160082017Y-77823200D01*
X160215350Y-77556533D02*
X160548683Y-77556533D01*
X160148683Y-77756533D02*
X160382017Y-77056533D01*
X160382017Y-77056533D02*
X160615350Y-77756533D01*
X160848683Y-77756533D02*
X160848683Y-77056533D01*
X160848683Y-77056533D02*
X161015350Y-77056533D01*
X161015350Y-77056533D02*
X161115350Y-77089866D01*
X161115350Y-77089866D02*
X161182017Y-77156533D01*
X161182017Y-77156533D02*
X161215350Y-77223200D01*
X161215350Y-77223200D02*
X161248683Y-77356533D01*
X161248683Y-77356533D02*
X161248683Y-77456533D01*
X161248683Y-77456533D02*
X161215350Y-77589866D01*
X161215350Y-77589866D02*
X161182017Y-77656533D01*
X161182017Y-77656533D02*
X161115350Y-77723200D01*
X161115350Y-77723200D02*
X161015350Y-77756533D01*
X161015350Y-77756533D02*
X160848683Y-77756533D01*
X161948683Y-77689866D02*
X161915350Y-77723200D01*
X161915350Y-77723200D02*
X161815350Y-77756533D01*
X161815350Y-77756533D02*
X161748683Y-77756533D01*
X161748683Y-77756533D02*
X161648683Y-77723200D01*
X161648683Y-77723200D02*
X161582017Y-77656533D01*
X161582017Y-77656533D02*
X161548683Y-77589866D01*
X161548683Y-77589866D02*
X161515350Y-77456533D01*
X161515350Y-77456533D02*
X161515350Y-77356533D01*
X161515350Y-77356533D02*
X161548683Y-77223200D01*
X161548683Y-77223200D02*
X161582017Y-77156533D01*
X161582017Y-77156533D02*
X161648683Y-77089866D01*
X161648683Y-77089866D02*
X161748683Y-77056533D01*
X161748683Y-77056533D02*
X161815350Y-77056533D01*
X161815350Y-77056533D02*
X161915350Y-77089866D01*
X161915350Y-77089866D02*
X161948683Y-77123200D01*
X162182017Y-77056533D02*
X162615350Y-77056533D01*
X162615350Y-77056533D02*
X162382017Y-77323200D01*
X162382017Y-77323200D02*
X162482017Y-77323200D01*
X162482017Y-77323200D02*
X162548683Y-77356533D01*
X162548683Y-77356533D02*
X162582017Y-77389866D01*
X162582017Y-77389866D02*
X162615350Y-77456533D01*
X162615350Y-77456533D02*
X162615350Y-77623200D01*
X162615350Y-77623200D02*
X162582017Y-77689866D01*
X162582017Y-77689866D02*
X162548683Y-77723200D01*
X162548683Y-77723200D02*
X162482017Y-77756533D01*
X162482017Y-77756533D02*
X162282017Y-77756533D01*
X162282017Y-77756533D02*
X162215350Y-77723200D01*
X162215350Y-77723200D02*
X162182017Y-77689866D01*
X161148684Y-113206533D02*
X160915351Y-112873200D01*
X160748684Y-113206533D02*
X160748684Y-112506533D01*
X160748684Y-112506533D02*
X161015351Y-112506533D01*
X161015351Y-112506533D02*
X161082018Y-112539866D01*
X161082018Y-112539866D02*
X161115351Y-112573200D01*
X161115351Y-112573200D02*
X161148684Y-112639866D01*
X161148684Y-112639866D02*
X161148684Y-112739866D01*
X161148684Y-112739866D02*
X161115351Y-112806533D01*
X161115351Y-112806533D02*
X161082018Y-112839866D01*
X161082018Y-112839866D02*
X161015351Y-112873200D01*
X161015351Y-112873200D02*
X160748684Y-112873200D01*
X161448684Y-112506533D02*
X161448684Y-113073200D01*
X161448684Y-113073200D02*
X161482018Y-113139866D01*
X161482018Y-113139866D02*
X161515351Y-113173200D01*
X161515351Y-113173200D02*
X161582018Y-113206533D01*
X161582018Y-113206533D02*
X161715351Y-113206533D01*
X161715351Y-113206533D02*
X161782018Y-113173200D01*
X161782018Y-113173200D02*
X161815351Y-113139866D01*
X161815351Y-113139866D02*
X161848684Y-113073200D01*
X161848684Y-113073200D02*
X161848684Y-112506533D01*
X162182017Y-113206533D02*
X162182017Y-112506533D01*
X162182017Y-112506533D02*
X162582017Y-113206533D01*
X162582017Y-113206533D02*
X162582017Y-112506533D01*
X123082017Y-84539866D02*
X123015350Y-84506533D01*
X123015350Y-84506533D02*
X122915350Y-84506533D01*
X122915350Y-84506533D02*
X122815350Y-84539866D01*
X122815350Y-84539866D02*
X122748684Y-84606533D01*
X122748684Y-84606533D02*
X122715350Y-84673200D01*
X122715350Y-84673200D02*
X122682017Y-84806533D01*
X122682017Y-84806533D02*
X122682017Y-84906533D01*
X122682017Y-84906533D02*
X122715350Y-85039866D01*
X122715350Y-85039866D02*
X122748684Y-85106533D01*
X122748684Y-85106533D02*
X122815350Y-85173200D01*
X122815350Y-85173200D02*
X122915350Y-85206533D01*
X122915350Y-85206533D02*
X122982017Y-85206533D01*
X122982017Y-85206533D02*
X123082017Y-85173200D01*
X123082017Y-85173200D02*
X123115350Y-85139866D01*
X123115350Y-85139866D02*
X123115350Y-84906533D01*
X123115350Y-84906533D02*
X122982017Y-84906533D01*
X123415350Y-85206533D02*
X123415350Y-84506533D01*
X123415350Y-84506533D02*
X123682017Y-84506533D01*
X123682017Y-84506533D02*
X123748684Y-84539866D01*
X123748684Y-84539866D02*
X123782017Y-84573200D01*
X123782017Y-84573200D02*
X123815350Y-84639866D01*
X123815350Y-84639866D02*
X123815350Y-84739866D01*
X123815350Y-84739866D02*
X123782017Y-84806533D01*
X123782017Y-84806533D02*
X123748684Y-84839866D01*
X123748684Y-84839866D02*
X123682017Y-84873200D01*
X123682017Y-84873200D02*
X123415350Y-84873200D01*
X124115350Y-85206533D02*
X124115350Y-84506533D01*
X124582017Y-84506533D02*
X124715350Y-84506533D01*
X124715350Y-84506533D02*
X124782017Y-84539866D01*
X124782017Y-84539866D02*
X124848683Y-84606533D01*
X124848683Y-84606533D02*
X124882017Y-84739866D01*
X124882017Y-84739866D02*
X124882017Y-84973200D01*
X124882017Y-84973200D02*
X124848683Y-85106533D01*
X124848683Y-85106533D02*
X124782017Y-85173200D01*
X124782017Y-85173200D02*
X124715350Y-85206533D01*
X124715350Y-85206533D02*
X124582017Y-85206533D01*
X124582017Y-85206533D02*
X124515350Y-85173200D01*
X124515350Y-85173200D02*
X124448683Y-85106533D01*
X124448683Y-85106533D02*
X124415350Y-84973200D01*
X124415350Y-84973200D02*
X124415350Y-84739866D01*
X124415350Y-84739866D02*
X124448683Y-84606533D01*
X124448683Y-84606533D02*
X124515350Y-84539866D01*
X124515350Y-84539866D02*
X124582017Y-84506533D01*
X125148683Y-84573200D02*
X125182016Y-84539866D01*
X125182016Y-84539866D02*
X125248683Y-84506533D01*
X125248683Y-84506533D02*
X125415350Y-84506533D01*
X125415350Y-84506533D02*
X125482016Y-84539866D01*
X125482016Y-84539866D02*
X125515350Y-84573200D01*
X125515350Y-84573200D02*
X125548683Y-84639866D01*
X125548683Y-84639866D02*
X125548683Y-84706533D01*
X125548683Y-84706533D02*
X125515350Y-84806533D01*
X125515350Y-84806533D02*
X125115350Y-85206533D01*
X125115350Y-85206533D02*
X125548683Y-85206533D01*
X159482017Y-92189866D02*
X159415350Y-92156533D01*
X159415350Y-92156533D02*
X159315350Y-92156533D01*
X159315350Y-92156533D02*
X159215350Y-92189866D01*
X159215350Y-92189866D02*
X159148684Y-92256533D01*
X159148684Y-92256533D02*
X159115350Y-92323200D01*
X159115350Y-92323200D02*
X159082017Y-92456533D01*
X159082017Y-92456533D02*
X159082017Y-92556533D01*
X159082017Y-92556533D02*
X159115350Y-92689866D01*
X159115350Y-92689866D02*
X159148684Y-92756533D01*
X159148684Y-92756533D02*
X159215350Y-92823200D01*
X159215350Y-92823200D02*
X159315350Y-92856533D01*
X159315350Y-92856533D02*
X159382017Y-92856533D01*
X159382017Y-92856533D02*
X159482017Y-92823200D01*
X159482017Y-92823200D02*
X159515350Y-92789866D01*
X159515350Y-92789866D02*
X159515350Y-92556533D01*
X159515350Y-92556533D02*
X159382017Y-92556533D01*
X159815350Y-92856533D02*
X159815350Y-92156533D01*
X159815350Y-92156533D02*
X160082017Y-92156533D01*
X160082017Y-92156533D02*
X160148684Y-92189866D01*
X160148684Y-92189866D02*
X160182017Y-92223200D01*
X160182017Y-92223200D02*
X160215350Y-92289866D01*
X160215350Y-92289866D02*
X160215350Y-92389866D01*
X160215350Y-92389866D02*
X160182017Y-92456533D01*
X160182017Y-92456533D02*
X160148684Y-92489866D01*
X160148684Y-92489866D02*
X160082017Y-92523200D01*
X160082017Y-92523200D02*
X159815350Y-92523200D01*
X160515350Y-92856533D02*
X160515350Y-92156533D01*
X160982017Y-92156533D02*
X161115350Y-92156533D01*
X161115350Y-92156533D02*
X161182017Y-92189866D01*
X161182017Y-92189866D02*
X161248683Y-92256533D01*
X161248683Y-92256533D02*
X161282017Y-92389866D01*
X161282017Y-92389866D02*
X161282017Y-92623200D01*
X161282017Y-92623200D02*
X161248683Y-92756533D01*
X161248683Y-92756533D02*
X161182017Y-92823200D01*
X161182017Y-92823200D02*
X161115350Y-92856533D01*
X161115350Y-92856533D02*
X160982017Y-92856533D01*
X160982017Y-92856533D02*
X160915350Y-92823200D01*
X160915350Y-92823200D02*
X160848683Y-92756533D01*
X160848683Y-92756533D02*
X160815350Y-92623200D01*
X160815350Y-92623200D02*
X160815350Y-92389866D01*
X160815350Y-92389866D02*
X160848683Y-92256533D01*
X160848683Y-92256533D02*
X160915350Y-92189866D01*
X160915350Y-92189866D02*
X160982017Y-92156533D01*
X161548683Y-92223200D02*
X161582016Y-92189866D01*
X161582016Y-92189866D02*
X161648683Y-92156533D01*
X161648683Y-92156533D02*
X161815350Y-92156533D01*
X161815350Y-92156533D02*
X161882016Y-92189866D01*
X161882016Y-92189866D02*
X161915350Y-92223200D01*
X161915350Y-92223200D02*
X161948683Y-92289866D01*
X161948683Y-92289866D02*
X161948683Y-92356533D01*
X161948683Y-92356533D02*
X161915350Y-92456533D01*
X161915350Y-92456533D02*
X161515350Y-92856533D01*
X161515350Y-92856533D02*
X161948683Y-92856533D01*
X162182017Y-92156533D02*
X162615350Y-92156533D01*
X162615350Y-92156533D02*
X162382017Y-92423200D01*
X162382017Y-92423200D02*
X162482017Y-92423200D01*
X162482017Y-92423200D02*
X162548683Y-92456533D01*
X162548683Y-92456533D02*
X162582017Y-92489866D01*
X162582017Y-92489866D02*
X162615350Y-92556533D01*
X162615350Y-92556533D02*
X162615350Y-92723200D01*
X162615350Y-92723200D02*
X162582017Y-92789866D01*
X162582017Y-92789866D02*
X162548683Y-92823200D01*
X162548683Y-92823200D02*
X162482017Y-92856533D01*
X162482017Y-92856533D02*
X162282017Y-92856533D01*
X162282017Y-92856533D02*
X162215350Y-92823200D01*
X162215350Y-92823200D02*
X162182017Y-92789866D01*
X156282017Y-82189866D02*
X156215350Y-82156533D01*
X156215350Y-82156533D02*
X156115350Y-82156533D01*
X156115350Y-82156533D02*
X156015350Y-82189866D01*
X156015350Y-82189866D02*
X155948684Y-82256533D01*
X155948684Y-82256533D02*
X155915350Y-82323200D01*
X155915350Y-82323200D02*
X155882017Y-82456533D01*
X155882017Y-82456533D02*
X155882017Y-82556533D01*
X155882017Y-82556533D02*
X155915350Y-82689866D01*
X155915350Y-82689866D02*
X155948684Y-82756533D01*
X155948684Y-82756533D02*
X156015350Y-82823200D01*
X156015350Y-82823200D02*
X156115350Y-82856533D01*
X156115350Y-82856533D02*
X156182017Y-82856533D01*
X156182017Y-82856533D02*
X156282017Y-82823200D01*
X156282017Y-82823200D02*
X156315350Y-82789866D01*
X156315350Y-82789866D02*
X156315350Y-82556533D01*
X156315350Y-82556533D02*
X156182017Y-82556533D01*
X156615350Y-82856533D02*
X156615350Y-82156533D01*
X156615350Y-82156533D02*
X156882017Y-82156533D01*
X156882017Y-82156533D02*
X156948684Y-82189866D01*
X156948684Y-82189866D02*
X156982017Y-82223200D01*
X156982017Y-82223200D02*
X157015350Y-82289866D01*
X157015350Y-82289866D02*
X157015350Y-82389866D01*
X157015350Y-82389866D02*
X156982017Y-82456533D01*
X156982017Y-82456533D02*
X156948684Y-82489866D01*
X156948684Y-82489866D02*
X156882017Y-82523200D01*
X156882017Y-82523200D02*
X156615350Y-82523200D01*
X157315350Y-82856533D02*
X157315350Y-82156533D01*
X157782017Y-82156533D02*
X157915350Y-82156533D01*
X157915350Y-82156533D02*
X157982017Y-82189866D01*
X157982017Y-82189866D02*
X158048683Y-82256533D01*
X158048683Y-82256533D02*
X158082017Y-82389866D01*
X158082017Y-82389866D02*
X158082017Y-82623200D01*
X158082017Y-82623200D02*
X158048683Y-82756533D01*
X158048683Y-82756533D02*
X157982017Y-82823200D01*
X157982017Y-82823200D02*
X157915350Y-82856533D01*
X157915350Y-82856533D02*
X157782017Y-82856533D01*
X157782017Y-82856533D02*
X157715350Y-82823200D01*
X157715350Y-82823200D02*
X157648683Y-82756533D01*
X157648683Y-82756533D02*
X157615350Y-82623200D01*
X157615350Y-82623200D02*
X157615350Y-82389866D01*
X157615350Y-82389866D02*
X157648683Y-82256533D01*
X157648683Y-82256533D02*
X157715350Y-82189866D01*
X157715350Y-82189866D02*
X157782017Y-82156533D01*
X158348683Y-82223200D02*
X158382016Y-82189866D01*
X158382016Y-82189866D02*
X158448683Y-82156533D01*
X158448683Y-82156533D02*
X158615350Y-82156533D01*
X158615350Y-82156533D02*
X158682016Y-82189866D01*
X158682016Y-82189866D02*
X158715350Y-82223200D01*
X158715350Y-82223200D02*
X158748683Y-82289866D01*
X158748683Y-82289866D02*
X158748683Y-82356533D01*
X158748683Y-82356533D02*
X158715350Y-82456533D01*
X158715350Y-82456533D02*
X158315350Y-82856533D01*
X158315350Y-82856533D02*
X158748683Y-82856533D01*
X158982017Y-82156533D02*
X159448683Y-82156533D01*
X159448683Y-82156533D02*
X159148683Y-82856533D01*
X159548684Y-82923200D02*
X160082017Y-82923200D01*
X160215350Y-82656533D02*
X160548683Y-82656533D01*
X160148683Y-82856533D02*
X160382017Y-82156533D01*
X160382017Y-82156533D02*
X160615350Y-82856533D01*
X160848683Y-82856533D02*
X160848683Y-82156533D01*
X160848683Y-82156533D02*
X161015350Y-82156533D01*
X161015350Y-82156533D02*
X161115350Y-82189866D01*
X161115350Y-82189866D02*
X161182017Y-82256533D01*
X161182017Y-82256533D02*
X161215350Y-82323200D01*
X161215350Y-82323200D02*
X161248683Y-82456533D01*
X161248683Y-82456533D02*
X161248683Y-82556533D01*
X161248683Y-82556533D02*
X161215350Y-82689866D01*
X161215350Y-82689866D02*
X161182017Y-82756533D01*
X161182017Y-82756533D02*
X161115350Y-82823200D01*
X161115350Y-82823200D02*
X161015350Y-82856533D01*
X161015350Y-82856533D02*
X160848683Y-82856533D01*
X161948683Y-82789866D02*
X161915350Y-82823200D01*
X161915350Y-82823200D02*
X161815350Y-82856533D01*
X161815350Y-82856533D02*
X161748683Y-82856533D01*
X161748683Y-82856533D02*
X161648683Y-82823200D01*
X161648683Y-82823200D02*
X161582017Y-82756533D01*
X161582017Y-82756533D02*
X161548683Y-82689866D01*
X161548683Y-82689866D02*
X161515350Y-82556533D01*
X161515350Y-82556533D02*
X161515350Y-82456533D01*
X161515350Y-82456533D02*
X161548683Y-82323200D01*
X161548683Y-82323200D02*
X161582017Y-82256533D01*
X161582017Y-82256533D02*
X161648683Y-82189866D01*
X161648683Y-82189866D02*
X161748683Y-82156533D01*
X161748683Y-82156533D02*
X161815350Y-82156533D01*
X161815350Y-82156533D02*
X161915350Y-82189866D01*
X161915350Y-82189866D02*
X161948683Y-82223200D01*
X162615350Y-82856533D02*
X162215350Y-82856533D01*
X162415350Y-82856533D02*
X162415350Y-82156533D01*
X162415350Y-82156533D02*
X162348683Y-82256533D01*
X162348683Y-82256533D02*
X162282017Y-82323200D01*
X162282017Y-82323200D02*
X162215350Y-82356533D01*
X120432017Y-122089866D02*
X120365350Y-122056533D01*
X120365350Y-122056533D02*
X120265350Y-122056533D01*
X120265350Y-122056533D02*
X120165350Y-122089866D01*
X120165350Y-122089866D02*
X120098684Y-122156533D01*
X120098684Y-122156533D02*
X120065350Y-122223200D01*
X120065350Y-122223200D02*
X120032017Y-122356533D01*
X120032017Y-122356533D02*
X120032017Y-122456533D01*
X120032017Y-122456533D02*
X120065350Y-122589866D01*
X120065350Y-122589866D02*
X120098684Y-122656533D01*
X120098684Y-122656533D02*
X120165350Y-122723200D01*
X120165350Y-122723200D02*
X120265350Y-122756533D01*
X120265350Y-122756533D02*
X120332017Y-122756533D01*
X120332017Y-122756533D02*
X120432017Y-122723200D01*
X120432017Y-122723200D02*
X120465350Y-122689866D01*
X120465350Y-122689866D02*
X120465350Y-122456533D01*
X120465350Y-122456533D02*
X120332017Y-122456533D01*
X120765350Y-122756533D02*
X120765350Y-122056533D01*
X120765350Y-122056533D02*
X121165350Y-122756533D01*
X121165350Y-122756533D02*
X121165350Y-122056533D01*
X121498683Y-122756533D02*
X121498683Y-122056533D01*
X121498683Y-122056533D02*
X121665350Y-122056533D01*
X121665350Y-122056533D02*
X121765350Y-122089866D01*
X121765350Y-122089866D02*
X121832017Y-122156533D01*
X121832017Y-122156533D02*
X121865350Y-122223200D01*
X121865350Y-122223200D02*
X121898683Y-122356533D01*
X121898683Y-122356533D02*
X121898683Y-122456533D01*
X121898683Y-122456533D02*
X121865350Y-122589866D01*
X121865350Y-122589866D02*
X121832017Y-122656533D01*
X121832017Y-122656533D02*
X121765350Y-122723200D01*
X121765350Y-122723200D02*
X121665350Y-122756533D01*
X121665350Y-122756533D02*
X121498683Y-122756533D01*
X155629819Y-127242857D02*
X155153628Y-127576190D01*
X155629819Y-127814285D02*
X154629819Y-127814285D01*
X154629819Y-127814285D02*
X154629819Y-127433333D01*
X154629819Y-127433333D02*
X154677438Y-127338095D01*
X154677438Y-127338095D02*
X154725057Y-127290476D01*
X154725057Y-127290476D02*
X154820295Y-127242857D01*
X154820295Y-127242857D02*
X154963152Y-127242857D01*
X154963152Y-127242857D02*
X155058390Y-127290476D01*
X155058390Y-127290476D02*
X155106009Y-127338095D01*
X155106009Y-127338095D02*
X155153628Y-127433333D01*
X155153628Y-127433333D02*
X155153628Y-127814285D01*
X155629819Y-126290476D02*
X155629819Y-126861904D01*
X155629819Y-126576190D02*
X154629819Y-126576190D01*
X154629819Y-126576190D02*
X154772676Y-126671428D01*
X154772676Y-126671428D02*
X154867914Y-126766666D01*
X154867914Y-126766666D02*
X154915533Y-126861904D01*
X154725057Y-125909523D02*
X154677438Y-125861904D01*
X154677438Y-125861904D02*
X154629819Y-125766666D01*
X154629819Y-125766666D02*
X154629819Y-125528571D01*
X154629819Y-125528571D02*
X154677438Y-125433333D01*
X154677438Y-125433333D02*
X154725057Y-125385714D01*
X154725057Y-125385714D02*
X154820295Y-125338095D01*
X154820295Y-125338095D02*
X154915533Y-125338095D01*
X154915533Y-125338095D02*
X155058390Y-125385714D01*
X155058390Y-125385714D02*
X155629819Y-125957142D01*
X155629819Y-125957142D02*
X155629819Y-125338095D01*
X152941667Y-130482200D02*
X153084524Y-130529819D01*
X153084524Y-130529819D02*
X153322619Y-130529819D01*
X153322619Y-130529819D02*
X153417857Y-130482200D01*
X153417857Y-130482200D02*
X153465476Y-130434580D01*
X153465476Y-130434580D02*
X153513095Y-130339342D01*
X153513095Y-130339342D02*
X153513095Y-130244104D01*
X153513095Y-130244104D02*
X153465476Y-130148866D01*
X153465476Y-130148866D02*
X153417857Y-130101247D01*
X153417857Y-130101247D02*
X153322619Y-130053628D01*
X153322619Y-130053628D02*
X153132143Y-130006009D01*
X153132143Y-130006009D02*
X153036905Y-129958390D01*
X153036905Y-129958390D02*
X152989286Y-129910771D01*
X152989286Y-129910771D02*
X152941667Y-129815533D01*
X152941667Y-129815533D02*
X152941667Y-129720295D01*
X152941667Y-129720295D02*
X152989286Y-129625057D01*
X152989286Y-129625057D02*
X153036905Y-129577438D01*
X153036905Y-129577438D02*
X153132143Y-129529819D01*
X153132143Y-129529819D02*
X153370238Y-129529819D01*
X153370238Y-129529819D02*
X153513095Y-129577438D01*
X153846429Y-129529819D02*
X154084524Y-130529819D01*
X154084524Y-130529819D02*
X154275000Y-129815533D01*
X154275000Y-129815533D02*
X154465476Y-130529819D01*
X154465476Y-130529819D02*
X154703572Y-129529819D01*
X155036905Y-129625057D02*
X155084524Y-129577438D01*
X155084524Y-129577438D02*
X155179762Y-129529819D01*
X155179762Y-129529819D02*
X155417857Y-129529819D01*
X155417857Y-129529819D02*
X155513095Y-129577438D01*
X155513095Y-129577438D02*
X155560714Y-129625057D01*
X155560714Y-129625057D02*
X155608333Y-129720295D01*
X155608333Y-129720295D02*
X155608333Y-129815533D01*
X155608333Y-129815533D02*
X155560714Y-129958390D01*
X155560714Y-129958390D02*
X154989286Y-130529819D01*
X154989286Y-130529819D02*
X155608333Y-130529819D01*
X143678095Y-116684819D02*
X143678095Y-117494342D01*
X143678095Y-117494342D02*
X143725714Y-117589580D01*
X143725714Y-117589580D02*
X143773333Y-117637200D01*
X143773333Y-117637200D02*
X143868571Y-117684819D01*
X143868571Y-117684819D02*
X144059047Y-117684819D01*
X144059047Y-117684819D02*
X144154285Y-117637200D01*
X144154285Y-117637200D02*
X144201904Y-117589580D01*
X144201904Y-117589580D02*
X144249523Y-117494342D01*
X144249523Y-117494342D02*
X144249523Y-116684819D01*
X145249523Y-117684819D02*
X144678095Y-117684819D01*
X144963809Y-117684819D02*
X144963809Y-116684819D01*
X144963809Y-116684819D02*
X144868571Y-116827676D01*
X144868571Y-116827676D02*
X144773333Y-116922914D01*
X144773333Y-116922914D02*
X144678095Y-116970533D01*
X146529580Y-78047857D02*
X146577200Y-78095476D01*
X146577200Y-78095476D02*
X146624819Y-78238333D01*
X146624819Y-78238333D02*
X146624819Y-78333571D01*
X146624819Y-78333571D02*
X146577200Y-78476428D01*
X146577200Y-78476428D02*
X146481961Y-78571666D01*
X146481961Y-78571666D02*
X146386723Y-78619285D01*
X146386723Y-78619285D02*
X146196247Y-78666904D01*
X146196247Y-78666904D02*
X146053390Y-78666904D01*
X146053390Y-78666904D02*
X145862914Y-78619285D01*
X145862914Y-78619285D02*
X145767676Y-78571666D01*
X145767676Y-78571666D02*
X145672438Y-78476428D01*
X145672438Y-78476428D02*
X145624819Y-78333571D01*
X145624819Y-78333571D02*
X145624819Y-78238333D01*
X145624819Y-78238333D02*
X145672438Y-78095476D01*
X145672438Y-78095476D02*
X145720057Y-78047857D01*
X146624819Y-77095476D02*
X146624819Y-77666904D01*
X146624819Y-77381190D02*
X145624819Y-77381190D01*
X145624819Y-77381190D02*
X145767676Y-77476428D01*
X145767676Y-77476428D02*
X145862914Y-77571666D01*
X145862914Y-77571666D02*
X145910533Y-77666904D01*
X145624819Y-76762142D02*
X145624819Y-76095476D01*
X145624819Y-76095476D02*
X146624819Y-76524047D01*
X120586666Y-74340819D02*
X120586666Y-75055104D01*
X120586666Y-75055104D02*
X120539047Y-75197961D01*
X120539047Y-75197961D02*
X120443809Y-75293200D01*
X120443809Y-75293200D02*
X120300952Y-75340819D01*
X120300952Y-75340819D02*
X120205714Y-75340819D01*
X121015238Y-74436057D02*
X121062857Y-74388438D01*
X121062857Y-74388438D02*
X121158095Y-74340819D01*
X121158095Y-74340819D02*
X121396190Y-74340819D01*
X121396190Y-74340819D02*
X121491428Y-74388438D01*
X121491428Y-74388438D02*
X121539047Y-74436057D01*
X121539047Y-74436057D02*
X121586666Y-74531295D01*
X121586666Y-74531295D02*
X121586666Y-74626533D01*
X121586666Y-74626533D02*
X121539047Y-74769390D01*
X121539047Y-74769390D02*
X120967619Y-75340819D01*
X120967619Y-75340819D02*
X121586666Y-75340819D01*
X137888095Y-126394819D02*
X137888095Y-127204342D01*
X137888095Y-127204342D02*
X137935714Y-127299580D01*
X137935714Y-127299580D02*
X137983333Y-127347200D01*
X137983333Y-127347200D02*
X138078571Y-127394819D01*
X138078571Y-127394819D02*
X138269047Y-127394819D01*
X138269047Y-127394819D02*
X138364285Y-127347200D01*
X138364285Y-127347200D02*
X138411904Y-127299580D01*
X138411904Y-127299580D02*
X138459523Y-127204342D01*
X138459523Y-127204342D02*
X138459523Y-126394819D01*
X139411904Y-126394819D02*
X138935714Y-126394819D01*
X138935714Y-126394819D02*
X138888095Y-126871009D01*
X138888095Y-126871009D02*
X138935714Y-126823390D01*
X138935714Y-126823390D02*
X139030952Y-126775771D01*
X139030952Y-126775771D02*
X139269047Y-126775771D01*
X139269047Y-126775771D02*
X139364285Y-126823390D01*
X139364285Y-126823390D02*
X139411904Y-126871009D01*
X139411904Y-126871009D02*
X139459523Y-126966247D01*
X139459523Y-126966247D02*
X139459523Y-127204342D01*
X139459523Y-127204342D02*
X139411904Y-127299580D01*
X139411904Y-127299580D02*
X139364285Y-127347200D01*
X139364285Y-127347200D02*
X139269047Y-127394819D01*
X139269047Y-127394819D02*
X139030952Y-127394819D01*
X139030952Y-127394819D02*
X138935714Y-127347200D01*
X138935714Y-127347200D02*
X138888095Y-127299580D01*
X157404819Y-123160094D02*
X156404819Y-123160094D01*
X156404819Y-123160094D02*
X156404819Y-122921999D01*
X156404819Y-122921999D02*
X156452438Y-122779142D01*
X156452438Y-122779142D02*
X156547676Y-122683904D01*
X156547676Y-122683904D02*
X156642914Y-122636285D01*
X156642914Y-122636285D02*
X156833390Y-122588666D01*
X156833390Y-122588666D02*
X156976247Y-122588666D01*
X156976247Y-122588666D02*
X157166723Y-122636285D01*
X157166723Y-122636285D02*
X157261961Y-122683904D01*
X157261961Y-122683904D02*
X157357200Y-122779142D01*
X157357200Y-122779142D02*
X157404819Y-122921999D01*
X157404819Y-122921999D02*
X157404819Y-123160094D01*
X157404819Y-121636285D02*
X157404819Y-122207713D01*
X157404819Y-121921999D02*
X156404819Y-121921999D01*
X156404819Y-121921999D02*
X156547676Y-122017237D01*
X156547676Y-122017237D02*
X156642914Y-122112475D01*
X156642914Y-122112475D02*
X156690533Y-122207713D01*
X163806666Y-74340819D02*
X163806666Y-75055104D01*
X163806666Y-75055104D02*
X163759047Y-75197961D01*
X163759047Y-75197961D02*
X163663809Y-75293200D01*
X163663809Y-75293200D02*
X163520952Y-75340819D01*
X163520952Y-75340819D02*
X163425714Y-75340819D01*
X164711428Y-74674152D02*
X164711428Y-75340819D01*
X164473333Y-74293200D02*
X164235238Y-75007485D01*
X164235238Y-75007485D02*
X164854285Y-75007485D01*
X145695319Y-83224666D02*
X145219128Y-83557999D01*
X145695319Y-83796094D02*
X144695319Y-83796094D01*
X144695319Y-83796094D02*
X144695319Y-83415142D01*
X144695319Y-83415142D02*
X144742938Y-83319904D01*
X144742938Y-83319904D02*
X144790557Y-83272285D01*
X144790557Y-83272285D02*
X144885795Y-83224666D01*
X144885795Y-83224666D02*
X145028652Y-83224666D01*
X145028652Y-83224666D02*
X145123890Y-83272285D01*
X145123890Y-83272285D02*
X145171509Y-83319904D01*
X145171509Y-83319904D02*
X145219128Y-83415142D01*
X145219128Y-83415142D02*
X145219128Y-83796094D01*
X144790557Y-82843713D02*
X144742938Y-82796094D01*
X144742938Y-82796094D02*
X144695319Y-82700856D01*
X144695319Y-82700856D02*
X144695319Y-82462761D01*
X144695319Y-82462761D02*
X144742938Y-82367523D01*
X144742938Y-82367523D02*
X144790557Y-82319904D01*
X144790557Y-82319904D02*
X144885795Y-82272285D01*
X144885795Y-82272285D02*
X144981033Y-82272285D01*
X144981033Y-82272285D02*
X145123890Y-82319904D01*
X145123890Y-82319904D02*
X145695319Y-82891332D01*
X145695319Y-82891332D02*
X145695319Y-82272285D01*
X152193666Y-119850819D02*
X152193666Y-120565104D01*
X152193666Y-120565104D02*
X152146047Y-120707961D01*
X152146047Y-120707961D02*
X152050809Y-120803200D01*
X152050809Y-120803200D02*
X151907952Y-120850819D01*
X151907952Y-120850819D02*
X151812714Y-120850819D01*
X152574619Y-119850819D02*
X153193666Y-119850819D01*
X153193666Y-119850819D02*
X152860333Y-120231771D01*
X152860333Y-120231771D02*
X153003190Y-120231771D01*
X153003190Y-120231771D02*
X153098428Y-120279390D01*
X153098428Y-120279390D02*
X153146047Y-120327009D01*
X153146047Y-120327009D02*
X153193666Y-120422247D01*
X153193666Y-120422247D02*
X153193666Y-120660342D01*
X153193666Y-120660342D02*
X153146047Y-120755580D01*
X153146047Y-120755580D02*
X153098428Y-120803200D01*
X153098428Y-120803200D02*
X153003190Y-120850819D01*
X153003190Y-120850819D02*
X152717476Y-120850819D01*
X152717476Y-120850819D02*
X152622238Y-120803200D01*
X152622238Y-120803200D02*
X152574619Y-120755580D01*
X142446033Y-100670000D02*
X142112700Y-100903333D01*
X142446033Y-101070000D02*
X141746033Y-101070000D01*
X141746033Y-101070000D02*
X141746033Y-100803333D01*
X141746033Y-100803333D02*
X141779366Y-100736667D01*
X141779366Y-100736667D02*
X141812700Y-100703333D01*
X141812700Y-100703333D02*
X141879366Y-100670000D01*
X141879366Y-100670000D02*
X141979366Y-100670000D01*
X141979366Y-100670000D02*
X142046033Y-100703333D01*
X142046033Y-100703333D02*
X142079366Y-100736667D01*
X142079366Y-100736667D02*
X142112700Y-100803333D01*
X142112700Y-100803333D02*
X142112700Y-101070000D01*
X142446033Y-100003333D02*
X142446033Y-100403333D01*
X142446033Y-100203333D02*
X141746033Y-100203333D01*
X141746033Y-100203333D02*
X141846033Y-100270000D01*
X141846033Y-100270000D02*
X141912700Y-100336667D01*
X141912700Y-100336667D02*
X141946033Y-100403333D01*
X142446033Y-99336666D02*
X142446033Y-99736666D01*
X142446033Y-99536666D02*
X141746033Y-99536666D01*
X141746033Y-99536666D02*
X141846033Y-99603333D01*
X141846033Y-99603333D02*
X141912700Y-99670000D01*
X141912700Y-99670000D02*
X141946033Y-99736666D01*
X153902580Y-83224666D02*
X153950200Y-83272285D01*
X153950200Y-83272285D02*
X153997819Y-83415142D01*
X153997819Y-83415142D02*
X153997819Y-83510380D01*
X153997819Y-83510380D02*
X153950200Y-83653237D01*
X153950200Y-83653237D02*
X153854961Y-83748475D01*
X153854961Y-83748475D02*
X153759723Y-83796094D01*
X153759723Y-83796094D02*
X153569247Y-83843713D01*
X153569247Y-83843713D02*
X153426390Y-83843713D01*
X153426390Y-83843713D02*
X153235914Y-83796094D01*
X153235914Y-83796094D02*
X153140676Y-83748475D01*
X153140676Y-83748475D02*
X153045438Y-83653237D01*
X153045438Y-83653237D02*
X152997819Y-83510380D01*
X152997819Y-83510380D02*
X152997819Y-83415142D01*
X152997819Y-83415142D02*
X153045438Y-83272285D01*
X153045438Y-83272285D02*
X153093057Y-83224666D01*
X152997819Y-82891332D02*
X152997819Y-82224666D01*
X152997819Y-82224666D02*
X153997819Y-82653237D01*
X139343333Y-119729580D02*
X139295714Y-119777200D01*
X139295714Y-119777200D02*
X139152857Y-119824819D01*
X139152857Y-119824819D02*
X139057619Y-119824819D01*
X139057619Y-119824819D02*
X138914762Y-119777200D01*
X138914762Y-119777200D02*
X138819524Y-119681961D01*
X138819524Y-119681961D02*
X138771905Y-119586723D01*
X138771905Y-119586723D02*
X138724286Y-119396247D01*
X138724286Y-119396247D02*
X138724286Y-119253390D01*
X138724286Y-119253390D02*
X138771905Y-119062914D01*
X138771905Y-119062914D02*
X138819524Y-118967676D01*
X138819524Y-118967676D02*
X138914762Y-118872438D01*
X138914762Y-118872438D02*
X139057619Y-118824819D01*
X139057619Y-118824819D02*
X139152857Y-118824819D01*
X139152857Y-118824819D02*
X139295714Y-118872438D01*
X139295714Y-118872438D02*
X139343333Y-118920057D01*
X140295714Y-119824819D02*
X139724286Y-119824819D01*
X140010000Y-119824819D02*
X140010000Y-118824819D01*
X140010000Y-118824819D02*
X139914762Y-118967676D01*
X139914762Y-118967676D02*
X139819524Y-119062914D01*
X139819524Y-119062914D02*
X139724286Y-119110533D01*
X134580333Y-89640580D02*
X134532714Y-89688200D01*
X134532714Y-89688200D02*
X134389857Y-89735819D01*
X134389857Y-89735819D02*
X134294619Y-89735819D01*
X134294619Y-89735819D02*
X134151762Y-89688200D01*
X134151762Y-89688200D02*
X134056524Y-89592961D01*
X134056524Y-89592961D02*
X134008905Y-89497723D01*
X134008905Y-89497723D02*
X133961286Y-89307247D01*
X133961286Y-89307247D02*
X133961286Y-89164390D01*
X133961286Y-89164390D02*
X134008905Y-88973914D01*
X134008905Y-88973914D02*
X134056524Y-88878676D01*
X134056524Y-88878676D02*
X134151762Y-88783438D01*
X134151762Y-88783438D02*
X134294619Y-88735819D01*
X134294619Y-88735819D02*
X134389857Y-88735819D01*
X134389857Y-88735819D02*
X134532714Y-88783438D01*
X134532714Y-88783438D02*
X134580333Y-88831057D01*
X135151762Y-89164390D02*
X135056524Y-89116771D01*
X135056524Y-89116771D02*
X135008905Y-89069152D01*
X135008905Y-89069152D02*
X134961286Y-88973914D01*
X134961286Y-88973914D02*
X134961286Y-88926295D01*
X134961286Y-88926295D02*
X135008905Y-88831057D01*
X135008905Y-88831057D02*
X135056524Y-88783438D01*
X135056524Y-88783438D02*
X135151762Y-88735819D01*
X135151762Y-88735819D02*
X135342238Y-88735819D01*
X135342238Y-88735819D02*
X135437476Y-88783438D01*
X135437476Y-88783438D02*
X135485095Y-88831057D01*
X135485095Y-88831057D02*
X135532714Y-88926295D01*
X135532714Y-88926295D02*
X135532714Y-88973914D01*
X135532714Y-88973914D02*
X135485095Y-89069152D01*
X135485095Y-89069152D02*
X135437476Y-89116771D01*
X135437476Y-89116771D02*
X135342238Y-89164390D01*
X135342238Y-89164390D02*
X135151762Y-89164390D01*
X135151762Y-89164390D02*
X135056524Y-89212009D01*
X135056524Y-89212009D02*
X135008905Y-89259628D01*
X135008905Y-89259628D02*
X134961286Y-89354866D01*
X134961286Y-89354866D02*
X134961286Y-89545342D01*
X134961286Y-89545342D02*
X135008905Y-89640580D01*
X135008905Y-89640580D02*
X135056524Y-89688200D01*
X135056524Y-89688200D02*
X135151762Y-89735819D01*
X135151762Y-89735819D02*
X135342238Y-89735819D01*
X135342238Y-89735819D02*
X135437476Y-89688200D01*
X135437476Y-89688200D02*
X135485095Y-89640580D01*
X135485095Y-89640580D02*
X135532714Y-89545342D01*
X135532714Y-89545342D02*
X135532714Y-89354866D01*
X135532714Y-89354866D02*
X135485095Y-89259628D01*
X135485095Y-89259628D02*
X135437476Y-89212009D01*
X135437476Y-89212009D02*
X135342238Y-89164390D01*
X146282580Y-103385857D02*
X146330200Y-103433476D01*
X146330200Y-103433476D02*
X146377819Y-103576333D01*
X146377819Y-103576333D02*
X146377819Y-103671571D01*
X146377819Y-103671571D02*
X146330200Y-103814428D01*
X146330200Y-103814428D02*
X146234961Y-103909666D01*
X146234961Y-103909666D02*
X146139723Y-103957285D01*
X146139723Y-103957285D02*
X145949247Y-104004904D01*
X145949247Y-104004904D02*
X145806390Y-104004904D01*
X145806390Y-104004904D02*
X145615914Y-103957285D01*
X145615914Y-103957285D02*
X145520676Y-103909666D01*
X145520676Y-103909666D02*
X145425438Y-103814428D01*
X145425438Y-103814428D02*
X145377819Y-103671571D01*
X145377819Y-103671571D02*
X145377819Y-103576333D01*
X145377819Y-103576333D02*
X145425438Y-103433476D01*
X145425438Y-103433476D02*
X145473057Y-103385857D01*
X146377819Y-102433476D02*
X146377819Y-103004904D01*
X146377819Y-102719190D02*
X145377819Y-102719190D01*
X145377819Y-102719190D02*
X145520676Y-102814428D01*
X145520676Y-102814428D02*
X145615914Y-102909666D01*
X145615914Y-102909666D02*
X145663533Y-103004904D01*
X145711152Y-101576333D02*
X146377819Y-101576333D01*
X145330200Y-101814428D02*
X146044485Y-102052523D01*
X146044485Y-102052523D02*
X146044485Y-101433476D01*
X147332580Y-83162166D02*
X147380200Y-83209785D01*
X147380200Y-83209785D02*
X147427819Y-83352642D01*
X147427819Y-83352642D02*
X147427819Y-83447880D01*
X147427819Y-83447880D02*
X147380200Y-83590737D01*
X147380200Y-83590737D02*
X147284961Y-83685975D01*
X147284961Y-83685975D02*
X147189723Y-83733594D01*
X147189723Y-83733594D02*
X146999247Y-83781213D01*
X146999247Y-83781213D02*
X146856390Y-83781213D01*
X146856390Y-83781213D02*
X146665914Y-83733594D01*
X146665914Y-83733594D02*
X146570676Y-83685975D01*
X146570676Y-83685975D02*
X146475438Y-83590737D01*
X146475438Y-83590737D02*
X146427819Y-83447880D01*
X146427819Y-83447880D02*
X146427819Y-83352642D01*
X146427819Y-83352642D02*
X146475438Y-83209785D01*
X146475438Y-83209785D02*
X146523057Y-83162166D01*
X146427819Y-82828832D02*
X146427819Y-82209785D01*
X146427819Y-82209785D02*
X146808771Y-82543118D01*
X146808771Y-82543118D02*
X146808771Y-82400261D01*
X146808771Y-82400261D02*
X146856390Y-82305023D01*
X146856390Y-82305023D02*
X146904009Y-82257404D01*
X146904009Y-82257404D02*
X146999247Y-82209785D01*
X146999247Y-82209785D02*
X147237342Y-82209785D01*
X147237342Y-82209785D02*
X147332580Y-82257404D01*
X147332580Y-82257404D02*
X147380200Y-82305023D01*
X147380200Y-82305023D02*
X147427819Y-82400261D01*
X147427819Y-82400261D02*
X147427819Y-82685975D01*
X147427819Y-82685975D02*
X147380200Y-82781213D01*
X147380200Y-82781213D02*
X147332580Y-82828832D01*
X134703333Y-92579580D02*
X134655714Y-92627200D01*
X134655714Y-92627200D02*
X134512857Y-92674819D01*
X134512857Y-92674819D02*
X134417619Y-92674819D01*
X134417619Y-92674819D02*
X134274762Y-92627200D01*
X134274762Y-92627200D02*
X134179524Y-92531961D01*
X134179524Y-92531961D02*
X134131905Y-92436723D01*
X134131905Y-92436723D02*
X134084286Y-92246247D01*
X134084286Y-92246247D02*
X134084286Y-92103390D01*
X134084286Y-92103390D02*
X134131905Y-91912914D01*
X134131905Y-91912914D02*
X134179524Y-91817676D01*
X134179524Y-91817676D02*
X134274762Y-91722438D01*
X134274762Y-91722438D02*
X134417619Y-91674819D01*
X134417619Y-91674819D02*
X134512857Y-91674819D01*
X134512857Y-91674819D02*
X134655714Y-91722438D01*
X134655714Y-91722438D02*
X134703333Y-91770057D01*
X135179524Y-92674819D02*
X135370000Y-92674819D01*
X135370000Y-92674819D02*
X135465238Y-92627200D01*
X135465238Y-92627200D02*
X135512857Y-92579580D01*
X135512857Y-92579580D02*
X135608095Y-92436723D01*
X135608095Y-92436723D02*
X135655714Y-92246247D01*
X135655714Y-92246247D02*
X135655714Y-91865295D01*
X135655714Y-91865295D02*
X135608095Y-91770057D01*
X135608095Y-91770057D02*
X135560476Y-91722438D01*
X135560476Y-91722438D02*
X135465238Y-91674819D01*
X135465238Y-91674819D02*
X135274762Y-91674819D01*
X135274762Y-91674819D02*
X135179524Y-91722438D01*
X135179524Y-91722438D02*
X135131905Y-91770057D01*
X135131905Y-91770057D02*
X135084286Y-91865295D01*
X135084286Y-91865295D02*
X135084286Y-92103390D01*
X135084286Y-92103390D02*
X135131905Y-92198628D01*
X135131905Y-92198628D02*
X135179524Y-92246247D01*
X135179524Y-92246247D02*
X135274762Y-92293866D01*
X135274762Y-92293866D02*
X135465238Y-92293866D01*
X135465238Y-92293866D02*
X135560476Y-92246247D01*
X135560476Y-92246247D02*
X135608095Y-92198628D01*
X135608095Y-92198628D02*
X135655714Y-92103390D01*
X133774819Y-117556666D02*
X133298628Y-117889999D01*
X133774819Y-118128094D02*
X132774819Y-118128094D01*
X132774819Y-118128094D02*
X132774819Y-117747142D01*
X132774819Y-117747142D02*
X132822438Y-117651904D01*
X132822438Y-117651904D02*
X132870057Y-117604285D01*
X132870057Y-117604285D02*
X132965295Y-117556666D01*
X132965295Y-117556666D02*
X133108152Y-117556666D01*
X133108152Y-117556666D02*
X133203390Y-117604285D01*
X133203390Y-117604285D02*
X133251009Y-117651904D01*
X133251009Y-117651904D02*
X133298628Y-117747142D01*
X133298628Y-117747142D02*
X133298628Y-118128094D01*
X132774819Y-117223332D02*
X132774819Y-116604285D01*
X132774819Y-116604285D02*
X133155771Y-116937618D01*
X133155771Y-116937618D02*
X133155771Y-116794761D01*
X133155771Y-116794761D02*
X133203390Y-116699523D01*
X133203390Y-116699523D02*
X133251009Y-116651904D01*
X133251009Y-116651904D02*
X133346247Y-116604285D01*
X133346247Y-116604285D02*
X133584342Y-116604285D01*
X133584342Y-116604285D02*
X133679580Y-116651904D01*
X133679580Y-116651904D02*
X133727200Y-116699523D01*
X133727200Y-116699523D02*
X133774819Y-116794761D01*
X133774819Y-116794761D02*
X133774819Y-117080475D01*
X133774819Y-117080475D02*
X133727200Y-117175713D01*
X133727200Y-117175713D02*
X133679580Y-117223332D01*
X141280595Y-86744819D02*
X141280595Y-87554342D01*
X141280595Y-87554342D02*
X141328214Y-87649580D01*
X141328214Y-87649580D02*
X141375833Y-87697200D01*
X141375833Y-87697200D02*
X141471071Y-87744819D01*
X141471071Y-87744819D02*
X141661547Y-87744819D01*
X141661547Y-87744819D02*
X141756785Y-87697200D01*
X141756785Y-87697200D02*
X141804404Y-87649580D01*
X141804404Y-87649580D02*
X141852023Y-87554342D01*
X141852023Y-87554342D02*
X141852023Y-86744819D01*
X142280595Y-86840057D02*
X142328214Y-86792438D01*
X142328214Y-86792438D02*
X142423452Y-86744819D01*
X142423452Y-86744819D02*
X142661547Y-86744819D01*
X142661547Y-86744819D02*
X142756785Y-86792438D01*
X142756785Y-86792438D02*
X142804404Y-86840057D01*
X142804404Y-86840057D02*
X142852023Y-86935295D01*
X142852023Y-86935295D02*
X142852023Y-87030533D01*
X142852023Y-87030533D02*
X142804404Y-87173390D01*
X142804404Y-87173390D02*
X142232976Y-87744819D01*
X142232976Y-87744819D02*
X142852023Y-87744819D01*
X138264819Y-81931904D02*
X139074342Y-81931904D01*
X139074342Y-81931904D02*
X139169580Y-81884285D01*
X139169580Y-81884285D02*
X139217200Y-81836666D01*
X139217200Y-81836666D02*
X139264819Y-81741428D01*
X139264819Y-81741428D02*
X139264819Y-81550952D01*
X139264819Y-81550952D02*
X139217200Y-81455714D01*
X139217200Y-81455714D02*
X139169580Y-81408095D01*
X139169580Y-81408095D02*
X139074342Y-81360476D01*
X139074342Y-81360476D02*
X138264819Y-81360476D01*
X138264819Y-80979523D02*
X138264819Y-80360476D01*
X138264819Y-80360476D02*
X138645771Y-80693809D01*
X138645771Y-80693809D02*
X138645771Y-80550952D01*
X138645771Y-80550952D02*
X138693390Y-80455714D01*
X138693390Y-80455714D02*
X138741009Y-80408095D01*
X138741009Y-80408095D02*
X138836247Y-80360476D01*
X138836247Y-80360476D02*
X139074342Y-80360476D01*
X139074342Y-80360476D02*
X139169580Y-80408095D01*
X139169580Y-80408095D02*
X139217200Y-80455714D01*
X139217200Y-80455714D02*
X139264819Y-80550952D01*
X139264819Y-80550952D02*
X139264819Y-80836666D01*
X139264819Y-80836666D02*
X139217200Y-80931904D01*
X139217200Y-80931904D02*
X139169580Y-80979523D01*
X134227142Y-97519580D02*
X134179523Y-97567200D01*
X134179523Y-97567200D02*
X134036666Y-97614819D01*
X134036666Y-97614819D02*
X133941428Y-97614819D01*
X133941428Y-97614819D02*
X133798571Y-97567200D01*
X133798571Y-97567200D02*
X133703333Y-97471961D01*
X133703333Y-97471961D02*
X133655714Y-97376723D01*
X133655714Y-97376723D02*
X133608095Y-97186247D01*
X133608095Y-97186247D02*
X133608095Y-97043390D01*
X133608095Y-97043390D02*
X133655714Y-96852914D01*
X133655714Y-96852914D02*
X133703333Y-96757676D01*
X133703333Y-96757676D02*
X133798571Y-96662438D01*
X133798571Y-96662438D02*
X133941428Y-96614819D01*
X133941428Y-96614819D02*
X134036666Y-96614819D01*
X134036666Y-96614819D02*
X134179523Y-96662438D01*
X134179523Y-96662438D02*
X134227142Y-96710057D01*
X135179523Y-97614819D02*
X134608095Y-97614819D01*
X134893809Y-97614819D02*
X134893809Y-96614819D01*
X134893809Y-96614819D02*
X134798571Y-96757676D01*
X134798571Y-96757676D02*
X134703333Y-96852914D01*
X134703333Y-96852914D02*
X134608095Y-96900533D01*
X135798571Y-96614819D02*
X135893809Y-96614819D01*
X135893809Y-96614819D02*
X135989047Y-96662438D01*
X135989047Y-96662438D02*
X136036666Y-96710057D01*
X136036666Y-96710057D02*
X136084285Y-96805295D01*
X136084285Y-96805295D02*
X136131904Y-96995771D01*
X136131904Y-96995771D02*
X136131904Y-97233866D01*
X136131904Y-97233866D02*
X136084285Y-97424342D01*
X136084285Y-97424342D02*
X136036666Y-97519580D01*
X136036666Y-97519580D02*
X135989047Y-97567200D01*
X135989047Y-97567200D02*
X135893809Y-97614819D01*
X135893809Y-97614819D02*
X135798571Y-97614819D01*
X135798571Y-97614819D02*
X135703333Y-97567200D01*
X135703333Y-97567200D02*
X135655714Y-97519580D01*
X135655714Y-97519580D02*
X135608095Y-97424342D01*
X135608095Y-97424342D02*
X135560476Y-97233866D01*
X135560476Y-97233866D02*
X135560476Y-96995771D01*
X135560476Y-96995771D02*
X135608095Y-96805295D01*
X135608095Y-96805295D02*
X135655714Y-96710057D01*
X135655714Y-96710057D02*
X135703333Y-96662438D01*
X135703333Y-96662438D02*
X135798571Y-96614819D01*
X135794819Y-117546666D02*
X135318628Y-117879999D01*
X135794819Y-118118094D02*
X134794819Y-118118094D01*
X134794819Y-118118094D02*
X134794819Y-117737142D01*
X134794819Y-117737142D02*
X134842438Y-117641904D01*
X134842438Y-117641904D02*
X134890057Y-117594285D01*
X134890057Y-117594285D02*
X134985295Y-117546666D01*
X134985295Y-117546666D02*
X135128152Y-117546666D01*
X135128152Y-117546666D02*
X135223390Y-117594285D01*
X135223390Y-117594285D02*
X135271009Y-117641904D01*
X135271009Y-117641904D02*
X135318628Y-117737142D01*
X135318628Y-117737142D02*
X135318628Y-118118094D01*
X135128152Y-116689523D02*
X135794819Y-116689523D01*
X134747200Y-116927618D02*
X135461485Y-117165713D01*
X135461485Y-117165713D02*
X135461485Y-116546666D01*
X155954819Y-74661904D02*
X156764342Y-74661904D01*
X156764342Y-74661904D02*
X156859580Y-74614285D01*
X156859580Y-74614285D02*
X156907200Y-74566666D01*
X156907200Y-74566666D02*
X156954819Y-74471428D01*
X156954819Y-74471428D02*
X156954819Y-74280952D01*
X156954819Y-74280952D02*
X156907200Y-74185714D01*
X156907200Y-74185714D02*
X156859580Y-74138095D01*
X156859580Y-74138095D02*
X156764342Y-74090476D01*
X156764342Y-74090476D02*
X155954819Y-74090476D01*
X156288152Y-73185714D02*
X156954819Y-73185714D01*
X155907200Y-73423809D02*
X156621485Y-73661904D01*
X156621485Y-73661904D02*
X156621485Y-73042857D01*
X142414666Y-72424819D02*
X142414666Y-73139104D01*
X142414666Y-73139104D02*
X142367047Y-73281961D01*
X142367047Y-73281961D02*
X142271809Y-73377200D01*
X142271809Y-73377200D02*
X142128952Y-73424819D01*
X142128952Y-73424819D02*
X142033714Y-73424819D01*
X143414666Y-73424819D02*
X142843238Y-73424819D01*
X143128952Y-73424819D02*
X143128952Y-72424819D01*
X143128952Y-72424819D02*
X143033714Y-72567676D01*
X143033714Y-72567676D02*
X142938476Y-72662914D01*
X142938476Y-72662914D02*
X142843238Y-72710533D01*
X131297200Y-82703332D02*
X131344819Y-82560475D01*
X131344819Y-82560475D02*
X131344819Y-82322380D01*
X131344819Y-82322380D02*
X131297200Y-82227142D01*
X131297200Y-82227142D02*
X131249580Y-82179523D01*
X131249580Y-82179523D02*
X131154342Y-82131904D01*
X131154342Y-82131904D02*
X131059104Y-82131904D01*
X131059104Y-82131904D02*
X130963866Y-82179523D01*
X130963866Y-82179523D02*
X130916247Y-82227142D01*
X130916247Y-82227142D02*
X130868628Y-82322380D01*
X130868628Y-82322380D02*
X130821009Y-82512856D01*
X130821009Y-82512856D02*
X130773390Y-82608094D01*
X130773390Y-82608094D02*
X130725771Y-82655713D01*
X130725771Y-82655713D02*
X130630533Y-82703332D01*
X130630533Y-82703332D02*
X130535295Y-82703332D01*
X130535295Y-82703332D02*
X130440057Y-82655713D01*
X130440057Y-82655713D02*
X130392438Y-82608094D01*
X130392438Y-82608094D02*
X130344819Y-82512856D01*
X130344819Y-82512856D02*
X130344819Y-82274761D01*
X130344819Y-82274761D02*
X130392438Y-82131904D01*
X130344819Y-81798570D02*
X131344819Y-81560475D01*
X131344819Y-81560475D02*
X130630533Y-81369999D01*
X130630533Y-81369999D02*
X131344819Y-81179523D01*
X131344819Y-81179523D02*
X130344819Y-80941428D01*
X131344819Y-80036666D02*
X131344819Y-80608094D01*
X131344819Y-80322380D02*
X130344819Y-80322380D01*
X130344819Y-80322380D02*
X130487676Y-80417618D01*
X130487676Y-80417618D02*
X130582914Y-80512856D01*
X130582914Y-80512856D02*
X130630533Y-80608094D01*
X139170580Y-103385857D02*
X139218200Y-103433476D01*
X139218200Y-103433476D02*
X139265819Y-103576333D01*
X139265819Y-103576333D02*
X139265819Y-103671571D01*
X139265819Y-103671571D02*
X139218200Y-103814428D01*
X139218200Y-103814428D02*
X139122961Y-103909666D01*
X139122961Y-103909666D02*
X139027723Y-103957285D01*
X139027723Y-103957285D02*
X138837247Y-104004904D01*
X138837247Y-104004904D02*
X138694390Y-104004904D01*
X138694390Y-104004904D02*
X138503914Y-103957285D01*
X138503914Y-103957285D02*
X138408676Y-103909666D01*
X138408676Y-103909666D02*
X138313438Y-103814428D01*
X138313438Y-103814428D02*
X138265819Y-103671571D01*
X138265819Y-103671571D02*
X138265819Y-103576333D01*
X138265819Y-103576333D02*
X138313438Y-103433476D01*
X138313438Y-103433476D02*
X138361057Y-103385857D01*
X139265819Y-102433476D02*
X139265819Y-103004904D01*
X139265819Y-102719190D02*
X138265819Y-102719190D01*
X138265819Y-102719190D02*
X138408676Y-102814428D01*
X138408676Y-102814428D02*
X138503914Y-102909666D01*
X138503914Y-102909666D02*
X138551533Y-103004904D01*
X138265819Y-102100142D02*
X138265819Y-101481095D01*
X138265819Y-101481095D02*
X138646771Y-101814428D01*
X138646771Y-101814428D02*
X138646771Y-101671571D01*
X138646771Y-101671571D02*
X138694390Y-101576333D01*
X138694390Y-101576333D02*
X138742009Y-101528714D01*
X138742009Y-101528714D02*
X138837247Y-101481095D01*
X138837247Y-101481095D02*
X139075342Y-101481095D01*
X139075342Y-101481095D02*
X139170580Y-101528714D01*
X139170580Y-101528714D02*
X139218200Y-101576333D01*
X139218200Y-101576333D02*
X139265819Y-101671571D01*
X139265819Y-101671571D02*
X139265819Y-101957285D01*
X139265819Y-101957285D02*
X139218200Y-102052523D01*
X139218200Y-102052523D02*
X139170580Y-102100142D01*
X157450057Y-119555238D02*
X157402438Y-119650476D01*
X157402438Y-119650476D02*
X157307200Y-119745714D01*
X157307200Y-119745714D02*
X157164342Y-119888571D01*
X157164342Y-119888571D02*
X157116723Y-119983809D01*
X157116723Y-119983809D02*
X157116723Y-120079047D01*
X157354819Y-120031428D02*
X157307200Y-120126666D01*
X157307200Y-120126666D02*
X157211961Y-120221904D01*
X157211961Y-120221904D02*
X157021485Y-120269523D01*
X157021485Y-120269523D02*
X156688152Y-120269523D01*
X156688152Y-120269523D02*
X156497676Y-120221904D01*
X156497676Y-120221904D02*
X156402438Y-120126666D01*
X156402438Y-120126666D02*
X156354819Y-120031428D01*
X156354819Y-120031428D02*
X156354819Y-119840952D01*
X156354819Y-119840952D02*
X156402438Y-119745714D01*
X156402438Y-119745714D02*
X156497676Y-119650476D01*
X156497676Y-119650476D02*
X156688152Y-119602857D01*
X156688152Y-119602857D02*
X157021485Y-119602857D01*
X157021485Y-119602857D02*
X157211961Y-119650476D01*
X157211961Y-119650476D02*
X157307200Y-119745714D01*
X157307200Y-119745714D02*
X157354819Y-119840952D01*
X157354819Y-119840952D02*
X157354819Y-120031428D01*
X157354819Y-118650476D02*
X157354819Y-119221904D01*
X157354819Y-118936190D02*
X156354819Y-118936190D01*
X156354819Y-118936190D02*
X156497676Y-119031428D01*
X156497676Y-119031428D02*
X156592914Y-119126666D01*
X156592914Y-119126666D02*
X156640533Y-119221904D01*
X128868057Y-119523738D02*
X128820438Y-119618976D01*
X128820438Y-119618976D02*
X128725200Y-119714214D01*
X128725200Y-119714214D02*
X128582342Y-119857071D01*
X128582342Y-119857071D02*
X128534723Y-119952309D01*
X128534723Y-119952309D02*
X128534723Y-120047547D01*
X128772819Y-119999928D02*
X128725200Y-120095166D01*
X128725200Y-120095166D02*
X128629961Y-120190404D01*
X128629961Y-120190404D02*
X128439485Y-120238023D01*
X128439485Y-120238023D02*
X128106152Y-120238023D01*
X128106152Y-120238023D02*
X127915676Y-120190404D01*
X127915676Y-120190404D02*
X127820438Y-120095166D01*
X127820438Y-120095166D02*
X127772819Y-119999928D01*
X127772819Y-119999928D02*
X127772819Y-119809452D01*
X127772819Y-119809452D02*
X127820438Y-119714214D01*
X127820438Y-119714214D02*
X127915676Y-119618976D01*
X127915676Y-119618976D02*
X128106152Y-119571357D01*
X128106152Y-119571357D02*
X128439485Y-119571357D01*
X128439485Y-119571357D02*
X128629961Y-119618976D01*
X128629961Y-119618976D02*
X128725200Y-119714214D01*
X128725200Y-119714214D02*
X128772819Y-119809452D01*
X128772819Y-119809452D02*
X128772819Y-119999928D01*
X127868057Y-119190404D02*
X127820438Y-119142785D01*
X127820438Y-119142785D02*
X127772819Y-119047547D01*
X127772819Y-119047547D02*
X127772819Y-118809452D01*
X127772819Y-118809452D02*
X127820438Y-118714214D01*
X127820438Y-118714214D02*
X127868057Y-118666595D01*
X127868057Y-118666595D02*
X127963295Y-118618976D01*
X127963295Y-118618976D02*
X128058533Y-118618976D01*
X128058533Y-118618976D02*
X128201390Y-118666595D01*
X128201390Y-118666595D02*
X128772819Y-119238023D01*
X128772819Y-119238023D02*
X128772819Y-118618976D01*
X152260080Y-83198666D02*
X152307700Y-83246285D01*
X152307700Y-83246285D02*
X152355319Y-83389142D01*
X152355319Y-83389142D02*
X152355319Y-83484380D01*
X152355319Y-83484380D02*
X152307700Y-83627237D01*
X152307700Y-83627237D02*
X152212461Y-83722475D01*
X152212461Y-83722475D02*
X152117223Y-83770094D01*
X152117223Y-83770094D02*
X151926747Y-83817713D01*
X151926747Y-83817713D02*
X151783890Y-83817713D01*
X151783890Y-83817713D02*
X151593414Y-83770094D01*
X151593414Y-83770094D02*
X151498176Y-83722475D01*
X151498176Y-83722475D02*
X151402938Y-83627237D01*
X151402938Y-83627237D02*
X151355319Y-83484380D01*
X151355319Y-83484380D02*
X151355319Y-83389142D01*
X151355319Y-83389142D02*
X151402938Y-83246285D01*
X151402938Y-83246285D02*
X151450557Y-83198666D01*
X151355319Y-82341523D02*
X151355319Y-82531999D01*
X151355319Y-82531999D02*
X151402938Y-82627237D01*
X151402938Y-82627237D02*
X151450557Y-82674856D01*
X151450557Y-82674856D02*
X151593414Y-82770094D01*
X151593414Y-82770094D02*
X151783890Y-82817713D01*
X151783890Y-82817713D02*
X152164842Y-82817713D01*
X152164842Y-82817713D02*
X152260080Y-82770094D01*
X152260080Y-82770094D02*
X152307700Y-82722475D01*
X152307700Y-82722475D02*
X152355319Y-82627237D01*
X152355319Y-82627237D02*
X152355319Y-82436761D01*
X152355319Y-82436761D02*
X152307700Y-82341523D01*
X152307700Y-82341523D02*
X152260080Y-82293904D01*
X152260080Y-82293904D02*
X152164842Y-82246285D01*
X152164842Y-82246285D02*
X151926747Y-82246285D01*
X151926747Y-82246285D02*
X151831509Y-82293904D01*
X151831509Y-82293904D02*
X151783890Y-82341523D01*
X151783890Y-82341523D02*
X151736271Y-82436761D01*
X151736271Y-82436761D02*
X151736271Y-82627237D01*
X151736271Y-82627237D02*
X151783890Y-82722475D01*
X151783890Y-82722475D02*
X151831509Y-82770094D01*
X151831509Y-82770094D02*
X151926747Y-82817713D01*
X134084819Y-81842857D02*
X133608628Y-82176190D01*
X134084819Y-82414285D02*
X133084819Y-82414285D01*
X133084819Y-82414285D02*
X133084819Y-82033333D01*
X133084819Y-82033333D02*
X133132438Y-81938095D01*
X133132438Y-81938095D02*
X133180057Y-81890476D01*
X133180057Y-81890476D02*
X133275295Y-81842857D01*
X133275295Y-81842857D02*
X133418152Y-81842857D01*
X133418152Y-81842857D02*
X133513390Y-81890476D01*
X133513390Y-81890476D02*
X133561009Y-81938095D01*
X133561009Y-81938095D02*
X133608628Y-82033333D01*
X133608628Y-82033333D02*
X133608628Y-82414285D01*
X134084819Y-80890476D02*
X134084819Y-81461904D01*
X134084819Y-81176190D02*
X133084819Y-81176190D01*
X133084819Y-81176190D02*
X133227676Y-81271428D01*
X133227676Y-81271428D02*
X133322914Y-81366666D01*
X133322914Y-81366666D02*
X133370533Y-81461904D01*
X133084819Y-80271428D02*
X133084819Y-80176190D01*
X133084819Y-80176190D02*
X133132438Y-80080952D01*
X133132438Y-80080952D02*
X133180057Y-80033333D01*
X133180057Y-80033333D02*
X133275295Y-79985714D01*
X133275295Y-79985714D02*
X133465771Y-79938095D01*
X133465771Y-79938095D02*
X133703866Y-79938095D01*
X133703866Y-79938095D02*
X133894342Y-79985714D01*
X133894342Y-79985714D02*
X133989580Y-80033333D01*
X133989580Y-80033333D02*
X134037200Y-80080952D01*
X134037200Y-80080952D02*
X134084819Y-80176190D01*
X134084819Y-80176190D02*
X134084819Y-80271428D01*
X134084819Y-80271428D02*
X134037200Y-80366666D01*
X134037200Y-80366666D02*
X133989580Y-80414285D01*
X133989580Y-80414285D02*
X133894342Y-80461904D01*
X133894342Y-80461904D02*
X133703866Y-80509523D01*
X133703866Y-80509523D02*
X133465771Y-80509523D01*
X133465771Y-80509523D02*
X133275295Y-80461904D01*
X133275295Y-80461904D02*
X133180057Y-80414285D01*
X133180057Y-80414285D02*
X133132438Y-80366666D01*
X133132438Y-80366666D02*
X133084819Y-80271428D01*
X144102819Y-83224666D02*
X143626628Y-83557999D01*
X144102819Y-83796094D02*
X143102819Y-83796094D01*
X143102819Y-83796094D02*
X143102819Y-83415142D01*
X143102819Y-83415142D02*
X143150438Y-83319904D01*
X143150438Y-83319904D02*
X143198057Y-83272285D01*
X143198057Y-83272285D02*
X143293295Y-83224666D01*
X143293295Y-83224666D02*
X143436152Y-83224666D01*
X143436152Y-83224666D02*
X143531390Y-83272285D01*
X143531390Y-83272285D02*
X143579009Y-83319904D01*
X143579009Y-83319904D02*
X143626628Y-83415142D01*
X143626628Y-83415142D02*
X143626628Y-83796094D01*
X144102819Y-82272285D02*
X144102819Y-82843713D01*
X144102819Y-82557999D02*
X143102819Y-82557999D01*
X143102819Y-82557999D02*
X143245676Y-82653237D01*
X143245676Y-82653237D02*
X143340914Y-82748475D01*
X143340914Y-82748475D02*
X143388533Y-82843713D01*
X146668142Y-100729580D02*
X146620523Y-100777200D01*
X146620523Y-100777200D02*
X146477666Y-100824819D01*
X146477666Y-100824819D02*
X146382428Y-100824819D01*
X146382428Y-100824819D02*
X146239571Y-100777200D01*
X146239571Y-100777200D02*
X146144333Y-100681961D01*
X146144333Y-100681961D02*
X146096714Y-100586723D01*
X146096714Y-100586723D02*
X146049095Y-100396247D01*
X146049095Y-100396247D02*
X146049095Y-100253390D01*
X146049095Y-100253390D02*
X146096714Y-100062914D01*
X146096714Y-100062914D02*
X146144333Y-99967676D01*
X146144333Y-99967676D02*
X146239571Y-99872438D01*
X146239571Y-99872438D02*
X146382428Y-99824819D01*
X146382428Y-99824819D02*
X146477666Y-99824819D01*
X146477666Y-99824819D02*
X146620523Y-99872438D01*
X146620523Y-99872438D02*
X146668142Y-99920057D01*
X147620523Y-100824819D02*
X147049095Y-100824819D01*
X147334809Y-100824819D02*
X147334809Y-99824819D01*
X147334809Y-99824819D02*
X147239571Y-99967676D01*
X147239571Y-99967676D02*
X147144333Y-100062914D01*
X147144333Y-100062914D02*
X147049095Y-100110533D01*
X148001476Y-99920057D02*
X148049095Y-99872438D01*
X148049095Y-99872438D02*
X148144333Y-99824819D01*
X148144333Y-99824819D02*
X148382428Y-99824819D01*
X148382428Y-99824819D02*
X148477666Y-99872438D01*
X148477666Y-99872438D02*
X148525285Y-99920057D01*
X148525285Y-99920057D02*
X148572904Y-100015295D01*
X148572904Y-100015295D02*
X148572904Y-100110533D01*
X148572904Y-100110533D02*
X148525285Y-100253390D01*
X148525285Y-100253390D02*
X147953857Y-100824819D01*
X147953857Y-100824819D02*
X148572904Y-100824819D01*
X149852142Y-92528580D02*
X149804523Y-92576200D01*
X149804523Y-92576200D02*
X149661666Y-92623819D01*
X149661666Y-92623819D02*
X149566428Y-92623819D01*
X149566428Y-92623819D02*
X149423571Y-92576200D01*
X149423571Y-92576200D02*
X149328333Y-92480961D01*
X149328333Y-92480961D02*
X149280714Y-92385723D01*
X149280714Y-92385723D02*
X149233095Y-92195247D01*
X149233095Y-92195247D02*
X149233095Y-92052390D01*
X149233095Y-92052390D02*
X149280714Y-91861914D01*
X149280714Y-91861914D02*
X149328333Y-91766676D01*
X149328333Y-91766676D02*
X149423571Y-91671438D01*
X149423571Y-91671438D02*
X149566428Y-91623819D01*
X149566428Y-91623819D02*
X149661666Y-91623819D01*
X149661666Y-91623819D02*
X149804523Y-91671438D01*
X149804523Y-91671438D02*
X149852142Y-91719057D01*
X150804523Y-92623819D02*
X150233095Y-92623819D01*
X150518809Y-92623819D02*
X150518809Y-91623819D01*
X150518809Y-91623819D02*
X150423571Y-91766676D01*
X150423571Y-91766676D02*
X150328333Y-91861914D01*
X150328333Y-91861914D02*
X150233095Y-91909533D01*
X151756904Y-92623819D02*
X151185476Y-92623819D01*
X151471190Y-92623819D02*
X151471190Y-91623819D01*
X151471190Y-91623819D02*
X151375952Y-91766676D01*
X151375952Y-91766676D02*
X151280714Y-91861914D01*
X151280714Y-91861914D02*
X151185476Y-91909533D01*
X128772819Y-123263094D02*
X127772819Y-123263094D01*
X127772819Y-123263094D02*
X127772819Y-123024999D01*
X127772819Y-123024999D02*
X127820438Y-122882142D01*
X127820438Y-122882142D02*
X127915676Y-122786904D01*
X127915676Y-122786904D02*
X128010914Y-122739285D01*
X128010914Y-122739285D02*
X128201390Y-122691666D01*
X128201390Y-122691666D02*
X128344247Y-122691666D01*
X128344247Y-122691666D02*
X128534723Y-122739285D01*
X128534723Y-122739285D02*
X128629961Y-122786904D01*
X128629961Y-122786904D02*
X128725200Y-122882142D01*
X128725200Y-122882142D02*
X128772819Y-123024999D01*
X128772819Y-123024999D02*
X128772819Y-123263094D01*
X127868057Y-122310713D02*
X127820438Y-122263094D01*
X127820438Y-122263094D02*
X127772819Y-122167856D01*
X127772819Y-122167856D02*
X127772819Y-121929761D01*
X127772819Y-121929761D02*
X127820438Y-121834523D01*
X127820438Y-121834523D02*
X127868057Y-121786904D01*
X127868057Y-121786904D02*
X127963295Y-121739285D01*
X127963295Y-121739285D02*
X128058533Y-121739285D01*
X128058533Y-121739285D02*
X128201390Y-121786904D01*
X128201390Y-121786904D02*
X128772819Y-122358332D01*
X128772819Y-122358332D02*
X128772819Y-121739285D01*
X146549580Y-74912857D02*
X146597200Y-74960476D01*
X146597200Y-74960476D02*
X146644819Y-75103333D01*
X146644819Y-75103333D02*
X146644819Y-75198571D01*
X146644819Y-75198571D02*
X146597200Y-75341428D01*
X146597200Y-75341428D02*
X146501961Y-75436666D01*
X146501961Y-75436666D02*
X146406723Y-75484285D01*
X146406723Y-75484285D02*
X146216247Y-75531904D01*
X146216247Y-75531904D02*
X146073390Y-75531904D01*
X146073390Y-75531904D02*
X145882914Y-75484285D01*
X145882914Y-75484285D02*
X145787676Y-75436666D01*
X145787676Y-75436666D02*
X145692438Y-75341428D01*
X145692438Y-75341428D02*
X145644819Y-75198571D01*
X145644819Y-75198571D02*
X145644819Y-75103333D01*
X145644819Y-75103333D02*
X145692438Y-74960476D01*
X145692438Y-74960476D02*
X145740057Y-74912857D01*
X146644819Y-73960476D02*
X146644819Y-74531904D01*
X146644819Y-74246190D02*
X145644819Y-74246190D01*
X145644819Y-74246190D02*
X145787676Y-74341428D01*
X145787676Y-74341428D02*
X145882914Y-74436666D01*
X145882914Y-74436666D02*
X145930533Y-74531904D01*
X145644819Y-73055714D02*
X145644819Y-73531904D01*
X145644819Y-73531904D02*
X146121009Y-73579523D01*
X146121009Y-73579523D02*
X146073390Y-73531904D01*
X146073390Y-73531904D02*
X146025771Y-73436666D01*
X146025771Y-73436666D02*
X146025771Y-73198571D01*
X146025771Y-73198571D02*
X146073390Y-73103333D01*
X146073390Y-73103333D02*
X146121009Y-73055714D01*
X146121009Y-73055714D02*
X146216247Y-73008095D01*
X146216247Y-73008095D02*
X146454342Y-73008095D01*
X146454342Y-73008095D02*
X146549580Y-73055714D01*
X146549580Y-73055714D02*
X146597200Y-73103333D01*
X146597200Y-73103333D02*
X146644819Y-73198571D01*
X146644819Y-73198571D02*
X146644819Y-73436666D01*
X146644819Y-73436666D02*
X146597200Y-73531904D01*
X146597200Y-73531904D02*
X146549580Y-73579523D01*
X133979580Y-78717857D02*
X134027200Y-78765476D01*
X134027200Y-78765476D02*
X134074819Y-78908333D01*
X134074819Y-78908333D02*
X134074819Y-79003571D01*
X134074819Y-79003571D02*
X134027200Y-79146428D01*
X134027200Y-79146428D02*
X133931961Y-79241666D01*
X133931961Y-79241666D02*
X133836723Y-79289285D01*
X133836723Y-79289285D02*
X133646247Y-79336904D01*
X133646247Y-79336904D02*
X133503390Y-79336904D01*
X133503390Y-79336904D02*
X133312914Y-79289285D01*
X133312914Y-79289285D02*
X133217676Y-79241666D01*
X133217676Y-79241666D02*
X133122438Y-79146428D01*
X133122438Y-79146428D02*
X133074819Y-79003571D01*
X133074819Y-79003571D02*
X133074819Y-78908333D01*
X133074819Y-78908333D02*
X133122438Y-78765476D01*
X133122438Y-78765476D02*
X133170057Y-78717857D01*
X134074819Y-77765476D02*
X134074819Y-78336904D01*
X134074819Y-78051190D02*
X133074819Y-78051190D01*
X133074819Y-78051190D02*
X133217676Y-78146428D01*
X133217676Y-78146428D02*
X133312914Y-78241666D01*
X133312914Y-78241666D02*
X133360533Y-78336904D01*
X133074819Y-76908333D02*
X133074819Y-77098809D01*
X133074819Y-77098809D02*
X133122438Y-77194047D01*
X133122438Y-77194047D02*
X133170057Y-77241666D01*
X133170057Y-77241666D02*
X133312914Y-77336904D01*
X133312914Y-77336904D02*
X133503390Y-77384523D01*
X133503390Y-77384523D02*
X133884342Y-77384523D01*
X133884342Y-77384523D02*
X133979580Y-77336904D01*
X133979580Y-77336904D02*
X134027200Y-77289285D01*
X134027200Y-77289285D02*
X134074819Y-77194047D01*
X134074819Y-77194047D02*
X134074819Y-77003571D01*
X134074819Y-77003571D02*
X134027200Y-76908333D01*
X134027200Y-76908333D02*
X133979580Y-76860714D01*
X133979580Y-76860714D02*
X133884342Y-76813095D01*
X133884342Y-76813095D02*
X133646247Y-76813095D01*
X133646247Y-76813095D02*
X133551009Y-76860714D01*
X133551009Y-76860714D02*
X133503390Y-76908333D01*
X133503390Y-76908333D02*
X133455771Y-77003571D01*
X133455771Y-77003571D02*
X133455771Y-77194047D01*
X133455771Y-77194047D02*
X133503390Y-77289285D01*
X133503390Y-77289285D02*
X133551009Y-77336904D01*
X133551009Y-77336904D02*
X133646247Y-77384523D01*
X157404819Y-124606666D02*
X156928628Y-124939999D01*
X157404819Y-125178094D02*
X156404819Y-125178094D01*
X156404819Y-125178094D02*
X156404819Y-124797142D01*
X156404819Y-124797142D02*
X156452438Y-124701904D01*
X156452438Y-124701904D02*
X156500057Y-124654285D01*
X156500057Y-124654285D02*
X156595295Y-124606666D01*
X156595295Y-124606666D02*
X156738152Y-124606666D01*
X156738152Y-124606666D02*
X156833390Y-124654285D01*
X156833390Y-124654285D02*
X156881009Y-124701904D01*
X156881009Y-124701904D02*
X156928628Y-124797142D01*
X156928628Y-124797142D02*
X156928628Y-125178094D01*
X156404819Y-123749523D02*
X156404819Y-123939999D01*
X156404819Y-123939999D02*
X156452438Y-124035237D01*
X156452438Y-124035237D02*
X156500057Y-124082856D01*
X156500057Y-124082856D02*
X156642914Y-124178094D01*
X156642914Y-124178094D02*
X156833390Y-124225713D01*
X156833390Y-124225713D02*
X157214342Y-124225713D01*
X157214342Y-124225713D02*
X157309580Y-124178094D01*
X157309580Y-124178094D02*
X157357200Y-124130475D01*
X157357200Y-124130475D02*
X157404819Y-124035237D01*
X157404819Y-124035237D02*
X157404819Y-123844761D01*
X157404819Y-123844761D02*
X157357200Y-123749523D01*
X157357200Y-123749523D02*
X157309580Y-123701904D01*
X157309580Y-123701904D02*
X157214342Y-123654285D01*
X157214342Y-123654285D02*
X156976247Y-123654285D01*
X156976247Y-123654285D02*
X156881009Y-123701904D01*
X156881009Y-123701904D02*
X156833390Y-123749523D01*
X156833390Y-123749523D02*
X156785771Y-123844761D01*
X156785771Y-123844761D02*
X156785771Y-124035237D01*
X156785771Y-124035237D02*
X156833390Y-124130475D01*
X156833390Y-124130475D02*
X156881009Y-124178094D01*
X156881009Y-124178094D02*
X156976247Y-124225713D01*
X146708833Y-99249580D02*
X146661214Y-99297200D01*
X146661214Y-99297200D02*
X146518357Y-99344819D01*
X146518357Y-99344819D02*
X146423119Y-99344819D01*
X146423119Y-99344819D02*
X146280262Y-99297200D01*
X146280262Y-99297200D02*
X146185024Y-99201961D01*
X146185024Y-99201961D02*
X146137405Y-99106723D01*
X146137405Y-99106723D02*
X146089786Y-98916247D01*
X146089786Y-98916247D02*
X146089786Y-98773390D01*
X146089786Y-98773390D02*
X146137405Y-98582914D01*
X146137405Y-98582914D02*
X146185024Y-98487676D01*
X146185024Y-98487676D02*
X146280262Y-98392438D01*
X146280262Y-98392438D02*
X146423119Y-98344819D01*
X146423119Y-98344819D02*
X146518357Y-98344819D01*
X146518357Y-98344819D02*
X146661214Y-98392438D01*
X146661214Y-98392438D02*
X146708833Y-98440057D01*
X147089786Y-98440057D02*
X147137405Y-98392438D01*
X147137405Y-98392438D02*
X147232643Y-98344819D01*
X147232643Y-98344819D02*
X147470738Y-98344819D01*
X147470738Y-98344819D02*
X147565976Y-98392438D01*
X147565976Y-98392438D02*
X147613595Y-98440057D01*
X147613595Y-98440057D02*
X147661214Y-98535295D01*
X147661214Y-98535295D02*
X147661214Y-98630533D01*
X147661214Y-98630533D02*
X147613595Y-98773390D01*
X147613595Y-98773390D02*
X147042167Y-99344819D01*
X147042167Y-99344819D02*
X147661214Y-99344819D01*
X128658819Y-116595666D02*
X128182628Y-116928999D01*
X128658819Y-117167094D02*
X127658819Y-117167094D01*
X127658819Y-117167094D02*
X127658819Y-116786142D01*
X127658819Y-116786142D02*
X127706438Y-116690904D01*
X127706438Y-116690904D02*
X127754057Y-116643285D01*
X127754057Y-116643285D02*
X127849295Y-116595666D01*
X127849295Y-116595666D02*
X127992152Y-116595666D01*
X127992152Y-116595666D02*
X128087390Y-116643285D01*
X128087390Y-116643285D02*
X128135009Y-116690904D01*
X128135009Y-116690904D02*
X128182628Y-116786142D01*
X128182628Y-116786142D02*
X128182628Y-117167094D01*
X128087390Y-116024237D02*
X128039771Y-116119475D01*
X128039771Y-116119475D02*
X127992152Y-116167094D01*
X127992152Y-116167094D02*
X127896914Y-116214713D01*
X127896914Y-116214713D02*
X127849295Y-116214713D01*
X127849295Y-116214713D02*
X127754057Y-116167094D01*
X127754057Y-116167094D02*
X127706438Y-116119475D01*
X127706438Y-116119475D02*
X127658819Y-116024237D01*
X127658819Y-116024237D02*
X127658819Y-115833761D01*
X127658819Y-115833761D02*
X127706438Y-115738523D01*
X127706438Y-115738523D02*
X127754057Y-115690904D01*
X127754057Y-115690904D02*
X127849295Y-115643285D01*
X127849295Y-115643285D02*
X127896914Y-115643285D01*
X127896914Y-115643285D02*
X127992152Y-115690904D01*
X127992152Y-115690904D02*
X128039771Y-115738523D01*
X128039771Y-115738523D02*
X128087390Y-115833761D01*
X128087390Y-115833761D02*
X128087390Y-116024237D01*
X128087390Y-116024237D02*
X128135009Y-116119475D01*
X128135009Y-116119475D02*
X128182628Y-116167094D01*
X128182628Y-116167094D02*
X128277866Y-116214713D01*
X128277866Y-116214713D02*
X128468342Y-116214713D01*
X128468342Y-116214713D02*
X128563580Y-116167094D01*
X128563580Y-116167094D02*
X128611200Y-116119475D01*
X128611200Y-116119475D02*
X128658819Y-116024237D01*
X128658819Y-116024237D02*
X128658819Y-115833761D01*
X128658819Y-115833761D02*
X128611200Y-115738523D01*
X128611200Y-115738523D02*
X128563580Y-115690904D01*
X128563580Y-115690904D02*
X128468342Y-115643285D01*
X128468342Y-115643285D02*
X128277866Y-115643285D01*
X128277866Y-115643285D02*
X128182628Y-115690904D01*
X128182628Y-115690904D02*
X128135009Y-115738523D01*
X128135009Y-115738523D02*
X128087390Y-115833761D01*
X150625580Y-83224666D02*
X150673200Y-83272285D01*
X150673200Y-83272285D02*
X150720819Y-83415142D01*
X150720819Y-83415142D02*
X150720819Y-83510380D01*
X150720819Y-83510380D02*
X150673200Y-83653237D01*
X150673200Y-83653237D02*
X150577961Y-83748475D01*
X150577961Y-83748475D02*
X150482723Y-83796094D01*
X150482723Y-83796094D02*
X150292247Y-83843713D01*
X150292247Y-83843713D02*
X150149390Y-83843713D01*
X150149390Y-83843713D02*
X149958914Y-83796094D01*
X149958914Y-83796094D02*
X149863676Y-83748475D01*
X149863676Y-83748475D02*
X149768438Y-83653237D01*
X149768438Y-83653237D02*
X149720819Y-83510380D01*
X149720819Y-83510380D02*
X149720819Y-83415142D01*
X149720819Y-83415142D02*
X149768438Y-83272285D01*
X149768438Y-83272285D02*
X149816057Y-83224666D01*
X149720819Y-82319904D02*
X149720819Y-82796094D01*
X149720819Y-82796094D02*
X150197009Y-82843713D01*
X150197009Y-82843713D02*
X150149390Y-82796094D01*
X150149390Y-82796094D02*
X150101771Y-82700856D01*
X150101771Y-82700856D02*
X150101771Y-82462761D01*
X150101771Y-82462761D02*
X150149390Y-82367523D01*
X150149390Y-82367523D02*
X150197009Y-82319904D01*
X150197009Y-82319904D02*
X150292247Y-82272285D01*
X150292247Y-82272285D02*
X150530342Y-82272285D01*
X150530342Y-82272285D02*
X150625580Y-82319904D01*
X150625580Y-82319904D02*
X150673200Y-82367523D01*
X150673200Y-82367523D02*
X150720819Y-82462761D01*
X150720819Y-82462761D02*
X150720819Y-82700856D01*
X150720819Y-82700856D02*
X150673200Y-82796094D01*
X150673200Y-82796094D02*
X150625580Y-82843713D01*
X157354819Y-116497166D02*
X156878628Y-116830499D01*
X157354819Y-117068594D02*
X156354819Y-117068594D01*
X156354819Y-117068594D02*
X156354819Y-116687642D01*
X156354819Y-116687642D02*
X156402438Y-116592404D01*
X156402438Y-116592404D02*
X156450057Y-116544785D01*
X156450057Y-116544785D02*
X156545295Y-116497166D01*
X156545295Y-116497166D02*
X156688152Y-116497166D01*
X156688152Y-116497166D02*
X156783390Y-116544785D01*
X156783390Y-116544785D02*
X156831009Y-116592404D01*
X156831009Y-116592404D02*
X156878628Y-116687642D01*
X156878628Y-116687642D02*
X156878628Y-117068594D01*
X156354819Y-115592404D02*
X156354819Y-116068594D01*
X156354819Y-116068594D02*
X156831009Y-116116213D01*
X156831009Y-116116213D02*
X156783390Y-116068594D01*
X156783390Y-116068594D02*
X156735771Y-115973356D01*
X156735771Y-115973356D02*
X156735771Y-115735261D01*
X156735771Y-115735261D02*
X156783390Y-115640023D01*
X156783390Y-115640023D02*
X156831009Y-115592404D01*
X156831009Y-115592404D02*
X156926247Y-115544785D01*
X156926247Y-115544785D02*
X157164342Y-115544785D01*
X157164342Y-115544785D02*
X157259580Y-115592404D01*
X157259580Y-115592404D02*
X157307200Y-115640023D01*
X157307200Y-115640023D02*
X157354819Y-115735261D01*
X157354819Y-115735261D02*
X157354819Y-115973356D01*
X157354819Y-115973356D02*
X157307200Y-116068594D01*
X157307200Y-116068594D02*
X157259580Y-116116213D01*
X138153809Y-106373628D02*
X138153809Y-106849819D01*
X137820476Y-105849819D02*
X138153809Y-106373628D01*
X138153809Y-106373628D02*
X138487142Y-105849819D01*
X139344285Y-106849819D02*
X138772857Y-106849819D01*
X139058571Y-106849819D02*
X139058571Y-105849819D01*
X139058571Y-105849819D02*
X138963333Y-105992676D01*
X138963333Y-105992676D02*
X138868095Y-106087914D01*
X138868095Y-106087914D02*
X138772857Y-106135533D01*
X134084819Y-84521666D02*
X133608628Y-84854999D01*
X134084819Y-85093094D02*
X133084819Y-85093094D01*
X133084819Y-85093094D02*
X133084819Y-84712142D01*
X133084819Y-84712142D02*
X133132438Y-84616904D01*
X133132438Y-84616904D02*
X133180057Y-84569285D01*
X133180057Y-84569285D02*
X133275295Y-84521666D01*
X133275295Y-84521666D02*
X133418152Y-84521666D01*
X133418152Y-84521666D02*
X133513390Y-84569285D01*
X133513390Y-84569285D02*
X133561009Y-84616904D01*
X133561009Y-84616904D02*
X133608628Y-84712142D01*
X133608628Y-84712142D02*
X133608628Y-85093094D01*
X133084819Y-84188332D02*
X133084819Y-83521666D01*
X133084819Y-83521666D02*
X134084819Y-83950237D01*
X128772819Y-124872666D02*
X128296628Y-125205999D01*
X128772819Y-125444094D02*
X127772819Y-125444094D01*
X127772819Y-125444094D02*
X127772819Y-125063142D01*
X127772819Y-125063142D02*
X127820438Y-124967904D01*
X127820438Y-124967904D02*
X127868057Y-124920285D01*
X127868057Y-124920285D02*
X127963295Y-124872666D01*
X127963295Y-124872666D02*
X128106152Y-124872666D01*
X128106152Y-124872666D02*
X128201390Y-124920285D01*
X128201390Y-124920285D02*
X128249009Y-124967904D01*
X128249009Y-124967904D02*
X128296628Y-125063142D01*
X128296628Y-125063142D02*
X128296628Y-125444094D01*
X128772819Y-124396475D02*
X128772819Y-124205999D01*
X128772819Y-124205999D02*
X128725200Y-124110761D01*
X128725200Y-124110761D02*
X128677580Y-124063142D01*
X128677580Y-124063142D02*
X128534723Y-123967904D01*
X128534723Y-123967904D02*
X128344247Y-123920285D01*
X128344247Y-123920285D02*
X127963295Y-123920285D01*
X127963295Y-123920285D02*
X127868057Y-123967904D01*
X127868057Y-123967904D02*
X127820438Y-124015523D01*
X127820438Y-124015523D02*
X127772819Y-124110761D01*
X127772819Y-124110761D02*
X127772819Y-124301237D01*
X127772819Y-124301237D02*
X127820438Y-124396475D01*
X127820438Y-124396475D02*
X127868057Y-124444094D01*
X127868057Y-124444094D02*
X127963295Y-124491713D01*
X127963295Y-124491713D02*
X128201390Y-124491713D01*
X128201390Y-124491713D02*
X128296628Y-124444094D01*
X128296628Y-124444094D02*
X128344247Y-124396475D01*
X128344247Y-124396475D02*
X128391866Y-124301237D01*
X128391866Y-124301237D02*
X128391866Y-124110761D01*
X128391866Y-124110761D02*
X128344247Y-124015523D01*
X128344247Y-124015523D02*
X128296628Y-123967904D01*
X128296628Y-123967904D02*
X128201390Y-123920285D01*
X148975080Y-83162166D02*
X149022700Y-83209785D01*
X149022700Y-83209785D02*
X149070319Y-83352642D01*
X149070319Y-83352642D02*
X149070319Y-83447880D01*
X149070319Y-83447880D02*
X149022700Y-83590737D01*
X149022700Y-83590737D02*
X148927461Y-83685975D01*
X148927461Y-83685975D02*
X148832223Y-83733594D01*
X148832223Y-83733594D02*
X148641747Y-83781213D01*
X148641747Y-83781213D02*
X148498890Y-83781213D01*
X148498890Y-83781213D02*
X148308414Y-83733594D01*
X148308414Y-83733594D02*
X148213176Y-83685975D01*
X148213176Y-83685975D02*
X148117938Y-83590737D01*
X148117938Y-83590737D02*
X148070319Y-83447880D01*
X148070319Y-83447880D02*
X148070319Y-83352642D01*
X148070319Y-83352642D02*
X148117938Y-83209785D01*
X148117938Y-83209785D02*
X148165557Y-83162166D01*
X148403652Y-82305023D02*
X149070319Y-82305023D01*
X148022700Y-82543118D02*
X148736985Y-82781213D01*
X148736985Y-82781213D02*
X148736985Y-82162166D01*
D13*
%TO.C,R12*%
X157714564Y-127660000D02*
X157260436Y-127660000D01*
X157714564Y-126190000D02*
X157260436Y-126190000D01*
%TO.C,SW2*%
X151190000Y-128200000D02*
X157310000Y-128200000D01*
X151190000Y-131900000D02*
X151190000Y-128200000D01*
X157310000Y-128200000D02*
X157310000Y-131900000D01*
X157310000Y-131900000D02*
X151190000Y-131900000D01*
%TO.C,U1*%
X141540000Y-116380000D02*
X144990000Y-116380000D01*
X141540000Y-116380000D02*
X139590000Y-116380000D01*
X141540000Y-111260000D02*
X143490000Y-111260000D01*
X141540000Y-111260000D02*
X139590000Y-111260000D01*
%TO.C,C17*%
X147090000Y-77545580D02*
X147090000Y-77264420D01*
X148110000Y-77545580D02*
X148110000Y-77264420D01*
%TO.C,J2*%
X119590000Y-75886000D02*
X120920000Y-75886000D01*
X119590000Y-77216000D02*
X119590000Y-75886000D01*
X119590000Y-78486000D02*
X119590000Y-121726000D01*
X119590000Y-78486000D02*
X122250000Y-78486000D01*
X119590000Y-121726000D02*
X122250000Y-121726000D01*
X122250000Y-78486000D02*
X122250000Y-121726000D01*
%TO.C,U5*%
X147679000Y-130048000D02*
X147679000Y-127635000D01*
X147679000Y-130048000D02*
X137900000Y-130048000D01*
X137900000Y-130048000D02*
X137900000Y-127635000D01*
X137900000Y-127635000D02*
X147679000Y-127635000D01*
%TO.C,D1*%
X160926500Y-123442000D02*
X160926500Y-121522000D01*
X160926500Y-121522000D02*
X158241500Y-121522000D01*
X158241500Y-123442000D02*
X160926500Y-123442000D01*
%TO.C,J4*%
X162810000Y-75886000D02*
X164140000Y-75886000D01*
X162810000Y-77216000D02*
X162810000Y-75886000D01*
X162810000Y-78486000D02*
X162810000Y-121726000D01*
X162810000Y-78486000D02*
X165470000Y-78486000D01*
X162810000Y-121726000D02*
X165470000Y-121726000D01*
X165470000Y-78486000D02*
X165470000Y-121726000D01*
%TO.C,R2*%
X145853000Y-85233742D02*
X145853000Y-85708258D01*
X144808000Y-85233742D02*
X144808000Y-85708258D01*
%TO.C,J3*%
X151190000Y-125282000D02*
X149860000Y-125282000D01*
X151190000Y-123952000D02*
X151190000Y-125282000D01*
X151190000Y-122682000D02*
X151190000Y-120082000D01*
X151190000Y-122682000D02*
X148530000Y-122682000D01*
X151190000Y-120082000D02*
X148530000Y-120082000D01*
X148530000Y-122682000D02*
X148530000Y-120082000D01*
%TO.C,R11*%
X142892500Y-102442742D02*
X142892500Y-102917258D01*
X141847500Y-102442742D02*
X141847500Y-102917258D01*
%TO.C,C7*%
X153033000Y-85611580D02*
X153033000Y-85330420D01*
X154053000Y-85611580D02*
X154053000Y-85330420D01*
%TO.C,C1*%
X139771252Y-118425000D02*
X139248748Y-118425000D01*
X139771252Y-116955000D02*
X139248748Y-116955000D01*
%TO.C,C8*%
X134887580Y-88394000D02*
X134606420Y-88394000D01*
X134887580Y-87374000D02*
X134606420Y-87374000D01*
%TO.C,C14*%
X144950000Y-102539420D02*
X144950000Y-102820580D01*
X143930000Y-102539420D02*
X143930000Y-102820580D01*
%TO.C,C3*%
X146463000Y-85611580D02*
X146463000Y-85330420D01*
X147483000Y-85611580D02*
X147483000Y-85330420D01*
%TO.C,C9*%
X135010580Y-94060000D02*
X134729420Y-94060000D01*
X135010580Y-93040000D02*
X134729420Y-93040000D01*
%TO.C,R3*%
X132555000Y-115057064D02*
X132555000Y-114602936D01*
X134025000Y-115057064D02*
X134025000Y-114602936D01*
%TO.C,U2*%
X138432500Y-95720000D02*
X138432500Y-95070000D01*
X139082500Y-88500000D02*
X138432500Y-88500000D01*
X139082500Y-95720000D02*
X138432500Y-95720000D01*
X145002500Y-88500000D02*
X145652500Y-88500000D01*
X145002500Y-95720000D02*
X145652500Y-95720000D01*
X145652500Y-88500000D02*
X145652500Y-89150000D01*
X145652500Y-95720000D02*
X145652500Y-95070000D01*
%TO.C,U3*%
X136075000Y-83895000D02*
X136335000Y-83895000D01*
X136335000Y-83895000D02*
X136335000Y-85570000D01*
X141525000Y-83895000D02*
X141265000Y-83895000D01*
X136075000Y-81170000D02*
X136075000Y-83895000D01*
X136075000Y-81170000D02*
X136075000Y-78445000D01*
X141525000Y-81170000D02*
X141525000Y-83895000D01*
X141525000Y-81170000D02*
X141525000Y-78445000D01*
X136075000Y-78445000D02*
X136335000Y-78445000D01*
X141525000Y-78445000D02*
X141265000Y-78445000D01*
%TO.C,C10*%
X134733420Y-95248000D02*
X135014580Y-95248000D01*
X134733420Y-96268000D02*
X135014580Y-96268000D01*
%TO.C,R4*%
X134605000Y-115057064D02*
X134605000Y-114602936D01*
X136075000Y-115057064D02*
X136075000Y-114602936D01*
%TO.C,U4*%
X155570000Y-73060000D02*
X155570000Y-79070000D01*
X148750000Y-75310000D02*
X148750000Y-79070000D01*
X155570000Y-79070000D02*
X154310000Y-79070000D01*
X148750000Y-79070000D02*
X150010000Y-79070000D01*
%TO.C,J1*%
X146558000Y-71380000D02*
X145898000Y-71380000D01*
X146558000Y-69650000D02*
X146558000Y-71380000D01*
X146558000Y-67080000D02*
X146558000Y-67290000D01*
X144508000Y-72080000D02*
X144508000Y-71690000D01*
X144508000Y-72080000D02*
X144058000Y-72080000D01*
X138938000Y-71380000D02*
X139588000Y-71380000D01*
X138938000Y-69650000D02*
X138938000Y-71380000D01*
X138938000Y-67080000D02*
X138938000Y-67290000D01*
%TO.C,SW1*%
X132740000Y-78290000D02*
X132740000Y-84410000D01*
X129040000Y-78290000D02*
X132740000Y-78290000D01*
X132740000Y-84410000D02*
X129040000Y-84410000D01*
X129040000Y-84410000D02*
X129040000Y-78290000D01*
%TO.C,C13*%
X139790000Y-102820580D02*
X139790000Y-102539420D01*
X140810000Y-102820580D02*
X140810000Y-102539420D01*
%TO.C,Q1*%
X160821500Y-119377000D02*
X160821500Y-117702000D01*
X160821500Y-119377000D02*
X160821500Y-120027000D01*
X157701500Y-119377000D02*
X157701500Y-118727000D01*
X157701500Y-119377000D02*
X157701500Y-120027000D01*
%TO.C,Q2*%
X127478000Y-119428500D02*
X127478000Y-117753500D01*
X127478000Y-119428500D02*
X127478000Y-120078500D01*
X124358000Y-119428500D02*
X124358000Y-118778500D01*
X124358000Y-119428500D02*
X124358000Y-120078500D01*
%TO.C,C6*%
X151390500Y-85611580D02*
X151390500Y-85330420D01*
X152410500Y-85611580D02*
X152410500Y-85330420D01*
%TO.C,R10*%
X134537500Y-81437258D02*
X134537500Y-80962742D01*
X135582500Y-81437258D02*
X135582500Y-80962742D01*
%TO.C,R1*%
X144210500Y-85233742D02*
X144210500Y-85708258D01*
X143165500Y-85233742D02*
X143165500Y-85708258D01*
%TO.C,C12*%
X144249420Y-99860000D02*
X144530580Y-99860000D01*
X144249420Y-100880000D02*
X144530580Y-100880000D01*
%TO.C,C11*%
X150354420Y-93089000D02*
X150635580Y-93089000D01*
X150354420Y-94109000D02*
X150635580Y-94109000D01*
%TO.C,D2*%
X127583000Y-123493500D02*
X127583000Y-121573500D01*
X127583000Y-121573500D02*
X124898000Y-121573500D01*
X124898000Y-123493500D02*
X127583000Y-123493500D01*
%TO.C,C15*%
X148110000Y-74109420D02*
X148110000Y-74390580D01*
X147090000Y-74109420D02*
X147090000Y-74390580D01*
%TO.C,C16*%
X135570000Y-77904420D02*
X135570000Y-78185580D01*
X134550000Y-77904420D02*
X134550000Y-78185580D01*
%TO.C,R6*%
X159054436Y-123929500D02*
X159508564Y-123929500D01*
X159054436Y-125399500D02*
X159508564Y-125399500D01*
%TO.C,C2*%
X144259420Y-98380000D02*
X144540580Y-98380000D01*
X144259420Y-99400000D02*
X144540580Y-99400000D01*
%TO.C,R8*%
X126165064Y-117118500D02*
X125710936Y-117118500D01*
X126165064Y-115648500D02*
X125710936Y-115648500D01*
%TO.C,C5*%
X149748000Y-85611580D02*
X149748000Y-85330420D01*
X150768000Y-85611580D02*
X150768000Y-85330420D01*
%TO.C,R5*%
X159508564Y-117067000D02*
X159054436Y-117067000D01*
X159508564Y-115597000D02*
X159054436Y-115597000D01*
%TO.C,Y1*%
X145030000Y-108235000D02*
X145030000Y-104535000D01*
X145030000Y-104535000D02*
X139730000Y-104535000D01*
%TO.C,R7*%
X134537500Y-84592258D02*
X134537500Y-84117742D01*
X135582500Y-84592258D02*
X135582500Y-84117742D01*
%TO.C,R9*%
X125710936Y-123981000D02*
X126165064Y-123981000D01*
X125710936Y-125451000D02*
X126165064Y-125451000D01*
%TO.C,C4*%
X148105500Y-85611580D02*
X148105500Y-85330420D01*
X149125500Y-85611580D02*
X149125500Y-85330420D01*
%TD*%
M02*
