%TF.GenerationSoftware,KiCad,Pcbnew,7.0.2*%
%TF.CreationDate,2023-07-03T13:26:32+03:00*%
%TF.ProjectId,rp2040,72703230-3430-42e6-9b69-6361645f7063,rev?*%
%TF.SameCoordinates,Original*%
%TF.FileFunction,Soldermask,Bot*%
%TF.FilePolarity,Negative*%
%FSLAX46Y46*%
G04 Gerber Fmt 4.6, Leading zero omitted, Abs format (unit mm)*
G04 Created by KiCad (PCBNEW 7.0.2) date 2023-07-03 13:26:32*
%MOMM*%
%LPD*%
G01*
G04 APERTURE LIST*
%ADD10C,0.800000*%
%ADD11C,6.400000*%
%ADD12R,1.700000X1.700000*%
%ADD13O,1.700000X1.700000*%
%ADD14O,1.600000X2.000000*%
%ADD15O,1.050000X1.900000*%
G04 APERTURE END LIST*
D10*
%TO.C,H4*%
X119920000Y-128731944D03*
X120622944Y-127034888D03*
X120622944Y-130429000D03*
X122320000Y-126331944D03*
D11*
X122320000Y-128731944D03*
D10*
X122320000Y-131131944D03*
X124017056Y-127034888D03*
X124017056Y-130429000D03*
X124720000Y-128731944D03*
%TD*%
D12*
%TO.C,J2*%
X120920000Y-77216000D03*
D13*
X120920000Y-79756000D03*
X120920000Y-82296000D03*
X120920000Y-84836000D03*
X120920000Y-87376000D03*
X120920000Y-89916000D03*
X120920000Y-92456000D03*
X120920000Y-94996000D03*
X120920000Y-97536000D03*
X120920000Y-100076000D03*
X120920000Y-102616000D03*
X120920000Y-105156000D03*
X120920000Y-107696000D03*
X120920000Y-110236000D03*
X120920000Y-112776000D03*
X120920000Y-115316000D03*
X120920000Y-117856000D03*
X120920000Y-120396000D03*
%TD*%
D14*
%TO.C,U5*%
X146600000Y-128837000D03*
X144060000Y-128837000D03*
X141520000Y-128837000D03*
X138980000Y-128837000D03*
%TD*%
D12*
%TO.C,J4*%
X164140000Y-77216000D03*
D13*
X164140000Y-79756000D03*
X164140000Y-82296000D03*
X164140000Y-84836000D03*
X164140000Y-87376000D03*
X164140000Y-89916000D03*
X164140000Y-92456000D03*
X164140000Y-94996000D03*
X164140000Y-97536000D03*
X164140000Y-100076000D03*
X164140000Y-102616000D03*
X164140000Y-105156000D03*
X164140000Y-107696000D03*
X164140000Y-110236000D03*
X164140000Y-112776000D03*
X164140000Y-115316000D03*
X164140000Y-117856000D03*
X164140000Y-120396000D03*
%TD*%
D12*
%TO.C,J3*%
X149860000Y-123952000D03*
D13*
X149860000Y-121412000D03*
%TD*%
D10*
%TO.C,H1*%
X119920000Y-68707000D03*
X120622944Y-67009944D03*
X120622944Y-70404056D03*
X122320000Y-66307000D03*
D11*
X122320000Y-68707000D03*
D10*
X122320000Y-71107000D03*
X124017056Y-67009944D03*
X124017056Y-70404056D03*
X124720000Y-68707000D03*
%TD*%
D15*
%TO.C,J1*%
X146323000Y-68470000D03*
X139173000Y-68470000D03*
%TD*%
D10*
%TO.C,H2*%
X160340000Y-68707000D03*
X161042944Y-67009944D03*
X161042944Y-70404056D03*
X162740000Y-66307000D03*
D11*
X162740000Y-68707000D03*
D10*
X162740000Y-71107000D03*
X164437056Y-67009944D03*
X164437056Y-70404056D03*
X165140000Y-68707000D03*
%TD*%
%TO.C,H3*%
X160340000Y-128731944D03*
X161042944Y-127034888D03*
X161042944Y-130429000D03*
X162740000Y-126331944D03*
D11*
X162740000Y-128731944D03*
D10*
X162740000Y-131131944D03*
X164437056Y-127034888D03*
X164437056Y-130429000D03*
X165140000Y-128731944D03*
%TD*%
M02*
