%TF.GenerationSoftware,KiCad,Pcbnew,7.0.9*%
%TF.CreationDate,2023-12-13T10:33:34+03:00*%
%TF.ProjectId,rp2040,72703230-3430-42e6-9b69-6361645f7063,rev?*%
%TF.SameCoordinates,Original*%
%TF.FileFunction,Soldermask,Top*%
%TF.FilePolarity,Negative*%
%FSLAX46Y46*%
G04 Gerber Fmt 4.6, Leading zero omitted, Abs format (unit mm)*
G04 Created by KiCad (PCBNEW 7.0.9) date 2023-12-13 10:33:34*
%MOMM*%
%LPD*%
G01*
G04 APERTURE LIST*
G04 Aperture macros list*
%AMRoundRect*
0 Rectangle with rounded corners*
0 $1 Rounding radius*
0 $2 $3 $4 $5 $6 $7 $8 $9 X,Y pos of 4 corners*
0 Add a 4 corners polygon primitive as box body*
4,1,4,$2,$3,$4,$5,$6,$7,$8,$9,$2,$3,0*
0 Add four circle primitives for the rounded corners*
1,1,$1+$1,$2,$3*
1,1,$1+$1,$4,$5*
1,1,$1+$1,$6,$7*
1,1,$1+$1,$8,$9*
0 Add four rect primitives between the rounded corners*
20,1,$1+$1,$2,$3,$4,$5,0*
20,1,$1+$1,$4,$5,$6,$7,0*
20,1,$1+$1,$6,$7,$8,$9,0*
20,1,$1+$1,$8,$9,$2,$3,0*%
G04 Aperture macros list end*
%ADD10RoundRect,0.250000X0.262500X0.450000X-0.262500X0.450000X-0.262500X-0.450000X0.262500X-0.450000X0*%
%ADD11RoundRect,0.375000X-0.375000X-0.375000X0.375000X-0.375000X0.375000X0.375000X-0.375000X0.375000X0*%
%ADD12RoundRect,0.150000X0.825000X0.150000X-0.825000X0.150000X-0.825000X-0.150000X0.825000X-0.150000X0*%
%ADD13C,0.800000*%
%ADD14C,6.400000*%
%ADD15RoundRect,0.225000X0.250000X-0.225000X0.250000X0.225000X-0.250000X0.225000X-0.250000X-0.225000X0*%
%ADD16R,1.700000X1.700000*%
%ADD17O,1.700000X1.700000*%
%ADD18O,1.600000X2.000000*%
%ADD19RoundRect,0.243750X0.243750X0.456250X-0.243750X0.456250X-0.243750X-0.456250X0.243750X-0.456250X0*%
%ADD20RoundRect,0.200000X-0.275000X0.200000X-0.275000X-0.200000X0.275000X-0.200000X0.275000X0.200000X0*%
%ADD21RoundRect,0.250000X0.250000X0.475000X-0.250000X0.475000X-0.250000X-0.475000X0.250000X-0.475000X0*%
%ADD22RoundRect,0.225000X0.225000X0.250000X-0.225000X0.250000X-0.225000X-0.250000X0.225000X-0.250000X0*%
%ADD23RoundRect,0.225000X-0.250000X0.225000X-0.250000X-0.225000X0.250000X-0.225000X0.250000X0.225000X0*%
%ADD24RoundRect,0.250000X0.450000X-0.262500X0.450000X0.262500X-0.450000X0.262500X-0.450000X-0.262500X0*%
%ADD25RoundRect,0.050000X-0.387500X-0.050000X0.387500X-0.050000X0.387500X0.050000X-0.387500X0.050000X0*%
%ADD26RoundRect,0.050000X-0.050000X-0.387500X0.050000X-0.387500X0.050000X0.387500X-0.050000X0.387500X0*%
%ADD27R,3.200000X3.200000*%
%ADD28RoundRect,0.150000X0.150000X-0.650000X0.150000X0.650000X-0.150000X0.650000X-0.150000X-0.650000X0*%
%ADD29RoundRect,0.225000X-0.225000X-0.250000X0.225000X-0.250000X0.225000X0.250000X-0.225000X0.250000X0*%
%ADD30R,1.500000X2.000000*%
%ADD31R,3.800000X2.000000*%
%ADD32R,0.400000X1.400000*%
%ADD33O,1.050000X1.900000*%
%ADD34R,1.150000X1.450000*%
%ADD35R,1.750000X1.900000*%
%ADD36R,1.500000X1.500000*%
%ADD37RoundRect,0.150000X-0.150000X0.587500X-0.150000X-0.587500X0.150000X-0.587500X0.150000X0.587500X0*%
%ADD38RoundRect,0.200000X0.275000X-0.200000X0.275000X0.200000X-0.275000X0.200000X-0.275000X-0.200000X0*%
%ADD39RoundRect,0.250000X-0.262500X-0.450000X0.262500X-0.450000X0.262500X0.450000X-0.262500X0.450000X0*%
%ADD40R,1.600000X1.300000*%
G04 APERTURE END LIST*
D10*
%TO.C,R12*%
X158400000Y-126925000D03*
X156575000Y-126925000D03*
%TD*%
D11*
%TO.C,SW2*%
X150350000Y-130050000D03*
X158150000Y-130050000D03*
%TD*%
D12*
%TO.C,U1*%
X144015000Y-115725000D03*
X144015000Y-114455000D03*
X144015000Y-113185000D03*
X144015000Y-111915000D03*
X139065000Y-111915000D03*
X139065000Y-113185000D03*
X139065000Y-114455000D03*
X139065000Y-115725000D03*
%TD*%
D13*
%TO.C,H4*%
X119920000Y-128731944D03*
X120622944Y-127034888D03*
X120622944Y-130429000D03*
X122320000Y-126331944D03*
D14*
X122320000Y-128731944D03*
D13*
X122320000Y-131131944D03*
X124017056Y-127034888D03*
X124017056Y-130429000D03*
X124720000Y-128731944D03*
%TD*%
D15*
%TO.C,C17*%
X147600000Y-78180000D03*
X147600000Y-76630000D03*
%TD*%
D16*
%TO.C,J2*%
X120920000Y-77216000D03*
D17*
X120920000Y-79756000D03*
X120920000Y-82296000D03*
X120920000Y-84836000D03*
X120920000Y-87376000D03*
X120920000Y-89916000D03*
X120920000Y-92456000D03*
X120920000Y-94996000D03*
X120920000Y-97536000D03*
X120920000Y-100076000D03*
X120920000Y-102616000D03*
X120920000Y-105156000D03*
X120920000Y-107696000D03*
X120920000Y-110236000D03*
X120920000Y-112776000D03*
X120920000Y-115316000D03*
X120920000Y-117856000D03*
X120920000Y-120396000D03*
%TD*%
D18*
%TO.C,U5*%
X146600000Y-128837000D03*
X144060000Y-128837000D03*
X141520000Y-128837000D03*
X138980000Y-128837000D03*
%TD*%
D19*
%TO.C,D1*%
X160179000Y-122482000D03*
X158304000Y-122482000D03*
%TD*%
D16*
%TO.C,J4*%
X164140000Y-77216000D03*
D17*
X164140000Y-79756000D03*
X164140000Y-82296000D03*
X164140000Y-84836000D03*
X164140000Y-87376000D03*
X164140000Y-89916000D03*
X164140000Y-92456000D03*
X164140000Y-94996000D03*
X164140000Y-97536000D03*
X164140000Y-100076000D03*
X164140000Y-102616000D03*
X164140000Y-105156000D03*
X164140000Y-107696000D03*
X164140000Y-110236000D03*
X164140000Y-112776000D03*
X164140000Y-115316000D03*
X164140000Y-117856000D03*
X164140000Y-120396000D03*
%TD*%
D20*
%TO.C,R2*%
X145330500Y-84646000D03*
X145330500Y-86296000D03*
%TD*%
D16*
%TO.C,J3*%
X149860000Y-123952000D03*
D17*
X149860000Y-121412000D03*
%TD*%
D20*
%TO.C,R11*%
X142370000Y-101855000D03*
X142370000Y-103505000D03*
%TD*%
D15*
%TO.C,C7*%
X153543000Y-86246000D03*
X153543000Y-84696000D03*
%TD*%
D21*
%TO.C,C1*%
X140460000Y-117690000D03*
X138560000Y-117690000D03*
%TD*%
D22*
%TO.C,C8*%
X135522000Y-87884000D03*
X133972000Y-87884000D03*
%TD*%
D13*
%TO.C,H1*%
X119920000Y-68707000D03*
X120622944Y-67009944D03*
X120622944Y-70404056D03*
X122320000Y-66307000D03*
D14*
X122320000Y-68707000D03*
D13*
X122320000Y-71107000D03*
X124017056Y-67009944D03*
X124017056Y-70404056D03*
X124720000Y-68707000D03*
%TD*%
D23*
%TO.C,C14*%
X144440000Y-101905000D03*
X144440000Y-103455000D03*
%TD*%
D15*
%TO.C,C3*%
X146973000Y-86246000D03*
X146973000Y-84696000D03*
%TD*%
D22*
%TO.C,C9*%
X135645000Y-93550000D03*
X134095000Y-93550000D03*
%TD*%
D24*
%TO.C,R3*%
X133290000Y-115742500D03*
X133290000Y-113917500D03*
%TD*%
D25*
%TO.C,U2*%
X138605000Y-89510000D03*
X138605000Y-89910000D03*
X138605000Y-90310000D03*
X138605000Y-90710000D03*
X138605000Y-91110000D03*
X138605000Y-91510000D03*
X138605000Y-91910000D03*
X138605000Y-92310000D03*
X138605000Y-92710000D03*
X138605000Y-93110000D03*
X138605000Y-93510000D03*
X138605000Y-93910000D03*
X138605000Y-94310000D03*
X138605000Y-94710000D03*
D26*
X139442500Y-95547500D03*
X139842500Y-95547500D03*
X140242500Y-95547500D03*
X140642500Y-95547500D03*
X141042500Y-95547500D03*
X141442500Y-95547500D03*
X141842500Y-95547500D03*
X142242500Y-95547500D03*
X142642500Y-95547500D03*
X143042500Y-95547500D03*
X143442500Y-95547500D03*
X143842500Y-95547500D03*
X144242500Y-95547500D03*
X144642500Y-95547500D03*
D25*
X145480000Y-94710000D03*
X145480000Y-94310000D03*
X145480000Y-93910000D03*
X145480000Y-93510000D03*
X145480000Y-93110000D03*
X145480000Y-92710000D03*
X145480000Y-92310000D03*
X145480000Y-91910000D03*
X145480000Y-91510000D03*
X145480000Y-91110000D03*
X145480000Y-90710000D03*
X145480000Y-90310000D03*
X145480000Y-89910000D03*
X145480000Y-89510000D03*
D26*
X144642500Y-88672500D03*
X144242500Y-88672500D03*
X143842500Y-88672500D03*
X143442500Y-88672500D03*
X143042500Y-88672500D03*
X142642500Y-88672500D03*
X142242500Y-88672500D03*
X141842500Y-88672500D03*
X141442500Y-88672500D03*
X141042500Y-88672500D03*
X140642500Y-88672500D03*
X140242500Y-88672500D03*
X139842500Y-88672500D03*
X139442500Y-88672500D03*
D27*
X142042500Y-92110000D03*
%TD*%
D28*
%TO.C,U3*%
X136895000Y-84770000D03*
X138165000Y-84770000D03*
X139435000Y-84770000D03*
X140705000Y-84770000D03*
X140705000Y-77570000D03*
X139435000Y-77570000D03*
X138165000Y-77570000D03*
X136895000Y-77570000D03*
%TD*%
D29*
%TO.C,C10*%
X134099000Y-95758000D03*
X135649000Y-95758000D03*
%TD*%
D24*
%TO.C,R4*%
X135340000Y-115742500D03*
X135340000Y-113917500D03*
%TD*%
D30*
%TO.C,U4*%
X154460000Y-74010000D03*
X152160000Y-74010000D03*
D31*
X152160000Y-80310000D03*
D30*
X149860000Y-74010000D03*
%TD*%
D32*
%TO.C,J1*%
X144048000Y-71120000D03*
X143398000Y-71120000D03*
X142748000Y-71120000D03*
X142098000Y-71120000D03*
X141448000Y-71120000D03*
D33*
X146323000Y-68470000D03*
D34*
X145068000Y-70700000D03*
D35*
X143873000Y-68470000D03*
X141623000Y-68470000D03*
D34*
X140428000Y-70700000D03*
D33*
X139173000Y-68470000D03*
%TD*%
D36*
%TO.C,SW1*%
X130890000Y-77450000D03*
X130890000Y-85250000D03*
%TD*%
D15*
%TO.C,C13*%
X140300000Y-103455000D03*
X140300000Y-101905000D03*
%TD*%
D37*
%TO.C,Q1*%
X160211500Y-118439500D03*
X158311500Y-118439500D03*
X159261500Y-120314500D03*
%TD*%
%TO.C,Q2*%
X126868000Y-118491000D03*
X124968000Y-118491000D03*
X125918000Y-120366000D03*
%TD*%
D13*
%TO.C,H2*%
X160340000Y-68707000D03*
X161042944Y-67009944D03*
X161042944Y-70404056D03*
X162740000Y-66307000D03*
D14*
X162740000Y-68707000D03*
D13*
X162740000Y-71107000D03*
X164437056Y-67009944D03*
X164437056Y-70404056D03*
X165140000Y-68707000D03*
%TD*%
D15*
%TO.C,C6*%
X151900500Y-86246000D03*
X151900500Y-84696000D03*
%TD*%
D38*
%TO.C,R10*%
X135060000Y-82025000D03*
X135060000Y-80375000D03*
%TD*%
D20*
%TO.C,R1*%
X143688000Y-84646000D03*
X143688000Y-86296000D03*
%TD*%
D29*
%TO.C,C12*%
X143615000Y-100370000D03*
X145165000Y-100370000D03*
%TD*%
%TO.C,C11*%
X149720000Y-93599000D03*
X151270000Y-93599000D03*
%TD*%
D19*
%TO.C,D2*%
X126835500Y-122533500D03*
X124960500Y-122533500D03*
%TD*%
D23*
%TO.C,C15*%
X147600000Y-73475000D03*
X147600000Y-75025000D03*
%TD*%
%TO.C,C16*%
X135060000Y-77270000D03*
X135060000Y-78820000D03*
%TD*%
D39*
%TO.C,R6*%
X158369000Y-124664500D03*
X160194000Y-124664500D03*
%TD*%
D29*
%TO.C,C2*%
X143625000Y-98890000D03*
X145175000Y-98890000D03*
%TD*%
D10*
%TO.C,R8*%
X126850500Y-116383500D03*
X125025500Y-116383500D03*
%TD*%
D15*
%TO.C,C5*%
X150258000Y-86246000D03*
X150258000Y-84696000D03*
%TD*%
D10*
%TO.C,R5*%
X160194000Y-116332000D03*
X158369000Y-116332000D03*
%TD*%
D40*
%TO.C,Y1*%
X144030000Y-105385000D03*
X140730000Y-105385000D03*
X140730000Y-107385000D03*
X144030000Y-107385000D03*
%TD*%
D13*
%TO.C,H3*%
X160340000Y-128731944D03*
X161042944Y-127034888D03*
X161042944Y-130429000D03*
X162740000Y-126331944D03*
D14*
X162740000Y-128731944D03*
D13*
X162740000Y-131131944D03*
X164437056Y-127034888D03*
X164437056Y-130429000D03*
X165140000Y-128731944D03*
%TD*%
D38*
%TO.C,R7*%
X135060000Y-85180000D03*
X135060000Y-83530000D03*
%TD*%
D39*
%TO.C,R9*%
X125025500Y-124716000D03*
X126850500Y-124716000D03*
%TD*%
D15*
%TO.C,C4*%
X148615500Y-86246000D03*
X148615500Y-84696000D03*
%TD*%
M02*
