M48
; DRILL file {KiCad 7.0.9} date Wed Dec 13 10:27:51 2023
; FORMAT={-:-/ absolute / metric / decimal}
; #@! TF.CreationDate,2023-12-13T10:27:51+03:00
; #@! TF.GenerationSoftware,Kicad,Pcbnew,7.0.9
; #@! TF.FileFunction,Plated,1,2,PTH
FMAT,2
METRIC
; #@! TA.AperFunction,Plated,PTH,ViaDrill
T1C0.400
; #@! TA.AperFunction,Plated,PTH,ComponentDrill
T2C0.450
; #@! TA.AperFunction,Plated,PTH,ComponentDrill
T3C0.500
; #@! TA.AperFunction,Plated,PTH,ComponentDrill
T4C1.000
; #@! TA.AperFunction,Plated,PTH,ComponentDrill
T5C3.200
%
G90
G05
T1
X130.937Y-77.343
X132.5Y-93.95
X133.42Y-85.91
X133.604Y-111.125
X135.34Y-113.917
X135.636Y-95.758
X138.303Y-100.203
X140.08Y-100.69
X140.208Y-82.677
X140.335Y-103.378
X140.843Y-90.932
X140.843Y-92.075
X140.843Y-93.345
X143.002Y-114.455
X143.256Y-90.932
X143.256Y-92.075
X143.256Y-93.345
X143.635Y-98.98
X143.764Y-107.061
X143.85Y-122.68
X146.685Y-114.427
X146.899Y-86.32
X147.6Y-76.454
X151.27Y-93.599
X153.543Y-84.696
X154.432Y-74.041
X161.417Y-117.983
T3
X119.92Y-68.707
X119.92Y-128.732
X120.623Y-67.01
X120.623Y-70.404
X120.623Y-127.035
X120.623Y-130.429
X122.32Y-66.307
X122.32Y-71.107
X122.32Y-126.332
X122.32Y-131.132
X124.017Y-67.01
X124.017Y-70.404
X124.017Y-127.035
X124.017Y-130.429
X124.72Y-68.707
X124.72Y-128.732
X160.34Y-68.707
X160.34Y-128.732
X161.043Y-67.01
X161.043Y-70.404
X161.043Y-127.035
X161.043Y-130.429
X162.74Y-66.307
X162.74Y-71.107
X162.74Y-126.332
X162.74Y-131.132
X164.437Y-67.01
X164.437Y-70.404
X164.437Y-127.035
X164.437Y-130.429
X165.14Y-68.707
X165.14Y-128.732
T4
X120.92Y-77.216
X120.92Y-79.756
X120.92Y-82.296
X120.92Y-84.836
X120.92Y-87.376
X120.92Y-89.916
X120.92Y-92.456
X120.92Y-94.996
X120.92Y-97.536
X120.92Y-100.076
X120.92Y-102.616
X120.92Y-105.156
X120.92Y-107.696
X120.92Y-110.236
X120.92Y-112.776
X120.92Y-115.316
X120.92Y-117.856
X120.92Y-120.396
X138.98Y-128.837
X141.52Y-128.837
X144.06Y-128.837
X146.6Y-128.837
X149.86Y-121.412
X149.86Y-123.952
X164.14Y-77.216
X164.14Y-79.756
X164.14Y-82.296
X164.14Y-84.836
X164.14Y-87.376
X164.14Y-89.916
X164.14Y-92.456
X164.14Y-94.996
X164.14Y-97.536
X164.14Y-100.076
X164.14Y-102.616
X164.14Y-105.156
X164.14Y-107.696
X164.14Y-110.236
X164.14Y-112.776
X164.14Y-115.316
X164.14Y-117.856
X164.14Y-120.396
T5
X122.32Y-68.707
X122.32Y-128.732
X162.74Y-68.707
X162.74Y-128.732
T2
G00X139.173Y-68.87
M15
G01X139.173Y-68.07
M16
G05
G00X146.323Y-68.07
M15
G01X146.323Y-68.87
M16
G05
T0
M30
